<svg xmlns="http://www.w3.org/2000/svg" viewBox="0 0 200 200"><defs><style>.cls-1{fill:#b8d49b;}.cls-10,.cls-2,.cls-9{fill:#f2f2f2;}.cls-3{fill:#9a9999;}.cls-4{fill:#f9c74b;}.cls-5{fill:#f4a728;}.cls-6{fill:#343434;}.cls-7{fill:#e6e6e6;}.cls-8{fill:#cdcccc;}.cls-9{stroke:#cdcccc;}.cls-10,.cls-9{stroke-miterlimit:10;stroke-width:0.75px;}.cls-10{stroke:#e6e6e6;}</style></defs><g id="Layer_2" data-name="Layer 2"><rect class="cls-1" width="200" height="200"/></g><g id="Layer_3" data-name="Layer 3"><path class="cls-2" d="M57.594,59.788c4.017,3.074,5.584,8.35,5.539,12.23-.066,5.538-3.686,9.056-6.216,12.929-8.82,13.5-16.94,29.249-13.544,44.944A25.3,25.3,0,0,0,47.16,139a28.646,28.646,0,0,0,6.336,6.334c13.823,10.487,32.447,12.728,49.865,11.49,16.773-1.193,33.571-5.365,47.863-14.073s25.907-22.245,30.218-38.216c.26-.966.322-2.292-.625-2.652a1.9,1.9,0,0,0-1.006-.026c-4.447.8-7.03,5.4-10.979,7.566-4.078,2.235-9.206,1.618-13.549-.068s-8.233-4.335-12.5-6.189c-9.7-4.212-20.764-4.086-31.3-2.856a162.789,162.789,0,0,0-28.242,5.87,14.751,14.751,0,0,1-5.871.97c-4.825-.554-7.687-5.986-7.4-10.751s2.739-9.094,4.546-13.525a52.26,52.26,0,0,0,1.59-34.7c-1.456-4.776-3.085-10.006-8.211-13.756a20.121,20.121,0,0,0-18.7-2.608c-.677.257-11.235,4.432-11.583,13.024a12.989,12.989,0,0,0,4.729,10.235C47.562,59.317,52.254,55.7,57.594,59.788Z"/><path class="cls-2" d="M56.533,60.849A13.852,13.852,0,0,1,61.572,70.5c.356,4-1.346,7.219-3.608,10.377a108.269,108.269,0,0,0-13.226,23.652c-3.314,8.551-4.852,18.009-2.512,27.015a25.411,25.411,0,0,0,6.48,11.617,44.315,44.315,0,0,0,10.434,7.577c15.3,8.269,33.7,8.975,50.617,6.979,18-2.124,35.86-7.88,50.2-19.255a70.369,70.369,0,0,0,16.209-18.1,60.4,60.4,0,0,0,5.27-10.858c.859-2.338,3.722-9.419-1.283-9.195-3.79.17-6.661,3.456-9.29,5.78a12.333,12.333,0,0,1-4.868,2.867,14.122,14.122,0,0,1-6.526.074c-4.592-.939-8.581-3.466-12.686-5.6a45.04,45.04,0,0,0-13.039-4.49c-9.4-1.647-19.024-.74-28.385.691q-7.5,1.147-14.862,2.987-3.618.9-7.192,1.973c-2.168.648-4.537,1.561-6.8.841-3.2-1.019-4.908-4.756-5.043-7.89-.194-4.482,2.124-8.713,3.841-12.708A54.236,54.236,0,0,0,79.512,57.48,59.283,59.283,0,0,0,76.6,44.8a24.207,24.207,0,0,0-5.89-9.975,21.486,21.486,0,0,0-22.152-4.375c-4.31,1.726-8.629,4.7-10.9,8.844-3.795,6.928-.006,16.7,7.648,19.046a25.5,25.5,0,0,0,5.7.717,10.666,10.666,0,0,1,5.818,2.028c1.559,1.142,3.057-1.46,1.514-2.591A12.244,12.244,0,0,0,52.7,56.231c-1.879-.261-3.811-.153-5.669-.549-4.075-.869-6.981-4.571-7.76-8.548-1.145-5.84,3.433-10.289,8.13-12.835.678-.368,1.372-.709,2.083-1.011-.355.151-.052.018.1-.037a21.378,21.378,0,0,1,3.221-.9A18.672,18.672,0,0,1,64.688,34.19c7.241,3.786,9.79,12.011,11.247,19.533a50.923,50.923,0,0,1-2.078,26.682c-2.628,7.348-8.007,15.147-3.812,23a9.46,9.46,0,0,0,8.24,5.3,24.619,24.619,0,0,0,6.737-1.485q3.579-1.047,7.2-1.93a139.751,139.751,0,0,1,28.115-4.174,59.887,59.887,0,0,1,13.464.885,44.734,44.734,0,0,1,12.656,4.661c7.117,3.8,16.252,8.68,24.017,3.522,2.854-1.9,4.979-5.022,8.159-6.408.387-.169.866-.213,1.235-.4.065-.033.512-.007.27-.175-.213-.148.019.051-.038.248-.238.826-.385,1.7-.642,2.536a52.459,52.459,0,0,1-2.058,5.567,63.15,63.15,0,0,1-13.182,19.092c-12.241,12.3-28.59,19.375-45.442,22.666-16.276,3.179-34.2,3.835-50.064-1.634a53.028,53.028,0,0,1-10.995-5.235c-3.583-2.257-7.142-4.988-9.509-8.553-4.922-7.417-4.907-17.282-2.808-25.629,2.214-8.8,6.645-16.882,11.48-24.491,2.011-3.165,4.6-6.092,6.215-9.487a15.754,15.754,0,0,0,1.024-10.6,16.108,16.108,0,0,0-5.469-8.954C57.155,57.543,55.019,59.652,56.533,60.849Z"/><path class="cls-3" d="M84.818,105.357a14.847,14.847,0,0,0-14,5.144,15.03,15.03,0,0,0-2.47,14.269c3.4,10.038,14.426,16.4,24.322,18.312a39.01,39.01,0,0,0,4.592.615,4.177,4.177,0,0,0,3.556-.961c1.978-2.161.372-6.437-.96-8.509L97.8,136.279a48.016,48.016,0,0,0,16.911,5.538c2.394.311,5.846,1.088,7.7-.943,1.6-1.76,1.034-4.477.252-6.469l-2.2,1.694c5.02,3.625,11.716,6.218,17.993,5.533,2.228-.244,6.868-1.116,5.774-4.386-.966-2.888-3.518-5.63-5.777-7.569-1.458-1.252-3.589.861-2.121,2.121a20.7,20.7,0,0,1,4.61,5.545c.057.1.543,1.1.5.575-.022-.279.1-.087-.262.008-.547.142-1.069.372-1.624.5a13.939,13.939,0,0,1-3.946.272,26.362,26.362,0,0,1-13.634-5.191,1.514,1.514,0,0,0-2.2,1.694c.473,1.2,1.5,3.763-.495,3.969a24.633,24.633,0,0,1-6.792-.729,45.093,45.093,0,0,1-13.165-4.753c-1.261-.692-2.894.742-2.052,2.052a8.366,8.366,0,0,1,1.249,3.027,4.468,4.468,0,0,1,.118,1.542c-.117.542-.16.436-.789.423a29.06,29.06,0,0,1-6.443-1.006,35.645,35.645,0,0,1-11.7-5.371c-6.307-4.425-12.058-12.735-7.627-20.42A11.757,11.757,0,0,1,84.02,108.25c1.889.3,2.7-2.59.8-2.893Z"/><path class="cls-4" d="M144.02,138.376c-2.878-1.2-6.96.089-7.859,2.749-.68,2.009.542,4.543,2.093,5.787,1.293,1.037,2.38.828,3.341,2.2a4.49,4.49,0,0,1,.8,2.93,15.74,15.74,0,0,1-1.279,2.939,9.947,9.947,0,0,0,0,8.745c2.159,4.028,7.206,5.557,11.775,5.686a23.023,23.023,0,0,0,13.537-3.536,15.173,15.173,0,0,0,6.89-11.826c-2.063-1.158-4.215,2.529-6.5,1.9a4.309,4.309,0,0,1-1.458-.916,15.687,15.687,0,0,0-18.77-.236,29.215,29.215,0,0,1,.217-6.269c.466-3.21,1.2-4.361.615-6.278A6.471,6.471,0,0,0,144.02,138.376Z"/><path class="cls-4" d="M144.319,137.291c-4.378-1.68-10.646,1.276-9.266,6.608a7.662,7.662,0,0,0,1.9,3.349c.94.966,2.179,1.21,3.209,1.991,2.664,2.02-.23,5.029-.824,7.393A10.582,10.582,0,0,0,140.5,164.9a11.863,11.863,0,0,0,6.125,4.545,24.336,24.336,0,0,0,16.806-.706c6.036-2.487,10.755-7.986,11.013-14.683a1.1,1.1,0,0,0-.557-.972c-2.233-1.062-3.741.664-5.637,1.56-1.28.606-2.035-.416-3.037-1.118a15.667,15.667,0,0,0-3.6-1.848,16.856,16.856,0,0,0-15.58,2.151l1.693.972a29.637,29.637,0,0,1,.177-5.97,39.683,39.683,0,0,0,.869-5.111,7.232,7.232,0,0,0-4.176-6.314c-1.307-.6-2.451,1.34-1.135,1.943a4.924,4.924,0,0,1,2.946,5.4,41.424,41.424,0,0,0-.931,10.05c.048.761.954,1.519,1.693.971a14.357,14.357,0,0,1,17.678.28,3.923,3.923,0,0,0,2.887,1.069,6.2,6.2,0,0,0,2.631-1.109c.571-.363,1.658-1.334,2.391-.985l-.557-.971c-.425,11.065-13.49,15.884-22.907,13.809-4.8-1.057-8.82-4.472-7.944-9.822a12.633,12.633,0,0,1,1.286-3.57,6.446,6.446,0,0,0,.916-2.851,5.309,5.309,0,0,0-3.2-4.827c-2.012-.915-4.373-3.691-2.764-5.97,1.315-1.863,4.181-2.117,6.149-1.362C145.074,139.98,145.659,137.805,144.319,137.291Z"/><path class="cls-5" d="M36.944,44.5a4.663,4.663,0,0,0,3.844,1.814c1.593-.048,3.166-.875,4.694-.432A5.2,5.2,0,0,1,48.1,48.2l3.012,4.336a3.36,3.36,0,0,1,.558,1.047c.3,1.2-.883,2.246-2.072,2.852a35.147,35.147,0,0,1-6.162,2.087c-5.981,1.746-11.529,4.4-17.319,6.563a7.006,7.006,0,0,1-3.035.617c-1.054-.095-2.135-.789-2.2-1.715-.066-.953.887-1.668,1.75-2.226,4.467-2.892,9.117-6.1,10.891-10.737.879-2.3,1.086-4.989,3.082-6.65"/><path class="cls-5" d="M36.414,45.027a5.6,5.6,0,0,0,5.44,1.916c1.273-.207,2.687-.807,3.918-.133,1.168.64,1.906,2.093,2.637,3.145.753,1.085,1.622,2.148,2.279,3.292.893,1.554-1.315,2.522-2.461,2.993-2.4.985-4.98,1.5-7.436,2.325C35.6,60.3,30.667,62.716,25.5,64.511c-.912.317-3.24,1.016-3.79-.326-.458-1.119,2.115-2.308,2.809-2.77a42.416,42.416,0,0,0,5.385-4.1,16.574,16.574,0,0,0,4.2-5.746c.934-2.273,1.1-4.938,3.027-6.664.722-.644-.342-1.7-1.06-1.061-1.915,1.712-2.306,4.164-3.1,6.483A15.551,15.551,0,0,1,28.112,56.9,40.3,40.3,0,0,1,24.6,59.557a35.216,35.216,0,0,0-3.349,2.284,2.469,2.469,0,0,0,.938,4.433,5.911,5.911,0,0,0,3.712-.317c1.6-.549,3.161-1.208,4.724-1.843,3-1.218,5.983-2.48,9.033-3.571,2.951-1.056,6.064-1.687,8.97-2.857,1.837-.739,4.6-2.257,3.631-4.67a24.888,24.888,0,0,0-2.963-4.409,9.461,9.461,0,0,0-2.764-3.092c-1.335-.763-2.79-.48-4.212-.19-1.881.383-3.587.238-4.843-1.359-.6-.758-1.651.31-1.06,1.061Z"/><path class="cls-5" d="M135.789,141.768a45.357,45.357,0,0,0-7.243,1.782c2.361,1.047,4.829,2.118,7.4,2.054a.588.588,0,0,0,.405-.116.527.527,0,0,0,.119-.338,8.907,8.907,0,0,0-.262-3.225"/><path class="cls-5" d="M135.49,140.683a46.25,46.25,0,0,0-7.243,1.782,1.132,1.132,0,0,0-.806.935,1.107,1.107,0,0,0,.537,1.121,23.1,23.1,0,0,0,6.593,2.139,6.949,6.949,0,0,0,1.63.043,1.573,1.573,0,0,0,1.389-1.553,9.838,9.838,0,0,0-.3-3.524,1.125,1.125,0,0,0-2.17.6,7.711,7.711,0,0,1,.25,1.454q.024.369.017.738c0,.147-.014.294-.019.441-.005.122-.06.165.009.063l.4-.4.162-.037c-.072,0-.145,0-.217,0-.169,0-.338,0-.506-.014-.25-.013-.488-.034-.7-.066a12.77,12.77,0,0,1-1.908-.449,31.484,31.484,0,0,1-3.491-1.373l-.269,2.056a46.25,46.25,0,0,1,7.243-1.782,1.135,1.135,0,0,0,.786-1.384,1.152,1.152,0,0,0-1.384-.786Z"/><path class="cls-6" d="M56.152,45.622c2.895,0,2.9-4.5,0-4.5s-2.9,4.5,0,4.5Z"/><path class="cls-6" d="M140.631,143.366a1.126,1.126,0,0,0,0-2.25,1.126,1.126,0,0,0,0,2.25Z"/><path class="cls-5" d="M148.075,153.855a14.258,14.258,0,0,0,2.742,4.83,9.106,9.106,0,0,0,4.751,2.418,19.37,19.37,0,0,0,6.356-.03c1.506-.207,3.559-1.211,2.837-3.1-.34-.893-1.791-.506-1.446.4.53,1.389-2.893,1.39-3.611,1.439a13.339,13.339,0,0,1-4.672-.377,7.173,7.173,0,0,1-3.406-2.077,13.3,13.3,0,0,1-2.1-3.9c-.358-.883-1.81-.5-1.447.4Z"/><path class="cls-7" d="M50.507,59a66.056,66.056,0,0,0,21.748-10,59.843,59.843,0,0,0,4.761-3.778c-.161-.233-.323-.465-.485-.7a60.566,60.566,0,0,1-4.843,3.824A66.924,66.924,0,0,1,50.239,58.29Z"/><path class="cls-7" d="M46.679,48.88a65.545,65.545,0,0,0,23.655-3.224,59.151,59.151,0,0,0,5.628-2.228q-.135-.4-.268-.81a59.837,59.837,0,0,1-5.719,2.248,66.391,66.391,0,0,1-23.351,3.253Z"/><path class="cls-8" d="M76.738,43.5a4.072,4.072,0,0,0,.193-1.771.968.968,0,0,0-1.034-.755.778.778,0,0,0-.582,1.02c.128.554.662.907.748,1.473l.264-.2a1.954,1.954,0,0,0-1.926-.536.871.871,0,0,0-.334,1.374c.48.464,1.324.206,1.847-.027a4.468,4.468,0,0,1,.51-.252,1.694,1.694,0,0,1,.657.057l1.377.193a.18.18,0,0,0,.1-.347,11.96,11.96,0,0,0-1.814-.4.183.183,0,0,0-.228.174q.084,1.251.178,2.5c.017.23.377.232.36,0q-.094-1.249-.178-2.5l-.228.174a11.931,11.931,0,0,1,1.814.4l.1-.347c-.649-.091-1.306-.222-1.959-.274a1.376,1.376,0,0,0-.716.244,2.786,2.786,0,0,1-.9.285c-.255.028-.629.017-.745-.262a.546.546,0,0,1,.288-.651c.572-.291,1.19.18,1.626.507.141.107.285-.069.264-.2a2.573,2.573,0,0,0-.536-1.017c-.171-.256-.439-.867.012-1.012s.711.353.736.715a5.856,5.856,0,0,1-.231,1.347c-.038.227.309.324.347.1Z"/><path class="cls-9" d="M18.75,52.38q1.122,8.007,2.243,16.015a91.971,91.971,0,0,0,11.931-1.019,95.439,95.439,0,0,0,22.234-6.212q-1.02-7.887-2.041-15.773c-1.839.313-4.753.755-8.364,1.061-4.742.4-5.608.137-8.44.719-3.455.71-4.25,1.532-8.789,3.013A65.709,65.709,0,0,1,18.75,52.38Z"/><path class="cls-7" d="M25.874,63.524a51.16,51.16,0,0,0,24.36-4.659c.438-.2.057-.848-.379-.648a50.359,50.359,0,0,1-23.981,4.557c-.482-.028-.48.722,0,.75Z"/><path class="cls-7" d="M25.634,59.111a51.173,51.173,0,0,0,24.36-4.66c.438-.2.057-.848-.379-.647a50.385,50.385,0,0,1-23.981,4.557c-.482-.029-.481.721,0,.75Z"/><path class="cls-7" d="M24.883,55.006a51.167,51.167,0,0,0,24.359-4.66c.439-.2.058-.848-.378-.647a50.385,50.385,0,0,1-23.981,4.557c-.483-.029-.481.721,0,.75Z"/><path class="cls-7" d="M135.923,147.57a28.15,28.15,0,0,0,10.194-.492,25.641,25.641,0,0,0,2.485-.736l-.081-.353a26.228,26.228,0,0,1-2.524.741,28.558,28.558,0,0,1-10.066.516Z"/><path class="cls-7" d="M136.021,142.957a27.928,27.928,0,0,0,9.87,2.49,25.083,25.083,0,0,0,2.58.015l.023-.363a25.644,25.644,0,0,1-2.62-.021,28.315,28.315,0,0,1-9.754-2.431Z"/><path class="cls-8" d="M148.862,145.656a1.88,1.88,0,0,0,.362-.682.515.515,0,0,0-.373-.6.427.427,0,0,0-.5.356.8.8,0,0,0,0,.335.944.944,0,0,1,.053.385l.329-.043c-.168-.278-.394-.58-.754-.579a.474.474,0,0,0-.453.655c.15.3.576.344.87.324a.67.67,0,0,1,.2-.013,1.188,1.188,0,0,1,.234.134l.48.277c.171.1.378-.148.218-.283a5.356,5.356,0,0,0-.691-.475.181.181,0,0,0-.264.107q-.166.508-.328,1.018c-.07.221.277.316.347.1q.162-.51.328-1.018l-.264.108a4.775,4.775,0,0,1,.617.418l.218-.282c-.236-.137-.47-.287-.713-.41a.612.612,0,0,0-.361-.039,1.171,1.171,0,0,1-.369-.018c-.057-.014-.178-.042-.2-.11s.045-.113.1-.126c.224-.056.39.246.482.4a.182.182,0,0,0,.329-.043,1.539,1.539,0,0,0-.057-.595c-.007-.052-.021-.218.06-.228.144-.016.112.22.086.29a2.985,2.985,0,0,1-.294.46c-.121.2.19.379.311.181Z"/><path class="cls-10" d="M126.325,140.6l-1.488,5.6a32.7,32.7,0,0,0,4.081,1.324,34.185,34.185,0,0,0,8.2,1.044l1.521-5.492c-.651-.152-1.674-.412-2.909-.813a24.231,24.231,0,0,0-2.886-.937,26.95,26.95,0,0,0-3.321-.229A23.368,23.368,0,0,1,126.325,140.6Z"/><path class="cls-7" d="M126.989,145.467a18.586,18.586,0,0,0,8.81,1.893c.482-.015.484-.765,0-.75a17.786,17.786,0,0,1-8.431-1.791c-.432-.213-.812.434-.379.648Z"/><path class="cls-7" d="M127.524,143.976a18.587,18.587,0,0,0,8.81,1.894c.481-.016.483-.766,0-.75a17.793,17.793,0,0,1-8.432-1.791c-.431-.213-.811.433-.378.647Z"/><path class="cls-7" d="M127.847,142.517a18.6,18.6,0,0,0,8.81,1.893c.482-.015.484-.766,0-.75a17.786,17.786,0,0,1-8.431-1.791c-.432-.213-.812.434-.379.648Z"/></g></svg>