<svg xmlns="http://www.w3.org/2000/svg" xmlns:xlink="http://www.w3.org/1999/xlink" viewBox="0 0 550 550"><defs><style>.cls-1{fill:none;}.cls-2,.cls-5{fill:#f2f2f2;}.cls-2{stroke:#cecccc;stroke-miterlimit:10;stroke-width:0.75px;}.cls-3{fill:#e7e6e6;}.cls-4{fill:#c9dcb6;}.cls-6{fill:#9a9a9a;}.cls-7{fill:#fac74b;}.cls-8{fill:#f5a829;}.cls-9{fill:#343434;}.cls-10{fill:#cecccc;}.cls-11{clip-path:url(#clip-path);}.cls-12{clip-path:url(#clip-path-2);}</style><clipPath id="clip-path"><rect class="cls-1" x="111.929" y="162.107" width="82.997" height="47.317" transform="translate(-57.009 68.441) rotate(-21.305)"/></clipPath><clipPath id="clip-path-2"><rect class="cls-1" x="344.219" y="355.665" width="16.96" height="29.748" transform="translate(-27.471 712.836) rotate(-88.412)"/></clipPath><symbol id="New_Symbol" data-name="New Symbol" viewBox="0 0 30.147 17.192"><path class="cls-2" d="M3.29,16.754Q1.867,10.744.442,4.733A70.087,70.087,0,0,1,9.216,2.147,72.921,72.921,0,0,1,26.765.392q1.461,5.9,2.924,11.8c-1.395.288-3.592.782-6.247,1.567-3.486,1.03-4.029,1.459-6.207,1.83-2.656.454-3.449.09-7.091.3A50,50,0,0,0,3.29,16.754Z"/><path class="cls-3" d="M5.182,6.792a39.175,39.175,0,0,1,18.671-3.48c.48.028.483.778,0,.75A38.387,38.387,0,0,0,5.561,7.436c-.436.2-.817-.446-.379-.648Z"/><path class="cls-3" d="M6.236,9.992a39.175,39.175,0,0,1,18.671-3.48c.48.028.483.778,0,.75A38.383,38.383,0,0,0,6.614,10.644c-.435.2-.817-.446-.378-.648Z"/><path class="cls-3" d="M6.841,13.126a39.175,39.175,0,0,1,18.671-3.48c.48.028.483.778,0,.75A38.38,38.38,0,0,0,7.219,13.774C6.784,13.974,6.4,13.328,6.841,13.126Z"/></symbol></defs><g id="green"><rect class="cls-4" x="-15.865" y="-46.809" width="646.559" height="646.559"/></g><g id="duck"><g id="Layer_3" data-name="Layer 3"><path class="cls-5" d="M196.741,192.216c8.449,6.465,11.744,17.561,11.65,25.722-.139,11.647-7.753,19.046-13.074,27.192-18.55,28.393-35.628,61.516-28.485,94.526a53.2,53.2,0,0,0,7.965,19.158,60.246,60.246,0,0,0,13.325,13.321C217.2,394.191,256.365,398.905,293,396.3c35.277-2.509,70.606-11.284,100.665-29.6s54.487-46.786,63.554-80.376c.547-2.032.677-4.82-1.314-5.578a3.99,3.99,0,0,0-2.116-.054c-9.353,1.682-14.786,11.357-23.091,15.912-8.577,4.7-19.362,3.4-28.5-.143s-17.316-9.117-26.29-13.016c-20.4-8.859-43.671-8.594-65.83-6.007a342.394,342.394,0,0,0-59.4,12.346,31.019,31.019,0,0,1-12.348,2.04c-10.148-1.165-16.167-12.59-15.564-22.611s5.761-19.127,9.561-28.446a109.905,109.905,0,0,0,3.344-72.981c-3.062-10.045-6.488-21.044-17.269-28.931a42.316,42.316,0,0,0-39.329-5.485c-1.424.54-23.63,9.321-24.362,27.391a27.32,27.32,0,0,0,9.946,21.527C175.642,191.225,185.51,183.618,196.741,192.216Z"/><path class="cls-5" d="M194.51,194.447a29.133,29.133,0,0,1,10.6,20.3c.748,8.413-2.831,15.183-7.589,21.825A227.684,227.684,0,0,0,169.7,286.314c-6.97,17.985-10.205,37.877-5.284,56.818a53.447,53.447,0,0,0,13.629,24.433A93.23,93.23,0,0,0,199.993,383.5c32.179,17.391,70.877,18.876,106.457,14.678,37.857-4.467,75.42-16.573,105.58-40.5a148.015,148.015,0,0,0,34.091-38.068,127.027,127.027,0,0,0,11.084-22.836c1.806-4.917,7.828-19.81-2.7-19.339-7.971.358-14.009,7.269-19.538,12.156a25.935,25.935,0,0,1-10.239,6.03,29.7,29.7,0,0,1-13.725.156c-9.658-1.975-18.048-7.29-26.681-11.778A94.719,94.719,0,0,0,356.9,274.56c-19.77-3.464-40.011-1.557-59.7,1.453q-15.774,2.412-31.257,6.282-7.609,1.893-15.127,4.15c-4.559,1.363-9.542,3.283-14.3,1.769-6.731-2.144-10.323-10-10.607-16.595-.408-9.426,4.467-18.325,8.079-26.727a114.074,114.074,0,0,0,8.852-57.531,124.672,124.672,0,0,0-6.125-26.668,50.9,50.9,0,0,0-12.387-20.979,45.19,45.19,0,0,0-46.59-9.2c-9.065,3.63-18.149,9.885-22.925,18.6-7.982,14.571-.013,35.123,16.085,40.057a53.585,53.585,0,0,0,11.988,1.508,22.438,22.438,0,0,1,12.237,4.265c3.279,2.4,6.429-3.07,3.184-5.449a25.754,25.754,0,0,0-11.858-4.759c-3.952-.549-8.015-.322-11.923-1.155-8.57-1.828-14.682-9.614-16.321-17.978-2.408-12.283,7.221-21.64,17.1-27,1.426-.774,2.886-1.491,4.381-2.126-.746.318-.109.038.211-.078a44.93,44.93,0,0,1,6.774-1.893,39.274,39.274,0,0,1,24.992,3.868c15.229,7.963,20.591,25.262,23.655,41.082a107.1,107.1,0,0,1-4.371,56.117c-5.527,15.454-16.84,31.857-8.017,48.373a19.9,19.9,0,0,0,17.33,11.147,51.787,51.787,0,0,0,14.17-3.123q7.527-2.2,15.143-4.059a293.922,293.922,0,0,1,59.131-8.779A125.923,125.923,0,0,1,357.019,281a94.034,94.034,0,0,1,26.618,9.8c14.968,7.992,34.181,18.255,50.512,7.407,6-4,10.472-10.562,17.16-13.477.814-.356,1.822-.448,2.6-.842.136-.069,1.077-.014.568-.368-.448-.311.04.108-.08.522-.5,1.737-.81,3.575-1.351,5.334a110.115,110.115,0,0,1-4.328,11.708,132.8,132.8,0,0,1-27.724,40.154c-25.745,25.87-60.13,40.75-95.573,47.671-34.232,6.686-71.929,8.066-105.294-3.436A111.526,111.526,0,0,1,197,374.463c-7.536-4.747-15.021-10.49-20-17.988-10.352-15.6-10.321-36.348-5.906-53.9,4.656-18.508,13.976-35.506,24.145-51.509,4.229-6.657,9.674-12.813,13.071-19.953a33.138,33.138,0,0,0,2.154-22.294,33.877,33.877,0,0,0-11.5-18.832C195.818,187.494,191.326,191.93,194.51,194.447Z"/><path class="cls-6" d="M254,288.056a31.225,31.225,0,0,0-29.445,10.819,31.612,31.612,0,0,0-5.195,30.01C226.51,350,249.7,363.377,270.513,367.4a81.985,81.985,0,0,0,9.658,1.293,8.787,8.787,0,0,0,7.479-2.021c4.16-4.545.782-13.538-2.02-17.9l-4.328,4.316a100.99,100.99,0,0,0,35.567,11.647c5.035.654,12.295,2.288,16.195-1.983,3.365-3.7,2.174-9.416.53-13.606l-4.627,3.563c10.558,7.624,24.641,13.078,37.842,11.637,4.686-.513,14.445-2.347,12.144-9.224-2.031-6.074-7.4-11.841-12.15-15.919-3.066-2.634-7.548,1.81-4.461,4.46a43.542,43.542,0,0,1,9.7,11.663c.12.21,1.142,2.313,1.052,1.209-.047-.587.21-.183-.551.017-1.151.3-2.249.782-3.416,1.051a29.279,29.279,0,0,1-8.3.572,55.443,55.443,0,0,1-28.675-10.917,3.184,3.184,0,0,0-4.627,3.563c1,2.523,3.155,7.914-1.041,8.347a51.8,51.8,0,0,1-14.285-1.533,94.847,94.847,0,0,1-27.689-10c-2.652-1.455-6.086,1.561-4.315,4.316a17.607,17.607,0,0,1,2.627,6.366,9.427,9.427,0,0,1,.248,3.244c-.246,1.14-.337.917-1.66.889a61.058,61.058,0,0,1-13.551-2.116,74.948,74.948,0,0,1-24.607-11.3c-13.265-9.306-25.36-26.784-16.041-42.947A24.728,24.728,0,0,1,252.32,294.14c3.973.631,5.679-5.447,1.683-6.084Z"/><path class="cls-7" d="M378.512,357.5c-6.053-2.524-14.639.187-16.529,5.782-1.431,4.225,1.14,9.555,4.4,12.171,2.719,2.181,5,1.741,7.026,4.627a9.441,9.441,0,0,1,1.683,6.162,33.091,33.091,0,0,1-2.69,6.182,20.916,20.916,0,0,0,0,18.392c4.541,8.472,15.156,11.687,24.765,11.959a48.429,48.429,0,0,0,28.471-7.437,31.911,31.911,0,0,0,14.491-24.872c-4.339-2.436-8.865,5.319-13.671,4a9.074,9.074,0,0,1-3.066-1.927,32.992,32.992,0,0,0-39.477-.5,61.4,61.4,0,0,1,.456-13.185c.98-6.751,2.524-9.172,1.294-13.2A13.61,13.61,0,0,0,378.512,357.5Z"/><path class="cls-7" d="M379.14,355.219c-9.207-3.533-22.39,2.684-19.488,13.9a16.119,16.119,0,0,0,4,7.044c1.977,2.031,4.583,2.545,6.749,4.187,5.6,4.249-.483,10.577-1.733,15.549a22.258,22.258,0,0,0,2.444,17.389,24.947,24.947,0,0,0,12.882,9.559,51.183,51.183,0,0,0,35.347-1.485c12.694-5.23,22.619-16.8,23.162-30.881a2.313,2.313,0,0,0-1.171-2.044c-4.7-2.234-7.868,1.4-11.856,3.281-2.692,1.274-4.28-.875-6.387-2.352a33,33,0,0,0-7.572-3.886A35.45,35.45,0,0,0,382.745,390l3.561,2.044a62.376,62.376,0,0,1,.372-12.556,83.38,83.38,0,0,0,1.828-10.749,15.21,15.21,0,0,0-8.783-13.28c-2.749-1.262-5.155,2.818-2.387,4.087a10.356,10.356,0,0,1,6.2,11.357,87.126,87.126,0,0,0-1.958,21.137c.1,1.6,2.006,3.2,3.561,2.042a30.2,30.2,0,0,1,37.18.589,8.253,8.253,0,0,0,6.072,2.248,13.042,13.042,0,0,0,5.533-2.332c1.2-.764,3.487-2.806,5.029-2.072l-1.172-2.042c-.894,23.272-28.372,33.407-48.177,29.043-10.1-2.223-18.551-9.406-16.708-20.658a26.543,26.543,0,0,1,2.7-7.508,13.575,13.575,0,0,0,1.926-6,11.165,11.165,0,0,0-6.73-10.152c-4.232-1.925-9.2-7.763-5.813-12.556,2.765-3.919,8.793-4.453,12.932-2.865C380.728,360.875,381.959,356.3,379.14,355.219Z"/><path class="cls-8" d="M153.31,160.062a9.809,9.809,0,0,0,8.085,3.815c3.35-.1,6.659-1.84,9.872-.908a10.933,10.933,0,0,1,5.507,4.875l6.334,9.119a7.075,7.075,0,0,1,1.174,2.2c.631,2.524-1.857,4.724-4.358,6a73.934,73.934,0,0,1-12.96,4.389c-12.579,3.672-24.247,9.254-36.425,13.8a14.724,14.724,0,0,1-6.383,1.3c-2.217-.2-4.49-1.66-4.627-3.607-.139-2,1.865-3.508,3.68-4.682,9.4-6.082,19.175-12.829,22.906-22.582,1.849-4.837,2.284-10.493,6.482-13.986"/><path class="cls-8" d="M152.2,161.17a11.777,11.777,0,0,0,11.441,4.03c2.677-.435,5.651-1.7,8.24-.28,2.457,1.346,4.009,4.4,5.546,6.615,1.584,2.282,3.412,4.518,4.794,6.924,1.878,3.268-2.766,5.3-5.176,6.294-5.048,2.072-10.474,3.155-15.64,4.89-10.917,3.649-21.292,8.731-32.16,12.506-1.918.667-6.814,2.137-7.971-.686-.963-2.353,4.449-4.854,5.908-5.826a89.179,89.179,0,0,0,11.326-8.623,34.842,34.842,0,0,0,8.833-12.085c1.965-4.78,2.314-10.385,6.367-14.015,1.518-1.355-.72-3.576-2.23-2.232-4.027,3.6-4.85,8.758-6.52,13.635a32.707,32.707,0,0,1-10.219,13.825,84.757,84.757,0,0,1-7.386,5.588,73.9,73.9,0,0,0-7.044,4.8,5.193,5.193,0,0,0,1.973,9.324,12.433,12.433,0,0,0,7.807-.667c3.365-1.154,6.648-2.54,9.935-3.876,6.31-2.562,12.584-5.216,19-7.511,6.207-2.22,12.754-3.548,18.866-6.008,3.864-1.555,9.675-4.747,7.637-9.822a52.367,52.367,0,0,0-6.232-9.273,19.9,19.9,0,0,0-5.813-6.5c-2.808-1.6-5.868-1.01-8.859-.4-3.956.806-7.544.5-10.186-2.858-1.262-1.594-3.472.652-2.229,2.231Z"/><path class="cls-8" d="M361.2,364.635a95.434,95.434,0,0,0-15.233,3.748c4.965,2.2,10.156,4.455,15.563,4.32a1.233,1.233,0,0,0,.852-.244,1.109,1.109,0,0,0,.251-.711,18.742,18.742,0,0,0-.552-6.783"/><path class="cls-8" d="M360.571,362.353a97.319,97.319,0,0,0-15.233,3.748,2.381,2.381,0,0,0-1.7,1.967,2.326,2.326,0,0,0,1.129,2.357,48.587,48.587,0,0,0,13.867,4.5,14.562,14.562,0,0,0,3.428.09,3.308,3.308,0,0,0,2.921-3.266,20.7,20.7,0,0,0-.631-7.411,2.367,2.367,0,0,0-4.564,1.261,16.2,16.2,0,0,1,.526,3.058q.051.777.036,1.553c0,.309-.03.618-.04.927-.011.257-.126.347.019.133l.841-.842.341-.077h-.457c-.355,0-.71,0-1.064-.03-.526-.027-1.026-.071-1.472-.139a26.823,26.823,0,0,1-4.013-.944,66.173,66.173,0,0,1-7.342-2.888l-.566,4.324a97.316,97.316,0,0,1,15.233-3.747,2.388,2.388,0,0,0,1.654-2.911,2.423,2.423,0,0,0-2.911-1.653Z"/><path class="cls-9" d="M193.708,162.422c6.089,0,6.1-9.465,0-9.465S187.609,162.422,193.708,162.422Z"/><path class="cls-9" d="M371.384,368a2.368,2.368,0,1,0-2.266-2.266A2.368,2.368,0,0,0,371.384,368Z"/><path class="cls-8" d="M387.04,390.056a29.987,29.987,0,0,0,5.767,10.159A19.149,19.149,0,0,0,402.8,405.3a40.716,40.716,0,0,0,13.368-.063c3.168-.435,7.485-2.547,5.967-6.52-.715-1.878-3.767-1.064-3.041.842,1.114,2.921-6.085,2.923-7.6,3.026a28.054,28.054,0,0,1-9.826-.793,15.086,15.086,0,0,1-7.164-4.368,27.97,27.97,0,0,1-4.416-8.2c-.753-1.857-3.807-1.051-3.044.842Z"/><path class="cls-3" d="M181.836,190.558a138.916,138.916,0,0,0,45.74-21.032,125.927,125.927,0,0,0,10.013-7.945c-.338-.491-.679-.978-1.02-1.473a127.465,127.465,0,0,1-10.185,8.043,140.764,140.764,0,0,1-45.112,20.914Z"/><path class="cls-3" d="M173.785,169.274a137.86,137.86,0,0,0,49.751-6.781,124.41,124.41,0,0,0,11.837-4.686q-.285-.84-.564-1.7a125.845,125.845,0,0,1-12.028,4.728,139.632,139.632,0,0,1-49.112,6.841Z"/><path class="cls-10" d="M237.005,157.959a8.58,8.58,0,0,0,.406-3.725,2.038,2.038,0,0,0-2.175-1.588,1.636,1.636,0,0,0-1.284,1.925,1.663,1.663,0,0,0,.06.22c.269,1.166,1.392,1.908,1.573,3.1l.555-.42a4.109,4.109,0,0,0-4.05-1.128,1.831,1.831,0,0,0-.7,2.89c1.01.976,2.785.434,3.885-.057a9.526,9.526,0,0,1,1.072-.53,3.583,3.583,0,0,1,1.382.12l2.9.406a.38.38,0,0,0,.211-.73h0a25.253,25.253,0,0,0-3.816-.841.384.384,0,0,0-.467.279.32.32,0,0,0-.012.087q.177,2.631.374,5.258c.036.484.793.488.757,0q-.2-2.627-.374-5.258l-.48.366a25.132,25.132,0,0,1,3.816.841l.21-.729c-1.365-.192-2.747-.467-4.12-.577a2.9,2.9,0,0,0-1.506.513,5.872,5.872,0,0,1-1.893.6c-.536.059-1.323.036-1.567-.551a1.148,1.148,0,0,1,.606-1.369c1.2-.612,2.5.378,3.42,1.066.3.225.6-.145.555-.421a5.419,5.419,0,0,0-1.127-2.139c-.36-.538-.924-1.823.025-2.128s1.5.742,1.548,1.5a12.323,12.323,0,0,1-.486,2.833c-.08.477.65.681.73.21Z"/><g class="cls-11"><use width="30.147" height="17.192" transform="matrix(2.565, -1, -1, -2.565, 123.367, 222.897)" xlink:href="#New_Symbol"/></g><path class="cls-3" d="M361.482,376.838a59.22,59.22,0,0,0,21.44-1.035,53.712,53.712,0,0,0,5.226-1.548l-.17-.742a55.043,55.043,0,0,1-5.308,1.558,60.05,60.05,0,0,1-21.171,1.085Z"/><path class="cls-3" d="M361.688,367.136a58.746,58.746,0,0,0,20.759,5.237,52.8,52.8,0,0,0,5.426.031l.048-.763a54.156,54.156,0,0,1-5.51-.044,59.562,59.562,0,0,1-20.515-5.113Z"/><path class="cls-10" d="M388.7,372.812a3.941,3.941,0,0,0,.762-1.434,1.085,1.085,0,0,0-.785-1.262.9.9,0,0,0-1.047.719l0,.03a1.671,1.671,0,0,0,0,.7,2.01,2.01,0,0,1,.111.81l.692-.09c-.353-.585-.829-1.22-1.586-1.218a1,1,0,0,0-1.028.965,1.009,1.009,0,0,0,.075.413c.316.63,1.212.723,1.83.681a1.417,1.417,0,0,1,.421-.027,2.523,2.523,0,0,1,.492.281l1.009.583c.36.21.8-.311.459-.595a11.241,11.241,0,0,0-1.453-1,.38.38,0,0,0-.52.141.394.394,0,0,0-.036.084q-.348,1.068-.689,2.141c-.148.465.582.664.729.21q.34-1.073.69-2.141l-.555.227a10.1,10.1,0,0,1,1.3.879l.458-.593c-.5-.288-.988-.6-1.5-.862a1.286,1.286,0,0,0-.76-.082,2.437,2.437,0,0,1-.776-.038c-.12-.029-.374-.088-.42-.231s.094-.238.21-.265c.471-.118.82.517,1.014.841a.383.383,0,0,0,.692-.09,3.25,3.25,0,0,0-.12-1.252c-.015-.109-.044-.458.126-.479.3-.034.235.462.181.61a6.248,6.248,0,0,1-.619.967.379.379,0,0,0,.654.381Z"/><g class="cls-12"><use width="30.147" height="17.192" transform="matrix(0.986, 0.027, 0.027, -0.986, 337.595, 378.609)" xlink:href="#New_Symbol"/></g></g></g></svg>