<svg xmlns="http://www.w3.org/2000/svg" xmlns:xlink="http://www.w3.org/1999/xlink" viewBox="0 0 960.096 4261.13"><defs><style>.submission-viewbox{fill:#e52421;}.cls-1,.cls-18,.cls-35{fill:none;}.cls-1,.cls-28{stroke:#999;}.cls-1,.cls-22,.cls-23,.cls-27,.cls-28,.cls-30,.cls-33{stroke-miterlimit:10;}.cls-1{stroke-width:3px;}.cls-2{fill:#f09d88;}.cls-3{fill:#808081;}.cls-4{fill:#cdcccc;}.cls-5{fill:#999;}.cls-6{fill:#f2ebd5;}.cls-33,.cls-7{fill:#526270;}.cls-8{fill:#6ac4cd;}.cls-9{fill:#676766;}.cls-10{fill:#3598aa;}.cls-11{fill:#b4b0a1;}.cls-12{fill:#cec9b8;}.cls-13{fill:#95bfa6;}.cls-14{fill:#f8c84d;}.cls-15{fill:#f3a628;}.cls-16{fill:#ee764a;}.cls-17,.cls-28{fill:#8bc0c6;}.cls-19,.cls-22,.cls-23,.cls-27{fill:#e2cca6;}.cls-20{fill:#c8b592;}.cls-21{fill:#af9f81;}.cls-22{stroke:#f3a628;}.cls-22,.cls-23,.cls-27{stroke-width:8px;}.cls-23{stroke:#58827e;}.cls-24{fill:#58827e;}.cls-25{fill:#e48c77;}.cls-26{fill:#9b8d72;}.cls-27{stroke:#e48c77;}.cls-28{stroke-width:7px;}.cls-29,.cls-30{fill:#f2f2f2;}.cls-30{stroke:#f2f2f2;stroke-width:0.75px;}.cls-31{fill:#333;}.cls-32{fill:#b3b3b3;}.cls-33{stroke:#676766;stroke-width:2px;}.cls-34{fill:#4e4d4d;}.cls-35{stroke:#cdcccc;stroke-linecap:round;stroke-width:6px;}</style><symbol id="houses_triple_2" data-name="houses triple 2" viewBox="0 0 523.561 246.316"><path class="cls-19" d="M364.95,111.2V237.47H518.364V111.2ZM465.469,219.868H418.117V152.335h47.352Z"/><rect class="cls-13" x="360.025" y="27.299" width="163.536" height="87.137"/><rect class="cls-20" x="418.117" y="219.868" width="47.352" height="8.824"/><rect class="cls-21" x="418.117" y="228.692" width="47.352" height="8.824"/><rect class="cls-20" x="418.117" y="237.47" width="47.352" height="8.824"/><polygon class="cls-23" points="441.793 12.379 475.186 63.408 508.579 114.437 441.793 114.437 375.008 114.437 408.401 63.408 441.793 12.379"/><rect class="cls-24" x="360.025" y="110.249" width="163.536" height="8.334"/><rect class="cls-7" x="422.736" y="71.062" width="16.354" height="26.937"/><rect class="cls-7" x="444.497" y="71.062" width="16.354" height="26.937"/><rect class="cls-24" x="482.924" y="5.804" width="26.867" height="39.488"/><rect class="cls-13" x="480.237" width="32.241" height="6.717"/><path class="cls-19" d="M4.924,111.216V237.492H158.338V111.216Zm100.52,108.673H58.092V152.357h47.352Z"/><rect class="cls-14" y="27.32" width="163.536" height="87.137"/><rect class="cls-20" x="58.092" y="219.889" width="47.352" height="8.824"/><rect class="cls-21" x="58.092" y="228.714" width="47.352" height="8.824"/><rect class="cls-20" x="58.092" y="237.492" width="47.352" height="8.824"/><polygon class="cls-22" points="81.768 12.4 115.161 63.429 148.553 114.458 81.768 114.458 14.983 114.458 48.375 63.429 81.768 12.4"/><rect class="cls-15" y="110.303" width="163.536" height="8.302"/><rect class="cls-7" x="62.71" y="71.084" width="16.354" height="26.937"/><rect class="cls-7" x="84.471" y="71.084" width="16.354" height="26.937"/><path class="cls-19" d="M185.076,111.216V237.492H338.49V111.216ZM285.6,219.889H238.243V152.357H285.6Z"/><rect class="cls-15" x="123.15" y="5.825" width="26.867" height="39.488"/><rect class="cls-14" x="120.463" y="0.021" width="32.241" height="6.717"/><rect class="cls-2" x="180.151" y="27.32" width="163.536" height="87.137"/><rect class="cls-20" x="238.243" y="219.889" width="47.352" height="8.824"/><rect class="cls-21" x="238.243" y="228.714" width="47.352" height="8.824"/><rect class="cls-20" x="238.243" y="237.492" width="47.352" height="8.824"/><polygon class="cls-27" points="261.919 12.4 295.312 63.429 328.705 114.458 261.919 114.458 195.134 114.458 228.527 63.429 261.919 12.4"/><rect class="cls-25" x="180.151" y="110.271" width="163.536" height="8.334"/><rect class="cls-7" x="242.862" y="71.084" width="16.354" height="26.937"/><rect class="cls-7" x="264.623" y="71.084" width="16.354" height="26.937"/><rect class="cls-25" x="303.05" y="5.825" width="26.867" height="39.488"/><rect class="cls-2" x="300.363" y="0.021" width="32.241" height="6.717"/></symbol><symbol id="double_house" data-name="double house" viewBox="0 0 344.402 246.295"><path class="cls-19" d="M185.79,111.2V237.47H339.2V111.2ZM286.31,219.868H238.958V152.335H286.31Z"/><path class="cls-19" d="M4.924,111.2V237.47H158.338V111.2Zm100.52,108.673H58.092V152.335h47.352Z"/><rect class="cls-14" x="180.866" y="27.299" width="163.536" height="87.137"/><rect class="cls-20" x="238.958" y="219.868" width="47.352" height="8.824"/><rect class="cls-21" x="238.958" y="228.692" width="47.352" height="8.824"/><rect class="cls-20" x="238.958" y="237.47" width="47.352" height="8.824"/><polygon class="cls-22" points="262.634 12.379 296.027 63.408 329.419 114.437 262.634 114.437 195.849 114.437 229.241 63.408 262.634 12.379"/><rect class="cls-15" x="180.866" y="109.234" width="163.536" height="8.302"/><rect class="cls-7" x="243.576" y="71.062" width="16.354" height="26.937"/><rect class="cls-7" x="265.337" y="71.062" width="16.354" height="26.937"/><rect class="cls-15" x="304.016" y="5.804" width="26.867" height="39.488"/><rect class="cls-14" x="301.329" width="32.241" height="6.717"/><rect class="cls-13" y="27.299" width="163.536" height="87.137"/><rect class="cls-20" x="58.092" y="219.868" width="47.352" height="8.824"/><rect class="cls-21" x="58.092" y="228.692" width="47.352" height="8.824"/><rect class="cls-20" x="58.092" y="237.47" width="47.352" height="8.824"/><polygon class="cls-23" points="81.768 12.379 115.161 63.408 148.553 114.437 81.768 114.437 14.983 114.437 48.375 63.408 81.768 12.379"/><rect class="cls-24" y="110.249" width="163.536" height="8.334"/><rect class="cls-7" x="62.71" y="71.062" width="16.354" height="26.937"/><rect class="cls-7" x="84.471" y="71.062" width="16.354" height="26.937"/><rect class="cls-24" x="122.899" y="5.804" width="26.867" height="39.488"/><rect class="cls-13" x="120.212" width="32.241" height="6.717"/></symbol><symbol id="triple_house-2" data-name="triple house" viewBox="0 0 525.463 246.295"><path class="cls-19" d="M366.851,111.2V237.47H520.265V111.2Zm100.52,108.673H420.019V152.335h47.352Z"/><rect class="cls-2" x="361.927" y="27.299" width="163.536" height="87.137"/><rect class="cls-20" x="420.019" y="219.868" width="47.352" height="8.824"/><rect class="cls-21" x="420.019" y="228.692" width="47.352" height="8.824"/><rect class="cls-20" x="420.019" y="237.47" width="47.352" height="8.824"/><polygon class="cls-27" points="443.695 12.379 477.088 63.408 510.48 114.437 443.695 114.437 376.91 114.437 410.302 63.408 443.695 12.379"/><rect class="cls-25" x="361.927" y="109.234" width="163.536" height="8.302"/><rect class="cls-7" x="424.637" y="71.062" width="16.354" height="26.937"/><rect class="cls-7" x="446.398" y="71.062" width="16.354" height="26.937"/><rect class="cls-25" x="485.077" y="5.804" width="26.867" height="39.488"/><rect class="cls-2" x="482.39" width="32.241" height="6.717"/><use width="344.402" height="246.295" xlink:href="#double_house"/></symbol><symbol id="apartment" data-name="apartment" viewBox="0 0 237.922 519.501"><polygon class="cls-1" points="31.585 43.716 37.403 61.632 43.222 79.549 31.585 79.549 19.948 79.549 25.766 61.632 31.585 43.716"/><path class="cls-2" d="M9.5,62.282v448.4H213.815V62.282Zm36.389,30.5H86.648v59.779H45.892Zm0,82.811H86.648v59.779H45.892Zm0,82.811H86.648v59.779H45.892Zm0,82.811H86.648V401H45.892ZM87.824,493.073H40.473V425.541H87.824ZM143.464,401H102.708v-59.78h40.756Zm0-82.812H102.708V258.4h40.756Zm0-82.811H102.708V175.593h40.756Zm0-82.811H102.708V92.782h40.756ZM200.28,401H159.524v-59.78H200.28Zm0-82.812H159.524V258.4H200.28Zm0-82.811H159.524V175.593H200.28Zm0-82.811H159.524V92.782H200.28Z"/><circle class="cls-3" cx="31.585" cy="45.018" r="6.087"/><circle class="cls-4" cx="54.27" cy="15.282" r="3.105"/><polygon class="cls-5" points="54.666 14.836 53.411 18.669 52.156 22.503 49.756 20.377 47.357 18.251 51.011 16.543 54.666 14.836"/><path class="cls-4" d="M72.755,40.754A30.727,30.727,0,1,1,26.758,0"/><circle class="cls-4" cx="54.27" cy="15.282" r="3.105"/><rect class="cls-5" x="170.734" y="36.067" width="8.526" height="30.075"/><rect class="cls-5" x="187.274" y="40.51" width="8.526" height="24.965"/><rect class="cls-6" x="169.987" y="37.689" width="10.019" height="1.61"/><rect class="cls-6" x="169.987" y="41.35" width="10.019" height="1.61"/><rect class="cls-6" x="186.527" y="42.155" width="10.019" height="1.61"/><rect class="cls-6" x="186.527" y="45.815" width="10.019" height="1.61"/><rect class="cls-7" x="111.766" y="419.527" width="95.911" height="59.779"/><rect class="cls-6" x="107.988" y="419.527" width="7.554" height="73.804"/><rect class="cls-6" x="206.261" y="422.663" width="7.554" height="73.804"/><rect class="cls-6" x="157.125" y="421.338" width="7.554" height="73.804"/><rect class="cls-6" x="107.988" y="476.615" width="105.827" height="29.953"/><path class="cls-8" d="M237.922,444.182H142.668L133.973,430.9c-.1-.158-9.6-14.668-9.606-14.679-.048-.074-5.675-8.671-5.722-8.744H213.9l2.118,3.236c.068.1,6.691,10.224,6.865,10.491q2.362,3.61,4.726,7.221l6.189,9.458Z"/><rect class="cls-9" y="397.529" width="39.433" height="3.466"/><rect class="cls-9" y="369.372" width="39.433" height="3.466"/><rect class="cls-5" x="7.387" y="372.838" width="2.116" height="24.691"/><rect class="cls-5" x="12.851" y="372.838" width="2.116" height="24.691"/><rect class="cls-5" x="18.316" y="372.838" width="2.116" height="24.691"/><rect class="cls-5" x="23.781" y="372.838" width="2.116" height="24.691"/><rect class="cls-5" x="29.372" y="372.838" width="2.116" height="24.691"/><rect class="cls-5" x="34.836" y="372.838" width="2.116" height="24.691"/><rect class="cls-9" x="0.178" y="314.717" width="39.433" height="3.466"/><rect class="cls-9" x="0.178" y="286.561" width="39.433" height="3.466"/><rect class="cls-5" x="7.565" y="290.027" width="2.116" height="24.691"/><rect class="cls-5" x="13.029" y="290.027" width="2.116" height="24.691"/><rect class="cls-5" x="18.494" y="290.027" width="2.116" height="24.691"/><rect class="cls-5" x="23.959" y="290.027" width="2.116" height="24.691"/><rect class="cls-5" x="29.549" y="290.027" width="2.116" height="24.691"/><rect class="cls-5" x="35.014" y="290.027" width="2.116" height="24.691"/><rect class="cls-9" x="0.088" y="231.906" width="39.433" height="3.466"/><rect class="cls-9" x="0.088" y="203.75" width="39.433" height="3.466"/><rect class="cls-5" x="7.475" y="207.216" width="2.116" height="24.691"/><rect class="cls-5" x="12.94" y="207.216" width="2.116" height="24.691"/><rect class="cls-5" x="18.404" y="207.216" width="2.116" height="24.691"/><rect class="cls-5" x="23.869" y="207.216" width="2.116" height="24.691"/><rect class="cls-5" x="29.46" y="207.216" width="2.116" height="24.691"/><rect class="cls-5" x="34.924" y="207.216" width="2.116" height="24.691"/><rect class="cls-9" x="0.088" y="149.095" width="39.433" height="3.466"/><rect class="cls-9" x="0.088" y="120.939" width="39.433" height="3.466"/><rect class="cls-5" x="7.475" y="124.405" width="2.116" height="24.691"/><rect class="cls-5" x="12.94" y="124.405" width="2.116" height="24.691"/><rect class="cls-5" x="18.404" y="124.405" width="2.116" height="24.691"/><rect class="cls-5" x="23.869" y="124.405" width="2.116" height="24.691"/><rect class="cls-5" x="29.46" y="124.405" width="2.116" height="24.691"/><rect class="cls-5" x="34.924" y="124.405" width="2.116" height="24.691"/><rect class="cls-6" x="7.565" y="152.561" width="208.196" height="6.477"/><rect class="cls-6" x="7.565" y="235.372" width="208.196" height="6.477"/><rect class="cls-6" x="7.565" y="318.183" width="208.196" height="6.477"/><rect class="cls-6" x="7.561" y="400.995" width="208.196" height="6.477"/><rect class="cls-6" x="7.565" y="62.282" width="208.196" height="6.34"/><path class="cls-10" d="M191.172,444.182H166.878l-24.21-36.71h24.024Z"/><path class="cls-10" d="M237.922,444.182H213.814l-23.939-36.71H213.9Z"/><path class="cls-10" d="M143.464,444.182H119.17l-24.21-36.71h24.024l4.6,6.9,4.639,6.956,8.746,13.116Z"/><rect class="cls-11" x="62.08" y="493.073" width="25.744" height="26.427"/><rect class="cls-6" x="40.473" y="493.073" width="38.955" height="8.824"/><rect class="cls-12" x="32.076" y="501.898" width="40.115" height="8.824"/><rect class="cls-6" x="24.839" y="510.676" width="39.309" height="8.824"/><rect class="cls-5" x="1.726" y="372.838" width="2.116" height="24.691"/><rect class="cls-5" x="1.904" y="290.027" width="2.116" height="24.691"/><rect class="cls-5" x="1.815" y="207.216" width="2.116" height="24.691"/><rect class="cls-5" x="1.815" y="124.405" width="2.116" height="24.691"/></symbol><symbol id="apartments-2" data-name="apartments" viewBox="0 0 479.594 519.501"><polygon class="cls-1" points="31.585 43.716 37.403 61.632 43.222 79.549 31.585 79.549 19.948 79.549 25.766 61.632 31.585 43.716"/><path class="cls-13" d="M9.5,62.282v448.4H213.815V62.282Zm36.389,30.5H86.648v59.779H45.892Zm0,82.811H86.648v59.779H45.892Zm0,82.811H86.648v59.779H45.892Zm0,82.811H86.648V401H45.892ZM87.825,493.074H40.473V425.541H87.825ZM143.464,401H102.708v-59.78h40.756Zm0-82.812H102.708V258.4h40.756Zm0-82.811H102.708V175.593h40.756Zm0-82.811H102.708V92.782h40.756ZM200.28,401H159.524v-59.78H200.28Zm0-82.812H159.524V258.4H200.28Zm0-82.811H159.524V175.593H200.28Zm0-82.811H159.524V92.782H200.28Z"/><path class="cls-14" d="M251.174,146.5V510.607H455.487V146.5Zm36.389,29.019h40.756V235.3H287.563Zm0,82.811h40.756v59.779H287.563Zm0,82.811h40.756V400.92H287.563ZM329.5,493H282.144V425.467H329.5Zm55.639-92.079H344.379V341.141h40.756Zm0-82.811H344.379V258.33h40.756Zm0-82.811H344.379V175.519h40.756ZM441.951,400.92H401.2V341.141h40.756Zm0-82.811H401.2V258.33h40.756Zm0-82.811H401.2V175.519h40.756Z"/><circle class="cls-3" cx="31.585" cy="45.018" r="6.087"/><circle class="cls-4" cx="54.27" cy="15.282" r="3.105"/><polygon class="cls-5" points="54.666 14.836 53.411 18.669 52.156 22.503 49.756 20.377 47.357 18.251 51.011 16.543 54.666 14.836"/><path class="cls-4" d="M72.755,40.754A30.727,30.727,0,1,1,26.758,0"/><circle class="cls-4" cx="54.27" cy="15.282" r="3.105"/><rect class="cls-5" x="170.734" y="36.067" width="8.526" height="30.075"/><rect class="cls-5" x="187.274" y="40.51" width="8.526" height="24.965"/><rect class="cls-6" x="169.987" y="37.689" width="10.019" height="1.61"/><rect class="cls-6" x="169.987" y="41.35" width="10.019" height="1.61"/><rect class="cls-6" x="186.527" y="42.155" width="10.019" height="1.61"/><rect class="cls-6" x="186.527" y="45.815" width="10.019" height="1.61"/><rect class="cls-7" x="111.766" y="419.527" width="95.911" height="59.779"/><rect class="cls-6" x="107.988" y="419.527" width="7.554" height="73.804"/><rect class="cls-6" x="206.261" y="422.663" width="7.554" height="73.804"/><rect class="cls-6" x="157.125" y="421.338" width="7.554" height="73.804"/><rect class="cls-6" x="107.988" y="476.615" width="105.827" height="29.953"/><path class="cls-15" d="M237.922,444.182H142.668l-2.651-4.051-4.986-7.62-4.971-7.6-4.689-7.165-3.052-4.664-3.674-5.614H213.9l4.821,7.368,4.59,7.013,7.149,10.925Z"/><rect class="cls-9" y="397.529" width="39.433" height="3.466"/><rect class="cls-9" y="369.372" width="39.433" height="3.466"/><rect class="cls-5" x="1.71" y="372.838" width="2.116" height="24.691"/><rect class="cls-5" x="7.387" y="372.838" width="2.116" height="24.691"/><rect class="cls-5" x="12.851" y="372.838" width="2.116" height="24.691"/><rect class="cls-5" x="18.316" y="372.838" width="2.116" height="24.691"/><rect class="cls-5" x="23.781" y="372.838" width="2.116" height="24.691"/><rect class="cls-5" x="29.372" y="372.838" width="2.116" height="24.691"/><rect class="cls-5" x="34.836" y="372.838" width="2.116" height="24.691"/><rect class="cls-9" x="0.178" y="314.717" width="39.433" height="3.466"/><rect class="cls-9" x="0.178" y="286.561" width="39.433" height="3.466"/><rect class="cls-5" x="1.888" y="290.027" width="2.116" height="24.691"/><rect class="cls-5" x="7.565" y="290.027" width="2.116" height="24.691"/><rect class="cls-5" x="13.029" y="290.027" width="2.116" height="24.691"/><rect class="cls-5" x="18.494" y="290.027" width="2.116" height="24.691"/><rect class="cls-5" x="23.959" y="290.027" width="2.116" height="24.691"/><rect class="cls-5" x="29.549" y="290.027" width="2.116" height="24.691"/><rect class="cls-5" x="35.014" y="290.027" width="2.116" height="24.691"/><rect class="cls-9" x="0.088" y="231.906" width="39.433" height="3.466"/><rect class="cls-9" x="0.088" y="203.75" width="39.433" height="3.466"/><rect class="cls-5" x="1.798" y="207.216" width="2.116" height="24.691"/><rect class="cls-5" x="7.475" y="207.216" width="2.116" height="24.691"/><rect class="cls-5" x="12.94" y="207.216" width="2.116" height="24.691"/><rect class="cls-5" x="18.404" y="207.216" width="2.116" height="24.691"/><rect class="cls-5" x="23.869" y="207.216" width="2.116" height="24.691"/><rect class="cls-5" x="29.46" y="207.216" width="2.116" height="24.691"/><rect class="cls-5" x="34.924" y="207.216" width="2.116" height="24.691"/><rect class="cls-9" x="0.088" y="149.095" width="39.433" height="3.466"/><rect class="cls-9" x="0.088" y="120.939" width="39.433" height="3.466"/><rect class="cls-5" x="1.798" y="124.405" width="2.116" height="24.691"/><rect class="cls-5" x="7.475" y="124.405" width="2.116" height="24.691"/><rect class="cls-5" x="12.94" y="124.405" width="2.116" height="24.691"/><rect class="cls-5" x="18.404" y="124.405" width="2.116" height="24.691"/><rect class="cls-5" x="23.869" y="124.405" width="2.116" height="24.691"/><rect class="cls-5" x="29.46" y="124.405" width="2.116" height="24.691"/><rect class="cls-5" x="34.924" y="124.405" width="2.116" height="24.691"/><rect class="cls-6" x="7.565" y="152.561" width="208.196" height="6.477"/><rect class="cls-6" x="7.565" y="235.372" width="208.196" height="6.477"/><rect class="cls-6" x="7.565" y="318.183" width="208.196" height="6.477"/><rect class="cls-6" x="7.561" y="400.995" width="208.196" height="6.477"/><rect class="cls-6" x="7.565" y="62.282" width="208.196" height="6.34"/><path class="cls-16" d="M191.172,444.182H166.878l-24.21-36.71h24.024Z"/><path class="cls-16" d="M237.922,444.182H213.814l-23.939-36.71H213.9Z"/><path class="cls-16" d="M143.464,444.182H119.17l-24.21-36.71h24.024Z"/><rect class="cls-11" x="62.08" y="493.073" width="25.744" height="26.427"/><rect class="cls-6" x="40.473" y="493.073" width="38.955" height="8.824"/><rect class="cls-12" x="32.076" y="501.898" width="40.115" height="8.824"/><rect class="cls-6" x="24.839" y="510.676" width="39.309" height="8.824"/><rect class="cls-5" x="412.402" y="119.115" width="8.526" height="30.075"/><rect class="cls-5" x="428.942" y="123.558" width="8.526" height="24.965"/><rect class="cls-6" x="411.655" y="120.737" width="10.019" height="1.61"/><rect class="cls-6" x="411.655" y="124.397" width="10.019" height="1.61"/><rect class="cls-6" x="428.195" y="125.202" width="10.019" height="1.61"/><rect class="cls-6" x="428.195" y="128.863" width="10.019" height="1.61"/><rect class="cls-7" x="353.437" y="419.453" width="95.911" height="59.779"/><rect class="cls-6" x="349.66" y="419.453" width="7.554" height="73.804"/><rect class="cls-6" x="447.932" y="422.589" width="7.554" height="73.804"/><rect class="cls-6" x="398.796" y="421.263" width="7.554" height="73.804"/><rect class="cls-6" x="349.66" y="476.541" width="105.827" height="29.953"/><path class="cls-17" d="M479.593,444.108H384.34l-6.788-10.372-6.3-9.624-4.19-6.4L360.316,407.4H455.57c.015.024,4.1,6.264,4.115,6.288.049.075,8.516,13.014,8.583,13.115Z"/><rect class="cls-9" x="241.671" y="397.454" width="39.433" height="3.466"/><rect class="cls-9" x="241.671" y="369.298" width="39.433" height="3.466"/><rect class="cls-5" x="243.381" y="372.764" width="2.116" height="24.691"/><rect class="cls-5" x="249.058" y="372.764" width="2.116" height="24.691"/><rect class="cls-5" x="254.523" y="372.764" width="2.116" height="24.691"/><rect class="cls-5" x="259.987" y="372.764" width="2.116" height="24.691"/><rect class="cls-5" x="265.452" y="372.764" width="2.116" height="24.691"/><rect class="cls-5" x="271.043" y="372.764" width="2.116" height="24.691"/><rect class="cls-5" x="276.507" y="372.764" width="2.116" height="24.691"/><rect class="cls-9" x="241.849" y="314.643" width="39.433" height="3.466"/><rect class="cls-9" x="241.849" y="286.487" width="39.433" height="3.466"/><rect class="cls-5" x="243.559" y="289.953" width="2.116" height="24.691"/><rect class="cls-5" x="249.236" y="289.953" width="2.116" height="24.691"/><rect class="cls-5" x="254.7" y="289.953" width="2.116" height="24.691"/><rect class="cls-5" x="260.165" y="289.953" width="2.116" height="24.691"/><rect class="cls-5" x="265.63" y="289.953" width="2.116" height="24.691"/><rect class="cls-5" x="271.221" y="289.953" width="2.116" height="24.691"/><rect class="cls-5" x="276.685" y="289.953" width="2.116" height="24.691"/><rect class="cls-9" x="241.759" y="231.832" width="39.433" height="3.466"/><rect class="cls-9" x="241.759" y="203.676" width="39.433" height="3.466"/><rect class="cls-5" x="243.469" y="207.142" width="2.116" height="24.691"/><rect class="cls-5" x="249.146" y="207.142" width="2.116" height="24.691"/><rect class="cls-5" x="254.611" y="207.142" width="2.116" height="24.691"/><rect class="cls-5" x="260.076" y="207.142" width="2.116" height="24.691"/><rect class="cls-5" x="265.54" y="207.142" width="2.116" height="24.691"/><rect class="cls-5" x="271.131" y="207.142" width="2.116" height="24.691"/><rect class="cls-5" x="276.596" y="207.142" width="2.116" height="24.691"/><rect class="cls-6" x="249.236" y="145.487" width="208.196" height="6.477"/><rect class="cls-6" x="249.236" y="235.298" width="208.196" height="6.477"/><rect class="cls-6" x="249.236" y="318.109" width="208.196" height="6.477"/><rect class="cls-6" x="249.232" y="400.921" width="208.196" height="6.477"/><rect class="cls-6" x="249.232" y="145.329" width="208.196" height="6.34"/><path class="cls-10" d="M432.843,444.108H408.55L384.34,407.4h24.023Z"/><path class="cls-10" d="M479.594,444.108H455.485q-11.969-18.356-23.939-36.71H455.57Z"/><path class="cls-10" d="M385.135,444.108H360.841l-24.21-36.71h24.024Z"/><rect class="cls-11" x="303.751" y="492.999" width="25.744" height="26.427"/><rect class="cls-6" x="282.144" y="492.999" width="38.955" height="8.824"/><rect class="cls-12" x="273.747" y="501.824" width="40.115" height="8.824"/><rect class="cls-6" x="266.51" y="510.602" width="39.309" height="8.824"/><line class="cls-18" x1="298.091" y1="513.047" x2="297.696" y2="513.047"/></symbol><symbol id="apartments_2" data-name="apartments 2" viewBox="0 0 481.599 519.501"><polygon class="cls-1" points="275.261 43.716 281.08 61.632 286.898 79.549 275.261 79.549 263.624 79.549 269.443 61.632 275.261 43.716"/><path class="cls-13" d="M253.179,62.282v448.4H457.492V62.282Zm36.389,30.5h40.756v59.779H289.568Zm0,82.811h40.756v59.779H289.568Zm0,82.811h40.756v59.779H289.568Zm0,82.811h40.756V401H289.568ZM331.5,493.073H284.149V425.541H331.5ZM387.14,401H346.384v-59.78H387.14Zm0-82.812H346.384V258.4H387.14Zm0-82.811H346.384V175.593H387.14Zm0-82.811H346.384V92.782H387.14ZM443.956,401H403.2v-59.78h40.756Zm0-82.812H403.2V258.4h40.756Zm0-82.811H403.2V175.593h40.756Zm0-82.811H403.2V92.782h40.756Z"/><path class="cls-14" d="M9.5,145.938V510.046H213.815V145.938Zm36.389,29.019H86.648v59.78H45.892Zm0,82.811H86.648v59.78H45.892Zm0,82.812H86.648v59.779H45.892ZM87.825,492.438H40.473V424.905H87.825Zm55.639-92.079H102.708V340.58h40.756Zm0-82.811H102.708v-59.78h40.756Zm0-82.811H102.708v-59.78h40.756ZM200.28,400.359H159.524V340.58H200.28Zm0-82.811H159.524v-59.78H200.28Zm0-82.811H159.524v-59.78H200.28Z"/><rect class="cls-5" x="170.73" y="118.553" width="8.526" height="30.075"/><rect class="cls-5" x="187.271" y="122.996" width="8.526" height="24.965"/><rect class="cls-6" x="169.984" y="120.175" width="10.019" height="1.61"/><rect class="cls-6" x="169.984" y="123.836" width="10.019" height="1.61"/><rect class="cls-6" x="186.524" y="124.641" width="10.019" height="1.61"/><rect class="cls-6" x="186.524" y="128.302" width="10.019" height="1.61"/><rect class="cls-7" x="111.766" y="418.891" width="95.911" height="59.779"/><rect class="cls-6" x="107.988" y="418.891" width="7.554" height="73.804"/><rect class="cls-6" x="206.261" y="422.027" width="7.554" height="73.804"/><rect class="cls-6" x="157.125" y="420.702" width="7.554" height="73.804"/><rect class="cls-6" x="107.988" y="475.979" width="105.827" height="29.953"/><path class="cls-17" d="M237.922,443.546H142.668l-6.336-9.683-9.8-14.972-4.911-7.5-2.978-4.551H213.9l3.284,5.018,4.605,7.037,4.351,6.65Z"/><rect class="cls-9" y="396.893" width="39.433" height="3.466"/><rect class="cls-9" y="368.736" width="39.433" height="3.466"/><rect class="cls-5" x="7.387" y="372.202" width="2.116" height="24.691"/><rect class="cls-5" x="12.851" y="372.202" width="2.116" height="24.691"/><rect class="cls-5" x="18.316" y="372.202" width="2.116" height="24.691"/><rect class="cls-5" x="23.781" y="372.202" width="2.116" height="24.691"/><rect class="cls-5" x="29.372" y="372.202" width="2.116" height="24.691"/><rect class="cls-5" x="34.836" y="372.202" width="2.116" height="24.691"/><rect class="cls-9" x="0.178" y="314.082" width="39.433" height="3.466"/><rect class="cls-9" x="0.178" y="285.925" width="39.433" height="3.466"/><rect class="cls-5" x="7.565" y="289.391" width="2.116" height="24.691"/><rect class="cls-5" x="13.029" y="289.391" width="2.116" height="24.691"/><rect class="cls-5" x="18.494" y="289.391" width="2.116" height="24.691"/><rect class="cls-5" x="23.959" y="289.391" width="2.116" height="24.691"/><rect class="cls-5" x="29.549" y="289.391" width="2.116" height="24.691"/><rect class="cls-5" x="35.014" y="289.391" width="2.116" height="24.691"/><rect class="cls-9" x="0.088" y="231.271" width="39.433" height="3.466"/><rect class="cls-9" x="0.088" y="203.114" width="39.433" height="3.466"/><rect class="cls-5" x="7.475" y="206.58" width="2.116" height="24.691"/><rect class="cls-5" x="12.94" y="206.58" width="2.116" height="24.691"/><rect class="cls-5" x="18.404" y="206.58" width="2.116" height="24.691"/><rect class="cls-5" x="23.869" y="206.58" width="2.116" height="24.691"/><rect class="cls-5" x="29.46" y="206.58" width="2.116" height="24.691"/><rect class="cls-5" x="34.924" y="206.58" width="2.116" height="24.691"/><rect class="cls-6" x="7.565" y="144.926" width="208.196" height="6.477"/><rect class="cls-6" x="7.565" y="234.737" width="208.196" height="6.477"/><rect class="cls-6" x="7.565" y="317.548" width="208.196" height="6.477"/><rect class="cls-6" x="7.561" y="400.359" width="208.196" height="6.477"/><rect class="cls-6" x="7.561" y="144.768" width="208.196" height="6.34"/><path class="cls-10" d="M191.172,443.546H166.878l-24.21-36.71h24.024Z"/><path class="cls-10" d="M237.922,443.546H213.814q-11.97-18.354-23.939-36.71H213.9Q225.911,425.191,237.922,443.546Z"/><path class="cls-10" d="M143.464,443.546H119.17l-24.21-36.71h24.024Z"/><rect class="cls-11" x="62.08" y="492.438" width="25.744" height="26.427"/><rect class="cls-6" x="40.473" y="492.438" width="38.955" height="8.824"/><rect class="cls-12" x="32.076" y="501.262" width="40.115" height="8.824"/><rect class="cls-6" x="24.839" y="510.041" width="39.309" height="8.824"/><circle class="cls-3" cx="275.261" cy="45.018" r="6.087"/><circle class="cls-4" cx="297.946" cy="15.282" r="3.105"/><polygon class="cls-5" points="298.342 14.836 297.087 18.669 295.832 22.503 293.432 20.377 291.033 18.251 294.688 16.543 298.342 14.836"/><path class="cls-4" d="M316.431,40.754A30.727,30.727,0,1,1,270.434,0"/><circle class="cls-4" cx="297.946" cy="15.282" r="3.105"/><rect class="cls-5" x="414.41" y="36.067" width="8.526" height="30.075"/><rect class="cls-5" x="430.95" y="40.51" width="8.526" height="24.965"/><rect class="cls-6" x="413.663" y="37.689" width="10.019" height="1.61"/><rect class="cls-6" x="413.663" y="41.35" width="10.019" height="1.61"/><rect class="cls-6" x="430.203" y="42.155" width="10.019" height="1.61"/><rect class="cls-6" x="430.203" y="45.815" width="10.019" height="1.61"/><rect class="cls-7" x="355.442" y="419.527" width="95.911" height="59.779"/><rect class="cls-6" x="351.665" y="419.527" width="7.554" height="73.804"/><rect class="cls-6" x="449.937" y="422.663" width="7.554" height="73.804"/><rect class="cls-6" x="400.801" y="421.338" width="7.554" height="73.804"/><rect class="cls-6" x="351.665" y="476.615" width="105.827" height="29.953"/><path class="cls-15" d="M481.6,444.182H386.345L383.8,440.3l-7.776-11.883c-.014-.022-3.9-5.959-3.905-5.968l-7.389-11.289-2.413-3.688h95.254l4.133,6.316,8.785,13.424Z"/><rect class="cls-9" x="243.676" y="397.529" width="39.433" height="3.466"/><rect class="cls-9" x="243.676" y="369.372" width="39.433" height="3.466"/><rect class="cls-5" x="245.386" y="372.838" width="2.116" height="24.691"/><rect class="cls-5" x="251.063" y="372.838" width="2.116" height="24.691"/><rect class="cls-5" x="256.528" y="372.838" width="2.116" height="24.691"/><rect class="cls-5" x="261.992" y="372.838" width="2.116" height="24.691"/><rect class="cls-5" x="267.457" y="372.838" width="2.116" height="24.691"/><rect class="cls-5" x="273.048" y="372.838" width="2.116" height="24.691"/><rect class="cls-5" x="278.513" y="372.838" width="2.116" height="24.691"/><rect class="cls-9" x="243.854" y="314.717" width="39.433" height="3.466"/><rect class="cls-9" x="243.854" y="286.561" width="39.433" height="3.466"/><rect class="cls-5" x="245.564" y="290.027" width="2.116" height="24.691"/><rect class="cls-5" x="251.241" y="290.027" width="2.116" height="24.691"/><rect class="cls-5" x="256.705" y="290.027" width="2.116" height="24.691"/><rect class="cls-5" x="262.17" y="290.027" width="2.116" height="24.691"/><rect class="cls-5" x="267.635" y="290.027" width="2.116" height="24.691"/><rect class="cls-5" x="273.226" y="290.027" width="2.116" height="24.691"/><rect class="cls-5" x="278.69" y="290.027" width="2.116" height="24.691"/><rect class="cls-9" x="243.764" y="231.906" width="39.433" height="3.466"/><rect class="cls-9" x="243.764" y="203.75" width="39.433" height="3.466"/><rect class="cls-5" x="245.474" y="207.216" width="2.116" height="24.691"/><rect class="cls-5" x="251.151" y="207.216" width="2.116" height="24.691"/><rect class="cls-5" x="256.616" y="207.216" width="2.116" height="24.691"/><rect class="cls-5" x="262.081" y="207.216" width="2.116" height="24.691"/><rect class="cls-5" x="267.545" y="207.216" width="2.116" height="24.691"/><rect class="cls-5" x="273.136" y="207.216" width="2.116" height="24.691"/><rect class="cls-5" x="278.601" y="207.216" width="2.116" height="24.691"/><rect class="cls-9" x="243.764" y="149.095" width="39.433" height="3.466"/><rect class="cls-9" x="243.764" y="120.939" width="39.433" height="3.466"/><rect class="cls-5" x="245.474" y="124.405" width="2.116" height="24.691"/><rect class="cls-5" x="251.151" y="124.405" width="2.116" height="24.691"/><rect class="cls-5" x="256.616" y="124.405" width="2.116" height="24.691"/><rect class="cls-5" x="262.081" y="124.405" width="2.116" height="24.691"/><rect class="cls-5" x="267.545" y="124.405" width="2.116" height="24.691"/><rect class="cls-5" x="273.136" y="124.405" width="2.116" height="24.691"/><rect class="cls-5" x="278.601" y="124.405" width="2.116" height="24.691"/><rect class="cls-6" x="251.241" y="152.561" width="208.196" height="6.477"/><rect class="cls-6" x="251.241" y="235.372" width="208.196" height="6.477"/><rect class="cls-6" x="251.241" y="318.183" width="208.196" height="6.477"/><rect class="cls-6" x="251.237" y="400.995" width="208.196" height="6.477"/><rect class="cls-6" x="251.241" y="62.282" width="208.196" height="6.34"/><path class="cls-16" d="M434.848,444.182H410.555l-24.21-36.71h24.023Z"/><path class="cls-16" d="M481.6,444.182H457.49q-11.968-18.356-23.939-36.71h24.024Z"/><path class="cls-16" d="M387.14,444.182H362.846l-24.21-36.71H362.66Z"/><rect class="cls-11" x="305.756" y="493.073" width="25.744" height="26.427"/><rect class="cls-6" x="284.149" y="493.073" width="38.955" height="8.824"/><rect class="cls-12" x="275.752" y="501.898" width="40.115" height="8.824"/><rect class="cls-6" x="268.515" y="510.676" width="39.309" height="8.824"/></symbol><symbol id="house_2" data-name="house 2" viewBox="0 0 341.649 273.378"><path class="cls-19" d="M7.839,138.306V264.581H333.744V138.306Zm69.266,81.776H36.349V160.3H77.105Zm56.432,0H92.781V160.3h40.756Zm60.931,26.869H147.116V179.419h47.352ZM248.8,220.082H208.047V160.3H248.8Zm56.432,0H264.479V160.3h40.756Z"/><rect class="cls-20" x="147.116" y="246.951" width="47.352" height="8.824"/><rect class="cls-21" x="147.116" y="255.776" width="47.352" height="8.824"/><rect class="cls-20" x="147.116" y="264.554" width="47.352" height="8.824"/><rect class="cls-14" y="23.449" width="341.649" height="114.857"/><polygon class="cls-22" points="84.943 8 123.495 74.774 162.047 141.547 84.943 141.547 7.839 141.547 46.391 74.774 84.943 8"/><rect class="cls-7" x="65.885" y="80.877" width="16.354" height="34.591"/><rect class="cls-7" x="87.646" y="80.877" width="16.354" height="34.591"/><polygon class="cls-22" points="256.641 8 295.192 74.774 333.744 141.547 256.641 141.547 179.537 141.547 218.089 74.774 256.641 8"/><rect class="cls-7" x="237.583" y="80.877" width="16.354" height="34.591"/><rect class="cls-7" x="259.344" y="80.877" width="16.354" height="34.591"/><rect class="cls-15" y="137.32" width="341.649" height="8.374"/></symbol><symbol id="rv_car-2" data-name="rv car" viewBox="0 0 252.709 129.433"><rect class="cls-3" x="52.259" width="61.316" height="14.46" rx="3.217"/><path class="cls-32" d="M216.653,11.285H37.246A14.359,14.359,0,0,0,22.887,25.644V97.412a14.359,14.359,0,0,0,14.359,14.359H216.653a14.359,14.359,0,0,0,14.36-14.359V25.644A14.359,14.359,0,0,0,216.653,11.285ZM165.4,102.921H118.051V35.389H165.4Z"/><path class="cls-32" d="M231.446,108.2l21.263-42.917L229.934,20.9Q220.669,64.548,211.4,108.2Z"/><rect class="cls-33" x="39.282" y="30.774" width="67.533" height="40.176" rx="2.976"/><rect class="cls-33" x="188.703" y="35.389" width="16.354" height="26.937" rx="1.596"/><rect class="cls-33" x="210.464" y="35.389" width="16.354" height="26.937" rx="1.595"/><rect class="cls-32" x="22.887" y="68.144" width="92.62" height="43.628"/><rect class="cls-9" x="22.887" y="76.646" width="95.164" height="2.036"/><rect class="cls-9" x="22.887" y="85.472" width="95.164" height="2.036"/><rect class="cls-9" x="165.403" y="76.646" width="47.582" height="2.036"/><rect class="cls-9" x="165.403" y="85.472" width="47.582" height="2.036"/><path class="cls-9" d="M74.3,120.406"/><rect class="cls-3" y="38.105" width="22.887" height="50.78" rx="4.595"/><rect class="cls-3" x="22.887" y="108.201" width="208.524" height="4.425"/><rect class="cls-34" x="121.676" y="112.626" width="15.353" height="2.005"/><rect class="cls-34" x="121.676" y="104.595" width="15.353" height="2.005"/><rect class="cls-34" x="121.676" y="120.752" width="15.353" height="2.005"/><polygon class="cls-34" points="121.676 128.334 121.676 98.923 123.681 98.923 123.681 128.334 121.676 128.334"/><polygon class="cls-34" points="135.025 128.334 135.025 98.923 137.03 98.923 137.03 128.334 135.025 128.334"/><circle class="cls-9" cx="190.297" cy="111.771" r="16.807"/><circle class="cls-3" cx="190.297" cy="111.771" r="11.467"/><circle class="cls-9" cx="82.951" cy="112.626" r="16.807"/><circle class="cls-3" cx="82.951" cy="112.626" r="11.467"/></symbol><symbol id="house_1" data-name="house 1" viewBox="0 0 309.394 278.839"><rect class="cls-20" x="13.176" y="139.709" width="67.168" height="125.604"/><rect class="cls-7" x="30.642" y="161.035" width="16.354" height="34.591"/><rect class="cls-7" x="52.403" y="161.035" width="16.354" height="34.591"/><polygon class="cls-25" points="56.638 72.541 84.957 108.14 113.275 143.739 56.638 143.739 0 143.739 28.319 108.14 56.638 72.541"/><path class="cls-19" d="M63.339,143.739V270.015H301.555V143.739Zm100.78,108.673H116.767V184.879h47.352Zm59.546-26.9H182.909V165.737h40.756Zm56.432,0H239.341V165.737H280.1Z"/><rect class="cls-26" x="138.375" y="252.412" width="25.744" height="26.427"/><rect class="cls-2" x="55.5" y="28.882" width="253.894" height="114.857"/><polygon class="cls-27" points="140.443 13.434 178.995 80.207 217.547 146.981 140.443 146.981 63.339 146.981 101.891 80.207 140.443 13.434"/><rect class="cls-25" x="55.5" y="142.753" width="253.894" height="8.374"/><rect class="cls-25" x="247.845" y="6.717" width="26.867" height="65.824"/><rect class="cls-2" x="245.158" width="32.241" height="6.717"/><rect class="cls-7" x="121.385" y="86.311" width="16.354" height="34.591"/><rect class="cls-7" x="143.146" y="86.311" width="16.354" height="34.591"/><rect class="cls-20" x="116.767" y="252.412" width="38.955" height="8.824"/><rect class="cls-21" x="108.37" y="261.236" width="40.115" height="8.824"/><rect class="cls-20" x="101.133" y="270.015" width="39.309" height="8.824"/></symbol><symbol id="pond-2" data-name="pond" viewBox="0 0 213.516 173.153"><path class="cls-28" d="M13.577,129.244c3.6,5.311,7.157,8.618,11.3,12.462A99.019,99.019,0,0,0,43.3,155.284a104.633,104.633,0,0,0,19.785,8.434A109.22,109.22,0,0,0,83.5,168.03h0c20.211,1.649,22.481,1.659,26.2,1.611a88.4,88.4,0,0,0,16.22-1.652l.288-.057a104.235,104.235,0,0,0,24.178-8.076,117.58,117.58,0,0,0,34.01-25.051,97.231,97.231,0,0,0,13.764-18.257A86.2,86.2,0,0,0,205,101.107a83.533,83.533,0,0,0,4.259-25.269,69.728,69.728,0,0,0-7.429-32.908,68.879,68.879,0,0,0-13.835-18.295,72.059,72.059,0,0,0-20.2-13.343A82.088,82.088,0,0,0,143.824,4.3a72.579,72.579,0,0,0-29.581,1.677A65.027,65.027,0,0,0,90.7,17.555C75.251,29.74,78.316,39.67,65.274,45.571c-5.584,2.527-6.2.733-21.777,5.361-8.424,2.5-12.636,3.756-16.458,5.888A46.292,46.292,0,0,0,7.125,78.4c-4.847,11.086-3.675,21-2.967,26.4A58.179,58.179,0,0,0,13.577,129.244Z"/><path class="cls-29" d="M134.26,77.346a5.282,5.282,0,0,1,1.875,4.139c-.022,1.875-1.247,3.065-2.1,4.376-2.985,4.571-5.733,9.9-4.584,15.212a8.561,8.561,0,0,0,1.282,3.083,9.7,9.7,0,0,0,2.145,2.144c4.678,3.549,10.981,4.307,16.877,3.888a35.991,35.991,0,0,0,16.2-4.762,22.5,22.5,0,0,0,10.228-12.935c.088-.327.109-.776-.212-.9a.642.642,0,0,0-.34-.008c-1.5.272-2.38,1.828-3.716,2.56a5.529,5.529,0,0,1-4.586-.023c-1.47-.57-2.787-1.467-4.232-2.094-3.284-1.426-7.028-1.383-10.593-.967a55.07,55.07,0,0,0-9.558,1.987,5.015,5.015,0,0,1-1.988.328c-1.633-.188-2.6-2.026-2.506-3.639a14.926,14.926,0,0,1,1.539-4.577,17.689,17.689,0,0,0,.538-11.746,8.09,8.09,0,0,0-2.779-4.656,6.809,6.809,0,0,0-6.329-.883c-.229.087-3.8,1.5-3.92,4.408a4.392,4.392,0,0,0,1.6,3.464C130.865,77.187,132.453,75.964,134.26,77.346Z"/><path class="cls-29" d="M133.465,78.142a4.2,4.2,0,0,1,1.545,3.343c-.051,1.5-1.161,2.631-1.95,3.809a32.238,32.238,0,0,0-4.3,8.642,13.877,13.877,0,0,0,.2,9.31c1.2,2.8,3.878,4.713,6.578,5.949,5.53,2.533,11.857,2.579,17.777,1.729a32.55,32.55,0,0,0,17-7.335,23.524,23.524,0,0,0,5.292-6.643c.722-1.375,3.214-5.837.5-6.458-1.127-.257-2.277.611-3.073,1.291-1.371,1.171-2.372,2.01-4.277,1.609a18.9,18.9,0,0,1-4.328-1.966,15.936,15.936,0,0,0-4.742-1.5,31.343,31.343,0,0,0-9.341.3q-2.532.384-5.021,1c-.753.186-1.5.39-2.246.607-.877.256-1.931.766-2.735.082-1.045-.889-.838-2.439-.469-3.585.546-1.7,1.434-3.241,1.892-4.974a18.959,18.959,0,0,0-.042-9.812c-.825-3.006-2.257-5.647-5.353-6.75a7.916,7.916,0,0,0-6.747.721c-2.036,1.231-3.618,3.289-3.183,5.784a5.488,5.488,0,0,0,2.455,3.692c1.509.911,3.342.358,4.788,1.33,1.2.81,2.332-1.138,1.135-1.943-1.22-.821-2.344-.777-3.738-.981a3,3,0,0,1-2.469-3.111c.1-1.6,1.939-2.851,3-3.284a5.565,5.565,0,0,1,6.927,2.364A15.71,15.71,0,0,1,140.092,80a16.624,16.624,0,0,1-1.109,4.659A21.028,21.028,0,0,0,137.406,89c-.34,2.158.627,4.786,2.931,5.4,1.355.361,2.735-.235,4.02-.594q2.465-.689,4.987-1.147a32.619,32.619,0,0,1,9.414-.607,14.092,14.092,0,0,1,4.926,1.506,19.058,19.058,0,0,0,4.483,2,6.136,6.136,0,0,0,4.311-.441c1.051-.581,2.225-2.431,3.488-2.4l-.8-.329-.077-.2q-.1.368-.214.732t-.244.721a17.048,17.048,0,0,1-.788,1.827,20.634,20.634,0,0,1-2.016,3.236,23.124,23.124,0,0,1-5.472,5.121,33.754,33.754,0,0,1-16.172,5.2c-5.227.422-10.864.014-15.431-2.8a8.451,8.451,0,0,1-4.435-7.093,17.071,17.071,0,0,1,2.178-8.449,41.549,41.549,0,0,1,2.5-4.257,14.838,14.838,0,0,0,1.94-3.187,6.291,6.291,0,0,0-1.887-6.691C133.953,75.626,132.354,77.21,133.465,78.142Z"/><path class="cls-30" d="M156.021,78.594"/><path class="cls-30" d="M153.779,69.73"/><path class="cls-30" d="M213.516,144.32"/><path class="cls-5" d="M143.34,92.509a5.24,5.24,0,0,0-5.567,3.157c-.979,2.379.03,4.872,1.717,6.64a12.574,12.574,0,0,0,7.092,3.552c.829.127,2.025.406,2.6-.418.6-.861.055-2.243-.4-3.022l-1.026,1.026a16.608,16.608,0,0,0,6.678,1.995c1.945.137,2.754-1.09,2.091-2.9l-1.1.847c1.941,1.36,4.585,2.367,6.972,1.775,2.762-.686.733-3.15-.589-4.329-.718-.641-1.783.417-1.061,1.061.253.225,1.617,1.437,1.462,1.721-.186.337-1.474.215-1.832.177a9.075,9.075,0,0,1-4.194-1.7.757.757,0,0,0-1.1.847c.595,1.629-1.966.861-2.844.651a15.484,15.484,0,0,1-3.722-1.437.756.756,0,0,0-1.027,1.026c.117.2.667,1.21.43,1.424.091-.082-1.353-.254-1.135-.219a12.021,12.021,0,0,1-2.237-.595,10.469,10.469,0,0,1-4.252-2.83,4.656,4.656,0,0,1-1.2-4.545,3.807,3.807,0,0,1,4.255-2.4c.954.125.945-1.376,0-1.5Z"/><path class="cls-14" d="M163.512,103.945a2.088,2.088,0,0,0-2.66.93,1.962,1.962,0,0,0,.708,1.959c.438.351.806.28,1.131.746a1.518,1.518,0,0,1,.27.991,5.331,5.331,0,0,1-.432,1,3.367,3.367,0,0,0,0,2.96c.731,1.363,2.439,1.881,3.985,1.924a7.8,7.8,0,0,0,4.582-1.2,5.138,5.138,0,0,0,2.332-4c-.7-.392-1.427.856-2.2.642a1.445,1.445,0,0,1-.494-.31,5.31,5.31,0,0,0-6.353-.08,9.911,9.911,0,0,1,.074-2.122c.157-1.086.405-1.476.208-2.124A2.189,2.189,0,0,0,163.512,103.945Z"/><path class="cls-14" d="M163.711,103.221c-1.667-.612-3.975.477-3.63,2.478a2.917,2.917,0,0,0,1.708,2.112.63.63,0,0,1,.337.877,7.843,7.843,0,0,0-.619,1.658,3.953,3.953,0,0,0,2.749,4.456,8.583,8.583,0,0,0,6.029-.27,6.139,6.139,0,0,0,3.892-5.281.728.728,0,0,0-.372-.648,1.532,1.532,0,0,0-1.167-.089c-.382.126-.664.432-1.03.573s-.591-.249-.933-.464a5.851,5.851,0,0,0-1.229-.573,6.068,6.068,0,0,0-5.442.805l1.128.648a9.623,9.623,0,0,1,.082-2.145,8.6,8.6,0,0,0,.271-1.711,2.838,2.838,0,0,0-1.6-2.35c-.866-.414-1.628.879-.757,1.3a1.28,1.28,0,0,1,.81,1.5,14.042,14.042,0,0,0-.311,3.409c.03.511.636,1.009,1.129.648a4.638,4.638,0,0,1,4.613-.527c.712.319,1.284,1.069,2.11,1.04a2.157,2.157,0,0,0,1-.355c.124-.074.242-.159.367-.234.152-.091.367-.1.192-.176l-.371-.648a4.836,4.836,0,0,1-3.868,4.206c-1.608.421-4.082.509-5.308-.849a2.55,2.55,0,0,1-.229-2.859,2.349,2.349,0,0,0,.067-2.548c-.478-.736-1.717-.795-1.8-1.809-.071-.881,1.2-.935,1.772-.724C164.22,105,164.611,103.552,163.711,103.221Z"/><path class="cls-10" d="M39.953,86.243c2.324-2.5,5.914-5.463,9.4-3.3,1.237.766,2.23,1.869,3.48,2.62a6.737,6.737,0,0,0,4.538.906A7.89,7.89,0,0,0,61.3,84.4c.954-.829,1.854-1.937,3.1-2.324,2.807-.869,4.738,2.526,6.946,3.613,4.34,2.137,8.764-.534,11.86-3.562,1.382-1.353-.74-3.473-2.121-2.122-2.533,2.477-6.187,4.881-9.482,2.3a21.526,21.526,0,0,0-3.449-2.679,6.28,6.28,0,0,0-4.551-.444,9.6,9.6,0,0,0-3.627,2.368,6.022,6.022,0,0,1-3.314,1.993,4.926,4.926,0,0,1-3.573-1.5A13.13,13.13,0,0,0,49.327,79.6C44.92,78,40.69,81.042,37.832,84.122c-1.312,1.414.8,3.54,2.121,2.121Z"/><path class="cls-10" d="M39.953,95.771c2.324-2.5,5.914-5.464,9.4-3.306,1.237.766,2.23,1.869,3.48,2.621a6.742,6.742,0,0,0,4.538.905,7.9,7.9,0,0,0,3.93-2.06c.954-.83,1.854-1.938,3.1-2.325,2.807-.869,4.738,2.526,6.946,3.613,4.34,2.138,8.764-.534,11.86-3.562,1.382-1.352-.74-3.473-2.121-2.121-2.533,2.477-6.187,4.88-9.482,2.3a21.52,21.52,0,0,0-3.449-2.678,6.27,6.27,0,0,0-4.551-.444,9.582,9.582,0,0,0-3.627,2.367,6.016,6.016,0,0,1-3.314,1.993,4.922,4.922,0,0,1-3.573-1.5,13.105,13.105,0,0,0-3.765-2.442c-4.407-1.605-8.637,1.438-11.495,4.518-1.312,1.414.8,3.54,2.121,2.122Z"/><path class="cls-10" d="M110.53,42.7c2.324-2.5,5.914-5.463,9.4-3.3,1.238.766,2.23,1.869,3.48,2.62a6.737,6.737,0,0,0,4.538.906,7.886,7.886,0,0,0,3.93-2.061c.954-.829,1.854-1.937,3.1-2.324,2.806-.869,4.737,2.526,6.945,3.613,4.341,2.137,8.764-.534,11.86-3.562,1.382-1.353-.74-3.473-2.121-2.122-2.533,2.477-6.187,4.881-9.482,2.3a21.526,21.526,0,0,0-3.449-2.679,6.28,6.28,0,0,0-4.551-.444,9.6,9.6,0,0,0-3.627,2.368,6.022,6.022,0,0,1-3.314,1.993,4.926,4.926,0,0,1-3.573-1.5,13.116,13.116,0,0,0-3.765-2.443c-4.407-1.6-8.637,1.439-11.495,4.519-1.312,1.414.8,3.54,2.121,2.121Z"/><path class="cls-10" d="M110.53,52.232c2.324-2.505,5.914-5.464,9.4-3.306,1.238.766,2.23,1.869,3.48,2.621a6.737,6.737,0,0,0,4.538.905,7.884,7.884,0,0,0,3.93-2.06c.954-.83,1.854-1.938,3.1-2.325,2.806-.869,4.737,2.526,6.945,3.613,4.341,2.138,8.764-.534,11.86-3.562,1.382-1.352-.74-3.473-2.121-2.121-2.533,2.477-6.187,4.88-9.482,2.3a21.52,21.52,0,0,0-3.449-2.678,6.275,6.275,0,0,0-4.551-.444,9.59,9.59,0,0,0-3.627,2.367,6.016,6.016,0,0,1-3.314,1.993,4.922,4.922,0,0,1-3.573-1.5,13.092,13.092,0,0,0-3.765-2.442c-4.407-1.6-8.637,1.438-11.495,4.518-1.312,1.414.8,3.541,2.121,2.122Z"/><path class="cls-10" d="M81.125,128.546c2.324-2.5,5.913-5.463,9.4-3.3,1.238.766,2.23,1.869,3.48,2.62a6.738,6.738,0,0,0,4.538.906,7.892,7.892,0,0,0,3.93-2.06c.954-.83,1.854-1.938,3.1-2.325,2.806-.869,4.737,2.526,6.945,3.613,4.341,2.138,8.765-.534,11.86-3.562,1.383-1.353-.739-3.473-2.121-2.122-2.532,2.478-6.187,4.881-9.482,2.3a21.513,21.513,0,0,0-3.448-2.678,6.278,6.278,0,0,0-4.552-.445,9.593,9.593,0,0,0-3.626,2.368,6.019,6.019,0,0,1-3.315,1.993,4.92,4.92,0,0,1-3.572-1.5,13.119,13.119,0,0,0-3.765-2.442c-4.408-1.6-8.638,1.438-11.5,4.518-1.312,1.414.805,3.54,2.122,2.121Z"/><path class="cls-10" d="M81.125,138.074c2.324-2.505,5.913-5.464,9.4-3.306,1.238.766,2.23,1.869,3.48,2.621a6.738,6.738,0,0,0,4.538.905,7.884,7.884,0,0,0,3.93-2.06c.954-.83,1.854-1.938,3.1-2.324,2.806-.87,4.737,2.525,6.945,3.613,4.341,2.137,8.765-.535,11.86-3.563,1.383-1.352-.739-3.473-2.121-2.121-2.532,2.477-6.187,4.881-9.482,2.3a21.519,21.519,0,0,0-3.448-2.679,6.277,6.277,0,0,0-4.552-.444,9.578,9.578,0,0,0-3.626,2.367,6.019,6.019,0,0,1-3.315,1.993,4.92,4.92,0,0,1-3.572-1.5,13.119,13.119,0,0,0-3.765-2.442c-4.408-1.6-8.638,1.438-11.5,4.518-1.312,1.414.805,3.541,2.122,2.122Z"/><path class="cls-15" d="M126.43,72.171a1.578,1.578,0,0,0,1.3.614c.539-.016,1.072-.3,1.589-.146a1.756,1.756,0,0,1,.885.784l1.02,1.468a1.135,1.135,0,0,1,.189.354c.1.406-.3.76-.7.965a11.841,11.841,0,0,1-2.085.707c-2.024.591-3.9,1.49-5.862,2.221a2.375,2.375,0,0,1-1.027.209c-.357-.032-.723-.267-.745-.581s.3-.564.593-.753c1.511-.979,3.085-2.064,3.686-3.634.3-.779.367-1.689,1.043-2.251"/><path class="cls-15" d="M126.165,72.436a1.976,1.976,0,0,0,1.746.709c.411-.039.9-.269,1.309-.145s.66.61.888.939c.263.378.552.749.793,1.141.117.19.2.311.038.512a1.608,1.608,0,0,1-.579.373,23.836,23.836,0,0,1-2.585.825c-1.737.575-3.392,1.361-5.11,1.986-.208.076-1.533.464-1.177-.224.14-.269.724-.5.975-.669a13.564,13.564,0,0,0,1.749-1.363,5.632,5.632,0,0,0,1.364-1.9c.313-.757.367-1.648,1-2.227.358-.325-.174-.854-.53-.53a4.986,4.986,0,0,0-1.09,2.277,5.245,5.245,0,0,1-1.637,2.171,13.519,13.519,0,0,1-1.17.878,8.232,8.232,0,0,0-1.2.833.941.941,0,0,0,.381,1.612c.951.349,2.123-.358,2.984-.707,1.027-.417,2.049-.849,3.094-1.222s2.143-.582,3.156-1.019c.653-.282,1.47-.84,1.156-1.664a7.667,7.667,0,0,0-.973-1.462,3.659,3.659,0,0,0-.969-1.118c-1.013-.623-2.25.512-3.092-.536-.3-.377-.829.157-.53.53Z"/><path class="cls-15" d="M160.429,105.093a15.337,15.337,0,0,0-2.451.6,5.974,5.974,0,0,0,2.5.7.2.2,0,0,0,.137-.039.184.184,0,0,0,.04-.115,2.983,2.983,0,0,0-.089-1.091"/><path class="cls-15" d="M160.33,104.731a15.646,15.646,0,0,0-2.452.6.38.38,0,0,0-.269.312.371.371,0,0,0,.179.374,7.854,7.854,0,0,0,2.229.723,2.364,2.364,0,0,0,.551.014.526.526,0,0,0,.465-.52,3.325,3.325,0,0,0-.1-1.191.375.375,0,1,0-.723.2,2.663,2.663,0,0,1,.085.493c0,.083.007.167,0,.25,0,.05,0,.1-.006.149s-.02.058,0,.024l.135-.134.052-.012h-.074c-.057,0-.114,0-.171,0-.083,0-.164-.011-.24-.022a4.457,4.457,0,0,1-.646-.152,10.717,10.717,0,0,1-1.183-.466l-.09.685a15.673,15.673,0,0,1,2.452-.6.378.378,0,0,0,.262-.461.384.384,0,0,0-.461-.262Z"/><path class="cls-31" d="M133.772,72.915a1.126,1.126,0,0,0,0-2.25,1.126,1.126,0,0,0,0,2.25Z"/><path class="cls-31" d="M162.365,105.628a.375.375,0,0,0,0-.75.375.375,0,0,0,0,.75Z"/><path class="cls-15" d="M164.768,109.216a4.982,4.982,0,0,0,.959,1.688,3.2,3.2,0,0,0,1.661.85,6.728,6.728,0,0,0,2.216-.011,1.4,1.4,0,0,0,.82-.326.832.832,0,0,0,.225-.873c-.171-.446-.9-.253-.723.2.117.308-.947.323-1.106.334a4.414,4.414,0,0,1-1.549-.123,2.314,2.314,0,0,1-1.1-.672,4.3,4.3,0,0,1-.681-1.266.388.388,0,0,0-.461-.262.377.377,0,0,0-.262.462Z"/></symbol><symbol id="New_Symbol" data-name="New Symbol" viewBox="0 0 154.579 59.782"><rect class="submission-viewbox" width="40.826" height="59.781"/><rect class="submission-viewbox" x="56.877" y="0.001" width="40.826" height="59.781"/><rect class="submission-viewbox" x="113.754" y="0.001" width="40.826" height="59.781"/></symbol><symbol id="door" data-name="door" viewBox="0 0 47.352 67.551"><rect class="submission-viewbox" width="47.352" height="67.551"/></symbol><symbol id="New_Symbol_3" data-name="New Symbol 3" viewBox="0 0 159.9 317.52"><use width="154.579" height="59.782" transform="translate(5.321)" xlink:href="#New_Symbol"/><use width="154.579" height="59.782" transform="translate(5.321 82.811)" xlink:href="#New_Symbol"/><use width="154.579" height="59.782" transform="translate(5.321 165.622)" xlink:href="#New_Symbol"/><use width="47.352" height="67.551" transform="translate(0 249.97)" xlink:href="#door"/></symbol><symbol id="New_Symbol_1" data-name="New Symbol 1" viewBox="0 0 159.897 400.332"><use width="154.579" height="59.782" transform="translate(5.318)" xlink:href="#New_Symbol"/><use width="154.579" height="59.782" transform="translate(5.318 82.812)" xlink:href="#New_Symbol"/><use width="154.579" height="59.782" transform="translate(5.318 165.623)" xlink:href="#New_Symbol"/><use width="154.579" height="59.782" transform="translate(5.318 248.434)" xlink:href="#New_Symbol"/><use width="47.352" height="67.551" transform="translate(0 332.782)" xlink:href="#door"/></symbol><symbol id="houses_all" data-name="houses all" viewBox="0 0 407.377 67.572"><use width="47.352" height="67.551" transform="translate(0 0.021)" xlink:href="#door"/><use width="47.352" height="67.551" transform="translate(180.151 0.021)" xlink:href="#door"/><use width="47.352" height="67.551" transform="translate(360.025)" xlink:href="#door"/></symbol><symbol id="double_house_window" data-name="double house window" viewBox="0 0 268.906 86.609"><use width="47.352" height="67.551" transform="translate(110.784 19.058)" xlink:href="#door"/><rect class="submission-viewbox" width="40.826" height="59.781"/><rect class="submission-viewbox" x="56.369" width="40.826" height="59.781"/><rect class="submission-viewbox" x="171.711" width="40.826" height="59.781"/><rect class="submission-viewbox" x="228.081" width="40.826" height="59.781"/></symbol><symbol id="double_window_house-2" data-name="double window house" viewBox="0 0 163.282 86.612"><use width="47.352" height="67.551" transform="translate(0 19.061)" xlink:href="#door"/><rect class="submission-viewbox" x="66.088" width="40.826" height="59.781"/><rect class="submission-viewbox" x="122.457" width="40.826" height="59.781"/></symbol><symbol id="New_Symbol_2" data-name="New Symbol 2" viewBox="0 0 409.308 67.619"><use width="47.352" height="67.551" transform="translate(0 0.068)" xlink:href="#door"/><use width="47.352" height="67.551" transform="translate(180.891)" xlink:href="#door"/><use width="47.352" height="67.551" transform="translate(361.956 0.045)" xlink:href="#door"/></symbol></defs><g id="road"><path class="cls-9" d="M750.365-58.2C630.644-63.925,510.078-26.465,415.031,46.624,332.625,109.993,257.3,219.924,287.947,328.9,317.381,433.55,424.6,463.668,519.3,480.317c48.488,8.524,99.321,15.051,144.537,35.615,47.9,21.786,90.757,56.089,118.419,101.241,27.194,44.388,38.606,98.86,28.408,150.261-11.269,56.8-45.84,99.26-93.551,130.635-49.535,32.574-104.677,56.43-157.3,83.473-52.733,27.1-104.791,56.044-152.107,91.97-90.621,68.807-158.588,162.331-170.665,277.965-11.573,110.816,47.486,206.452,144.238,257.562,93.071,49.166,201.595,58.544,293.107,110.452,40.968,23.238,81.154,54.516,101.943,97.932,20.035,41.839,13.855,88.427-11.76,126.268-27.152,40.112-72.8,67.9-116.806,85.982-59.178,24.31-122.473,39.729-182.841,61C364.89,2125.928,253.3,2163.522,202.1,2264.85c-41.57,82.266-28.976,178.008,25.939,250.934,70.739,93.939,188.927,142.071,297.88,175.854,104.754,32.481,232.172,65.567,293.949,165.607,26.487,42.892,37.9,96.671,13.634,143.255-24.327,46.706-70.373,77.074-114.253,103.509-45.541,27.436-93.9,46.76-143.282,66.1-49.246,19.287-101.671,37.677-144.39,69.664-41.385,30.99-76.344,76.874-83.847,128.964-7.651,53.118,6.176,110.6,35.089,155.7,56.691,88.433,173.434,110.237,261.8,153.853,42.883,21.166,79.1,53.211,73.242,105.222-5.627,49.964-42.2,90.4-84.972,113.207-51.459,27.435-111.782,34.888-168.847,41.978-16.076,2-30,12.359-30,30,0,14.661,13.81,32.011,30,30,111.1-13.8,242.589-35.667,295.514-148.957,22.145-47.4,26.845-102.87.39-149.707-27.137-48.045-78.332-71.808-127.027-92.135-49.337-20.6-101.283-39.358-147.286-66.883-41.013-24.539-66.012-62.15-76.308-108.745-11.322-51.243,4.548-94.939,41.87-131.019,36.314-35.105,88.712-52.868,134.832-70.979,96.6-37.932,206.209-79.167,273.965-162.3,35.94-44.1,52.8-97.023,44.454-153.714-8.011-54.412-38.256-105.015-77.518-142.852-88.529-85.316-208.157-110.466-320.176-149.115-97.079-33.495-213.287-84.607-256.168-185.7-32.6-76.851-3.792-159.977,60.269-210.368,45.816-36.039,105.052-54.473,159.186-73.843,62.224-22.264,126.752-38.932,188.347-62.748,93.478-36.143,190.577-109.683,190.127-219.774-.435-106.254-93.317-181.715-182.377-221.64-94.686-42.446-204.645-51.714-290.683-113.026-87.64-62.455-96.876-174.743-54.91-267.614,48.1-106.44,149.223-170.942,248.952-223.517,99.258-52.326,229.415-94.995,280.162-204.327,48.854-105.254,20.377-229.565-60.989-310.081-39.224-38.815-88.292-67.224-140.921-83.494-47.237-14.6-96.713-20.09-145.062-29.726-41.782-8.327-88.118-18.7-120.937-47.755-36.326-32.163-47.134-78.986-35.759-125.308C372.728,134.481,478.864,59.55,579.824,25.464A461.045,461.045,0,0,1,750.365,1.8c38.6,1.846,38.5-58.158,0-60Z" transform="translate(-66.143 262.274)"/></g><g id="road_lines" data-name="road lines"><path class="cls-35" d="M718.767-28.714l-11.288.227-2.822.057c-.94.023-1.877.119-2.816.175l-5.631.391" transform="translate(-66.143 262.274)"/><path class="cls-35" d="M661.761-24.514c-3.749.36-7.442,1.112-11.158,1.7l-11.134,1.868" transform="translate(-66.143 262.274)"/><polyline class="cls-35" points="539.543 248.845 528.637 251.763 525.911 252.493 524.548 252.858 523.204 253.287 517.826 255.002"/><path class="cls-35" d="M551.271,4.08c-1.754.679-3.548,1.259-5.27,2.019l-5.192,2.215-10.384,4.431" transform="translate(-66.143 262.274)"/><path class="cls-35" d="M499.308,27.892l-9.916,5.4c-1.648.908-3.316,1.781-4.947,2.718l-4.822,2.934" transform="translate(-66.143 262.274)"/><polyline class="cls-35" points="384.368 319.936 379.701 323.11 375.189 326.502 366.164 333.286"/><path class="cls-35" d="M405.673,93.112c-5.6,5.031-10.924,10.357-16.158,15.763" transform="translate(-66.143 262.274)"/><path class="cls-35" d="M367.042,135.189c-1.138,1.5-2.3,2.977-3.419,4.491l-3.3,4.584c-2.239,3.025-4.279,6.19-6.393,9.3" transform="translate(-66.143 262.274)"/><path class="cls-35" d="M336.567,183.492l-2.509,5.056c-.835,1.686-1.569,3.42-2.359,5.128-.765,1.719-1.577,3.417-2.3,5.152l-2.139,5.224" transform="translate(-66.143 262.274)"/><path class="cls-35" d="M316.7,236.988l-1.264,5.5c-.391,1.84-.69,3.7-1.04,5.548-.749,3.69-1.192,7.429-1.692,11.159" transform="translate(-66.143 262.274)"/><path class="cls-35" d="M312.037,293.743c.2,3.763.869,7.473,1.352,11.2.108.935.294,1.857.487,2.778l.558,2.767.559,2.766c.181.924.362,1.847.628,2.751" transform="translate(-66.143 262.274)"/><path class="cls-35" d="M327.828,348.314c.868,1.668,1.861,3.27,2.786,4.908l1.41,2.444.706,1.223c.247.4.52.784.778,1.176l3.145,4.688c1.048,1.563,2.065,3.148,3.262,4.6" transform="translate(-66.143 262.274)"/><path class="cls-35" d="M363.6,392.49l2.138,1.843c.705.624,1.486,1.153,2.225,1.735l4.5,3.415c1.47,1.177,3.062,2.185,4.619,3.24l4.686,3.148" transform="translate(-66.143 262.274)"/><path class="cls-35" d="M412.458,421.8l5.2,2.188c1.749.693,3.519,1.334,5.277,2s3.515,1.345,5.29,1.97l5.347,1.807" transform="translate(-66.143 262.274)"/><path class="cls-35" d="M466.859,439.26c3.654.9,7.331,1.7,11,2.56l11.039,2.365" transform="translate(-66.143 262.274)"/><line class="cls-35" x1="456.768" y1="712.891" x2="479.011" y2="716.773"/><path class="cls-35" d="M579.223,460.652c7.391,1.42,14.77,2.906,22.119,4.53" transform="translate(-66.143 262.274)"/><path class="cls-35" d="M634.9,473.67c1.8.536,3.619,1.033,5.412,1.6l5.355,1.786,5.355,1.786c1.785.594,3.578,1.168,5.319,1.884" transform="translate(-66.143 262.274)"/><path class="cls-35" d="M688.091,494.48l5.04,2.542c1.676.855,3.378,1.66,5,2.623l9.822,5.567" transform="translate(-66.143 262.274)"/><path class="cls-35" d="M736.735,524.411l8.89,6.959c.734.588,1.5,1.143,2.208,1.757l2.131,1.851,4.261,3.7" transform="translate(-66.143 262.274)"/><path class="cls-35" d="M778.88,562.95c.633.7,1.3,1.361,1.906,2.081L782.6,567.2l3.617,4.333,3.617,4.334c1.185,1.461,2.263,3.006,3.4,4.5" transform="translate(-66.143 262.274)"/><path class="cls-35" d="M812.29,609.233l2.818,4.89c.9,1.651,1.7,3.359,2.549,5.036,1.659,3.377,3.4,6.715,4.991,10.125" transform="translate(-66.143 262.274)"/><path class="cls-35" d="M834.59,661.746c2.071,7.234,3.858,14.555,5.216,21.958" transform="translate(-66.143 262.274)"/><path class="cls-35" d="M843.841,718.059c.334,7.521.3,15.052,0,22.572" transform="translate(-66.143 262.274)"/><path class="cls-35" d="M839.671,774.969c-.666,3.7-1.587,7.356-2.419,11.026-.978,3.633-1.879,7.289-3.024,10.875" transform="translate(-66.143 262.274)"/><path class="cls-35" d="M821.614,829.07a223.2,223.2,0,0,1-11.046,19.68" transform="translate(-66.143 262.274)"/><path class="cls-35" d="M789.493,876.166c-.627.7-1.232,1.423-1.877,2.107l-1.963,2.027-3.928,4.055c-1.285,1.376-2.669,2.651-4.038,3.943l-4.1,3.876" transform="translate(-66.143 262.274)"/><polyline class="cls-35" points="680.596 1176.28 671.352 1182.76 661.925 1188.973"/><path class="cls-35" d="M698.306,944.376q-9.873,5.475-19.88,10.7" transform="translate(-66.143 262.274)"/><line class="cls-35" x1="581.448" y1="1233.096" x2="561.272" y2="1243.231"/><line class="cls-35" x1="530.335" y1="1258.774" x2="510.211" y2="1269.012"/><polyline class="cls-35" points="479.542 1285.076 469.589 1290.403 459.708 1295.865"/><line class="cls-35" x1="429.643" y1="1313.028" x2="410.36" y2="1324.775"/><polyline class="cls-35" points="381.475 1343.855 372.187 1350.273 363.117 1356.996"/><line class="cls-35" x1="335.863" y1="1378.336" x2="318.865" y2="1393.198"/><polyline class="cls-35" points="294.272 1417.553 286.52 1425.76 279.118 1434.284"/><path class="cls-35" d="M324.384,1199.613l-6.2,9.434c-2,3.187-3.931,6.418-5.9,9.625" transform="translate(-66.143 262.274)"/><path class="cls-35" d="M296.125,1249.275c-1.628,3.393-3.067,6.873-4.61,10.3-.783,1.712-1.477,3.461-2.173,5.209l-2.1,5.239" transform="translate(-66.143 262.274)"/><path class="cls-35" d="M276.33,1302.866l-.771,2.715c-.245.909-.454,1.826-.682,2.739l-1.344,5.482c-.96,3.641-1.616,7.35-2.4,11.03" transform="translate(-66.143 262.274)"/><path class="cls-35" d="M266.391,1359.1c-.393,3.745-.434,7.512-.629,11.27-.238,3.758-.117,7.524-.149,11.286" transform="translate(-66.143 262.274)"/><path class="cls-35" d="M268.327,1416.141c.138.93.238,1.867.408,2.792l.524,2.773,1.048,5.547c.312,1.857.768,3.683,1.216,5.511l1.326,5.486" transform="translate(-66.143 262.274)"/><path class="cls-35" d="M284.209,1470.911c1.547,3.429,3.26,6.783,4.881,10.179,1.739,3.335,3.636,6.588,5.447,9.887" transform="translate(-66.143 262.274)"/><path class="cls-35" d="M314.5,1519.215l3.7,4.262c1.238,1.417,2.443,2.864,3.769,4.2l3.895,4.086,1.951,2.04,2.037,1.953" transform="translate(-66.143 262.274)"/><path class="cls-35" d="M356.25,1558.109c6.036,4.5,12.309,8.666,18.674,12.679" transform="translate(-66.143 262.274)"/><path class="cls-35" d="M405.17,1587.605c6.753,3.325,13.573,6.512,20.477,9.509" transform="translate(-66.143 262.274)"/><path class="cls-35" d="M457.792,1609.955l5.3,1.948,5.325,1.874q5.317,1.9,10.674,3.676" transform="translate(-66.143 262.274)"/><path class="cls-35" d="M512.053,1628.033q10.789,3.323,21.614,6.533" transform="translate(-66.143 262.274)"/><path class="cls-35" d="M566.855,1644.422q10.818,3.234,21.606,6.557" transform="translate(-66.143 262.274)"/><path class="cls-35" d="M621.277,1662q10.58,3.94,20.976,8.348" transform="translate(-66.143 262.274)"/><path class="cls-35" d="M673.6,1685.014l5.015,2.591c1.671.864,3.3,1.8,4.959,2.695l4.948,2.717c1.646.912,3.256,1.887,4.886,2.827" transform="translate(-66.143 262.274)"/><path class="cls-35" d="M722.54,1714.532c1.53,1.094,3.09,2.149,4.6,3.276l4.507,3.4c1.491,1.147,3.028,2.235,4.481,3.431l4.39,3.548" transform="translate(-66.143 262.274)"/><path class="cls-35" d="M765.991,1751.6c2.608,2.712,5.079,5.553,7.625,8.324q3.636,4.315,7.2,8.692" transform="translate(-66.143 262.274)"/><path class="cls-35" d="M799.75,1797.54c.874,1.666,1.777,3.318,2.628,5l2.348,5.134c1.655,3.384,2.925,6.931,4.289,10.437" transform="translate(-66.143 262.274)"/><path class="cls-35" d="M817.276,1851.642l.589,5.614c.093.936.211,1.87.282,2.808l.1,2.821c.12,3.76.369,7.521.134,11.282" transform="translate(-66.143 262.274)"/><path class="cls-35" d="M813.656,1908.378l-1.512,5.439c-.232.912-.534,1.8-.843,2.692l-.908,2.673c-1.128,3.593-2.6,7.059-4,10.552" transform="translate(-66.143 262.274)"/><path class="cls-35" d="M789.689,1959.991a200.873,200.873,0,0,1-13.864,17.8" transform="translate(-66.143 262.274)"/><path class="cls-35" d="M751.24,2002.122l-4.3,3.657-4.413,3.52c-2.907,2.391-5.986,4.561-8.983,6.837" transform="translate(-66.143 262.274)"/><path class="cls-35" d="M704.5,2034.948c-3.227,1.937-6.571,3.668-9.856,5.5q-4.986,2.644-10.028,5.185" transform="translate(-66.143 262.274)"/><path class="cls-35" d="M652.991,2059.7q-5.256,2.057-10.557,4c-3.554,1.237-7.08,2.557-10.666,3.7" transform="translate(-66.143 262.274)"/><line class="cls-35" x1="532.65" y1="2340.217" x2="511.14" y2="2347.084"/><line class="cls-35" x1="478.198" y1="2357.735" x2="456.752" y2="2364.799"/><path class="cls-35" d="M490.1,2113.617c-7.1,2.488-14.231,4.909-21.313,7.456" transform="translate(-66.143 262.274)"/><polyline class="cls-35" points="370.101 2395.163 359.53 2399.124 348.991 2403.172"/><path class="cls-35" d="M382.967,2153.7c-6.976,2.825-13.9,5.777-20.826,8.722" transform="translate(-66.143 262.274)"/><polyline class="cls-35" points="264.822 2439.712 259.889 2442.456 255.035 2445.338 252.608 2446.779 250.225 2448.29 245.458 2451.315"/><path class="cls-35" d="M283.922,2209.8c-5.729,4.884-11.185,10.076-16.483,15.421" transform="translate(-66.143 262.274)"/><path class="cls-35" d="M245.221,2251.727c-2.241,3.024-4.273,6.194-6.372,9.317-1.971,3.206-4,6.374-5.824,9.67" transform="translate(-66.143 262.274)"/><path class="cls-35" d="M218.455,2302.071a189.465,189.465,0,0,0-6.5,21.608" transform="translate(-66.143 262.274)"/><path class="cls-35" d="M206.927,2357.884a186.872,186.872,0,0,0,.059,22.564" transform="translate(-66.143 262.274)"/><path class="cls-35" d="M212.07,2414.648a216.846,216.846,0,0,0,6.427,21.633" transform="translate(-66.143 262.274)"/><path class="cls-35" d="M232.64,2467.842c1.732,3.342,3.717,6.543,5.588,9.808l3,4.781,1.506,2.387,1.58,2.338" transform="translate(-66.143 262.274)"/><path class="cls-35" d="M265.4,2514.581c1.247,1.409,2.473,2.836,3.738,4.229l3.856,4.123,1.928,2.061,1.988,2,3.978,4.005" transform="translate(-66.143 262.274)"/><path class="cls-35" d="M306.866,2553.866c5.872,4.709,11.95,9.154,18.1,13.495" transform="translate(-66.143 262.274)"/><path class="cls-35" d="M354.063,2586.105c6.517,3.766,12.979,7.628,19.636,11.143" transform="translate(-66.143 262.274)"/><path class="cls-35" d="M404.535,2612.976c6.751,3.331,13.658,6.328,20.5,9.465" transform="translate(-66.143 262.274)"/><polyline class="cls-35" points="390.831 2898.069 401.366 2902.127 406.637 2904.149 411.937 2906.089"/><path class="cls-35" d="M510.756,2655.252c7.13,2.411,14.311,4.664,21.488,6.931" transform="translate(-66.143 262.274)"/><path class="cls-35" d="M565.43,2672.047c7.226,2.1,14.474,4.133,21.665,6.355" transform="translate(-66.143 262.274)"/><path class="cls-35" d="M620.06,2688.978c3.576,1.171,7.105,2.48,10.653,3.735s7.1,2.511,10.6,3.875" transform="translate(-66.143 262.274)"/><path class="cls-35" d="M673.41,2709.561c1.724.753,3.464,1.471,5.175,2.253l5.128,2.361c3.409,1.593,6.861,3.095,10.219,4.8" transform="translate(-66.143 262.274)"/><path class="cls-35" d="M724.607,2735.008l4.925,2.759,4.849,2.889c3.219,1.949,6.489,3.815,9.665,5.834" transform="translate(-66.143 262.274)"/><path class="cls-35" d="M772.823,2765.726c6.118,4.38,12.241,8.77,18,13.623" transform="translate(-66.143 262.274)"/><path class="cls-35" d="M815.993,2803.081c5.078,5.554,9.989,11.264,14.6,17.213" transform="translate(-66.143 262.274)"/><path class="cls-35" d="M849.861,2849.024c3.771,6.515,7.111,13.269,10.245,20.11" transform="translate(-66.143 262.274)"/><path class="cls-35" d="M871.51,2901.777c1,3.629,1.691,7.332,2.491,11.009.6,3.714,1.333,7.41,1.718,11.155" transform="translate(-66.143 262.274)"/><path class="cls-35" d="M876.4,2958.488a165.8,165.8,0,0,1-3.741,22.247" transform="translate(-66.143 262.274)"/><path class="cls-35" d="M860.657,3013.133a182.04,182.04,0,0,1-11.38,19.482" transform="translate(-66.143 262.274)"/><path class="cls-35" d="M827.574,3059.539c-5.15,5.491-10.607,10.685-16.2,15.72" transform="translate(-66.143 262.274)"/><path class="cls-35" d="M784.459,3097.012c-6.049,4.478-12.242,8.76-18.492,12.952" transform="translate(-66.143 262.274)"/><path class="cls-35" d="M736.727,3128.5c-6.434,3.9-12.92,7.724-19.415,11.526" transform="translate(-66.143 262.274)"/><path class="cls-35" d="M686.759,3156.286c-6.829,3.163-13.6,6.444-20.527,9.4" transform="translate(-66.143 262.274)"/><path class="cls-35" d="M634.328,3179.129c-6.967,2.847-13.967,5.612-20.967,8.377" transform="translate(-66.143 262.274)"/><line class="cls-35" x1="514.985" y1="3462.415" x2="493.983" y2="3470.706"/><polyline class="cls-35" points="461.971 3483.889 451.633 3488.428 446.466 3490.7 441.352 3493.089"/><path class="cls-35" d="M476.6,3246.416l-4.94,2.732-4.841,2.9c-1.626.948-3.195,1.988-4.786,2.992s-3.18,2.013-4.724,3.089" transform="translate(-66.143 262.274)"/><path class="cls-35" d="M430.323,3279.745A197.912,197.912,0,0,0,415,3296.31" transform="translate(-66.143 262.274)"/><path class="cls-35" d="M394.8,3324.406A111.117,111.117,0,0,0,384.59,3344.5" transform="translate(-66.143 262.274)"/><path class="cls-35" d="M376.525,3378.062A168.821,168.821,0,0,0,375.5,3400.6" transform="translate(-66.143 262.274)"/><path class="cls-35" d="M379.313,3434.967a215.215,215.215,0,0,0,5.47,21.9" transform="translate(-66.143 262.274)"/><path class="cls-35" d="M397.415,3489.058a198.185,198.185,0,0,0,10.976,19.718" transform="translate(-66.143 262.274)"/><path class="cls-35" d="M429.889,3535.831a174.816,174.816,0,0,0,16.88,14.973" transform="translate(-66.143 262.274)"/><path class="cls-35" d="M475.613,3569.9c6.54,3.726,13.208,7.222,19.948,10.571" transform="translate(-66.143 262.274)"/><path class="cls-35" d="M526.965,3595.034q10.33,4.555,20.716,8.982" transform="translate(-66.143 262.274)"/><path class="cls-35" d="M579.5,3617.672c6.9,3.005,13.8,6.023,20.744,8.917" transform="translate(-66.143 262.274)"/><path class="cls-35" d="M632.205,3639.886c6.926,2.945,13.819,5.971,20.632,9.17" transform="translate(-66.143 262.274)"/><path class="cls-35" d="M683.37,3665.335a189,189,0,0,1,18.493,12.931" transform="translate(-66.143 262.274)"/><path class="cls-35" d="M726.016,3702.934a116.013,116.013,0,0,1,11.654,19.292" transform="translate(-66.143 262.274)"/><path class="cls-35" d="M747.352,3755.314a118.482,118.482,0,0,1,.884,22.527" transform="translate(-66.143 262.274)"/><path class="cls-35" d="M742.277,3811.86a176.145,176.145,0,0,1-7.909,21.129" transform="translate(-66.143 262.274)"/><path class="cls-35" d="M717.188,3862.987a192.274,192.274,0,0,1-14.09,17.625" transform="translate(-66.143 262.274)"/><path class="cls-35" d="M677.625,3903.976c-1.522,1.106-3.016,2.252-4.561,3.325l-4.709,3.113c-3.153,2.053-6.225,4.235-9.529,6.045" transform="translate(-66.143 262.274)"/><path class="cls-35" d="M628.022,3932.2c-.86.381-1.712.782-2.578,1.148l-2.625,1.038-5.249,2.076c-1.755.679-3.49,1.411-5.26,2.048l-5.332,1.853" transform="translate(-66.143 262.274)"/><polyline class="cls-35" points="507.683 4212.572 496.698 4215.177 493.951 4215.826 491.189 4216.403 485.663 4217.557"/><polyline class="cls-35" points="451.593 4223.687 440.429 4225.367 429.248 4226.93"/></g><g id="triple_house" data-name="triple house"><use width="523.561" height="246.316" transform="translate(271.481 2338.13)" xlink:href="#houses_triple_2"/><use width="525.463" height="246.295" transform="translate(383.838 2563.378)" xlink:href="#triple_house-2"/><use width="523.561" height="246.316" transform="translate(322.275 1287.325)" xlink:href="#houses_triple_2"/><use width="525.463" height="246.295" transform="translate(434.633 1512.574)" xlink:href="#triple_house-2"/><use width="523.561" height="246.316" transform="translate(20.142 557.878)" xlink:href="#houses_triple_2"/></g><g id="apartments"><use width="237.922" height="519.501" transform="translate(8.319 2752.886)" xlink:href="#apartment"/><use width="479.594" height="519.501" transform="translate(68.546 3532.508)" xlink:href="#apartments-2"/><use width="481.599" height="519.501" transform="translate(30.682 1734.366)" xlink:href="#apartments_2"/><polygon class="cls-1" points="641.296 43.716 647.114 61.632 652.933 79.549 641.296 79.549 629.659 79.549 635.477 61.632 641.296 43.716"/><path class="cls-2" d="M685.357-199.992v448.4H889.669v-448.4Zm36.388,30.5H762.5v59.779H721.745Zm0,82.811H762.5V-26.9H721.745Zm0,82.811H762.5V55.909H721.745Zm0,82.811H762.5v59.78H721.745ZM763.678,230.8H716.326V163.267h47.352Zm55.639-92.078H778.561V78.941h40.756Zm0-82.812H778.561V-3.87h40.756Zm0-82.811H778.561V-86.681h40.756Zm0-82.811H778.561v-59.779h40.756Zm56.817,248.434H835.378V78.941h40.756Zm0-82.812H835.378V-3.87h40.756Zm0-82.811H835.378V-86.681h40.756Zm0-82.811H835.378v-59.779h40.756Z" transform="translate(-66.143 262.274)"/><path class="cls-14" d="M441.68-116.336V247.772H645.993V-116.336Zm36.389,29.019h40.756v59.78H478.069Zm0,82.811h40.756v59.78H478.069Zm0,82.812h40.756v59.779H478.069ZM520,230.164H472.65V162.631H520Zm55.639-92.079H534.885V78.306h40.756Zm0-82.811H534.885V-4.506h40.756Zm0-82.811H534.885v-59.78h40.756Zm56.816,165.622H591.7V78.306h40.756Zm0-82.811H591.7V-4.506h40.756Zm0-82.811H591.7v-59.78h40.756Z" transform="translate(-66.143 262.274)"/><rect class="cls-5" x="536.765" y="118.553" width="8.526" height="30.075"/><rect class="cls-5" x="553.305" y="122.996" width="8.526" height="24.965"/><rect class="cls-6" x="536.018" y="120.175" width="10.019" height="1.61"/><rect class="cls-6" x="536.018" y="123.836" width="10.019" height="1.61"/><rect class="cls-6" x="552.559" y="124.641" width="10.019" height="1.61"/><rect class="cls-6" x="552.559" y="128.302" width="10.019" height="1.61"/><rect class="cls-7" x="477.8" y="418.891" width="95.911" height="59.779"/><rect class="cls-6" x="474.023" y="418.891" width="7.554" height="73.804"/><rect class="cls-6" x="572.296" y="422.027" width="7.554" height="73.804"/><rect class="cls-6" x="523.159" y="420.702" width="7.554" height="73.804"/><rect class="cls-6" x="474.023" y="475.979" width="105.827" height="29.953"/><path class="cls-17" d="M670.1,181.272H574.846l-6.337-9.683-9.8-14.972q-2.456-3.751-4.91-7.5l-2.979-4.551h95.254l3.284,5.018,4.605,7.037,4.352,6.65Q664.208,172.27,670.1,181.272Z" transform="translate(-66.143 262.274)"/><rect class="cls-9" x="366.035" y="396.893" width="39.433" height="3.466"/><rect class="cls-9" x="366.035" y="368.736" width="39.433" height="3.466"/><rect class="cls-5" x="373.421" y="372.202" width="2.116" height="24.691"/><rect class="cls-5" x="378.886" y="372.202" width="2.116" height="24.691"/><rect class="cls-5" x="384.351" y="372.202" width="2.116" height="24.691"/><rect class="cls-5" x="389.816" y="372.202" width="2.116" height="24.691"/><rect class="cls-5" x="395.406" y="372.202" width="2.116" height="24.691"/><rect class="cls-5" x="400.871" y="372.202" width="2.116" height="24.691"/><rect class="cls-9" x="366.212" y="314.082" width="39.433" height="3.466"/><rect class="cls-9" x="366.212" y="285.925" width="39.433" height="3.466"/><rect class="cls-5" x="373.599" y="289.391" width="2.116" height="24.691"/><rect class="cls-5" x="379.064" y="289.391" width="2.116" height="24.691"/><rect class="cls-5" x="384.529" y="289.391" width="2.116" height="24.691"/><rect class="cls-5" x="389.993" y="289.391" width="2.116" height="24.691"/><rect class="cls-5" x="395.584" y="289.391" width="2.116" height="24.691"/><rect class="cls-5" x="401.049" y="289.391" width="2.116" height="24.691"/><rect class="cls-9" x="366.123" y="231.271" width="39.433" height="3.466"/><rect class="cls-9" x="366.123" y="203.114" width="39.433" height="3.466"/><rect class="cls-5" x="373.51" y="206.58" width="2.116" height="24.691"/><rect class="cls-5" x="378.974" y="206.58" width="2.116" height="24.691"/><rect class="cls-5" x="384.439" y="206.58" width="2.116" height="24.691"/><rect class="cls-5" x="389.904" y="206.58" width="2.116" height="24.691"/><rect class="cls-5" x="395.494" y="206.58" width="2.116" height="24.691"/><rect class="cls-5" x="400.959" y="206.58" width="2.116" height="24.691"/><rect class="cls-6" x="373.599" y="144.926" width="208.196" height="6.477"/><rect class="cls-6" x="373.599" y="234.737" width="208.196" height="6.477"/><rect class="cls-6" x="373.599" y="317.548" width="208.196" height="6.477"/><rect class="cls-6" x="373.596" y="400.359" width="208.196" height="6.477"/><rect class="cls-6" x="373.596" y="144.768" width="208.196" height="6.34"/><path class="cls-10" d="M623.349,181.272H599.056l-24.21-36.71h24.023Z" transform="translate(-66.143 262.274)"/><path class="cls-10" d="M670.1,181.272H645.991l-23.939-36.71h24.024Z" transform="translate(-66.143 262.274)"/><path class="cls-10" d="M575.641,181.272H551.348l-24.21-36.71h24.023Z" transform="translate(-66.143 262.274)"/><rect class="cls-11" x="428.115" y="492.438" width="25.744" height="26.427"/><rect class="cls-6" x="406.507" y="492.438" width="38.955" height="8.824"/><rect class="cls-12" x="398.11" y="501.262" width="40.115" height="8.824"/><rect class="cls-6" x="390.874" y="510.041" width="39.309" height="8.824"/><circle class="cls-3" cx="641.296" cy="45.018" r="6.087"/><circle class="cls-4" cx="663.981" cy="15.282" r="3.105"/><polygon class="cls-5" points="664.377 14.836 663.122 18.669 661.867 22.503 659.467 20.377 657.067 18.251 660.722 16.543 664.377 14.836"/><path class="cls-4" d="M748.608-221.52a30.726,30.726,0,0,1-43.375,2.622,30.727,30.727,0,0,1-2.622-43.376" transform="translate(-66.143 262.274)"/><circle class="cls-4" cx="663.981" cy="15.282" r="3.105"/><rect class="cls-5" x="780.444" y="36.067" width="8.526" height="30.075"/><rect class="cls-5" x="796.985" y="40.51" width="8.526" height="24.965"/><rect class="cls-6" x="779.698" y="37.689" width="10.019" height="1.61"/><rect class="cls-6" x="779.698" y="41.35" width="10.019" height="1.61"/><rect class="cls-6" x="796.238" y="42.155" width="10.019" height="1.61"/><rect class="cls-6" x="796.238" y="45.815" width="10.019" height="1.61"/><rect class="cls-7" x="721.476" y="419.527" width="95.911" height="59.779"/><rect class="cls-6" x="717.699" y="419.527" width="7.554" height="73.804"/><rect class="cls-6" x="815.972" y="422.663" width="7.554" height="73.804"/><rect class="cls-6" x="766.836" y="421.338" width="7.554" height="73.804"/><rect class="cls-6" x="717.699" y="476.615" width="105.827" height="29.953"/><path class="cls-15" d="M913.776,181.908H818.522l-2.541-3.882-7.776-11.883-3.905-5.968-7.388-11.289L794.5,145.2h95.254l4.133,6.316c.057.085,8.673,13.252,8.785,13.424Z" transform="translate(-66.143 262.274)"/><rect class="cls-9" x="609.711" y="397.529" width="39.433" height="3.466"/><rect class="cls-9" x="609.711" y="369.372" width="39.433" height="3.466"/><rect class="cls-5" x="611.421" y="372.838" width="2.116" height="24.691"/><rect class="cls-5" x="617.098" y="372.838" width="2.116" height="24.691"/><rect class="cls-5" x="622.562" y="372.838" width="2.116" height="24.691"/><rect class="cls-5" x="628.027" y="372.838" width="2.116" height="24.691"/><rect class="cls-5" x="633.492" y="372.838" width="2.116" height="24.691"/><rect class="cls-5" x="639.082" y="372.838" width="2.116" height="24.691"/><rect class="cls-5" x="644.547" y="372.838" width="2.116" height="24.691"/><rect class="cls-9" x="609.889" y="314.717" width="39.433" height="3.466"/><rect class="cls-9" x="609.889" y="286.561" width="39.433" height="3.466"/><rect class="cls-5" x="611.599" y="290.027" width="2.116" height="24.691"/><rect class="cls-5" x="617.275" y="290.027" width="2.116" height="24.691"/><rect class="cls-5" x="622.74" y="290.027" width="2.116" height="24.691"/><rect class="cls-5" x="628.205" y="290.027" width="2.116" height="24.691"/><rect class="cls-5" x="633.669" y="290.027" width="2.116" height="24.691"/><rect class="cls-5" x="639.26" y="290.027" width="2.116" height="24.691"/><rect class="cls-5" x="644.725" y="290.027" width="2.116" height="24.691"/><rect class="cls-9" x="609.799" y="231.906" width="39.433" height="3.466"/><rect class="cls-9" x="609.799" y="203.75" width="39.433" height="3.466"/><rect class="cls-5" x="611.509" y="207.216" width="2.116" height="24.691"/><rect class="cls-5" x="617.186" y="207.216" width="2.116" height="24.691"/><rect class="cls-5" x="622.65" y="207.216" width="2.116" height="24.691"/><rect class="cls-5" x="628.115" y="207.216" width="2.116" height="24.691"/><rect class="cls-5" x="633.58" y="207.216" width="2.116" height="24.691"/><rect class="cls-5" x="639.171" y="207.216" width="2.116" height="24.691"/><rect class="cls-5" x="644.635" y="207.216" width="2.116" height="24.691"/><rect class="cls-9" x="609.799" y="149.095" width="39.433" height="3.466"/><rect class="cls-9" x="609.799" y="120.939" width="39.433" height="3.466"/><rect class="cls-5" x="611.509" y="124.405" width="2.116" height="24.691"/><rect class="cls-5" x="617.186" y="124.405" width="2.116" height="24.691"/><rect class="cls-5" x="622.65" y="124.405" width="2.116" height="24.691"/><rect class="cls-5" x="628.115" y="124.405" width="2.116" height="24.691"/><rect class="cls-5" x="633.58" y="124.405" width="2.116" height="24.691"/><rect class="cls-5" x="639.171" y="124.405" width="2.116" height="24.691"/><rect class="cls-5" x="644.635" y="124.405" width="2.116" height="24.691"/><rect class="cls-6" x="617.275" y="152.561" width="208.196" height="6.477"/><rect class="cls-6" x="617.275" y="235.372" width="208.196" height="6.477"/><rect class="cls-6" x="617.275" y="318.183" width="208.196" height="6.477"/><rect class="cls-6" x="617.272" y="400.995" width="208.196" height="6.477"/><rect class="cls-6" x="617.275" y="62.282" width="208.196" height="6.34"/><path class="cls-16" d="M867.026,181.908H842.732l-24.21-36.71h24.024Z" transform="translate(-66.143 262.274)"/><path class="cls-16" d="M913.776,181.908H889.668q-11.97-18.355-23.939-36.71h24.023Z" transform="translate(-66.143 262.274)"/><path class="cls-16" d="M819.317,181.908H795.024l-24.21-36.71h24.023Z" transform="translate(-66.143 262.274)"/><rect class="cls-11" x="671.791" y="493.073" width="25.744" height="26.427"/><rect class="cls-6" x="650.183" y="493.073" width="38.955" height="8.824"/><rect class="cls-12" x="641.787" y="501.898" width="40.115" height="8.824"/><rect class="cls-6" x="634.55" y="510.676" width="39.309" height="8.824"/></g><g id="double_house-5" data-name="double house"><use width="341.649" height="273.378" transform="translate(318.648 2940.858)" xlink:href="#house_2"/><use width="341.649" height="273.378" transform="translate(343.021 831.929)" xlink:href="#house_2"/></g><g id="rv_car" data-name="rv car"><use width="252.709" height="129.433" transform="translate(128.345 3313.135)" xlink:href="#rv_car-2"/></g><g id="double_window_house" data-name="double window house"><use width="309.394" height="278.839" transform="translate(0 1030.337)" xlink:href="#house_1"/><use width="309.394" height="278.839" transform="translate(524.911 3356.851)" xlink:href="#house_1"/></g><g id="pond"><use width="213.516" height="173.153" transform="translate(76.906 835.982)" xlink:href="#pond-2"/><use width="213.516" height="173.153" transform="translate(663.356 3672.572)" xlink:href="#pond-2"/></g><g id="graphic_style" data-name="graphic style"><use width="159.9" height="317.52" transform="translate(406.507 174.956)" xlink:href="#New_Symbol_3"/><use width="159.897" height="400.332" transform="translate(650.183 92.78)" xlink:href="#New_Symbol_1"/><use width="407.377" height="67.572" transform="translate(78.234 710.195)" xlink:href="#houses_all"/><use width="407.377" height="67.572" transform="translate(380.367 1439.652)" xlink:href="#houses_all"/><use width="268.906" height="86.609" transform="translate(379.353 992.271)" xlink:href="#double_house_window"/><use width="163.282" height="86.612" transform="translate(116.767 1196.137)" xlink:href="#double_window_house-2"/><use width="159.897" height="400.332" transform="translate(314.822 1827.133)" xlink:href="#New_Symbol_1"/><use width="159.897" height="400.332" transform="translate(48.783 2845.683)" xlink:href="#New_Symbol_1"/><use width="159.897" height="400.332" transform="translate(109.001 3625.26)" xlink:href="#New_Symbol_1"/><use width="163.282" height="86.612" transform="translate(641.678 3522.651)" xlink:href="#double_window_house-2"/><use width="268.906" height="86.609" transform="translate(354.987 3101.38)" xlink:href="#double_house_window"/><use width="407.377" height="67.572" transform="translate(329.712 2490.425)" xlink:href="#houses_all"/><use width="409.308" height="67.619" transform="translate(492.696 1664.846)" xlink:href="#New_Symbol_2"/><use width="409.308" height="67.619" transform="translate(441.835 2715.618)" xlink:href="#New_Symbol_2"/><use width="47.352" height="67.551" transform="translate(246.396 3348.524)" xlink:href="#door"/><use width="159.9" height="317.52" transform="translate(71.033 1909.352)" xlink:href="#New_Symbol_3"/><use width="159.9" height="317.52" transform="translate(350.794 3707.893)" xlink:href="#New_Symbol_3"/></g></svg>