<svg xmlns="http://www.w3.org/2000/svg" viewBox="0 0 942.29 4006.82"><defs><style>.cls-1,.cls-12,.cls-5,.cls-9{fill:#e2cca6;}.cls-2{fill:#f09d88;}.cls-3{fill:#c8b592;}.cls-4{fill:#af9f81;}.cls-5{stroke:#e48c77;}.cls-12,.cls-15,.cls-26,.cls-28,.cls-30,.cls-32,.cls-33,.cls-5,.cls-9{stroke-miterlimit:10;}.cls-12,.cls-5,.cls-9{stroke-width:8px;}.cls-6{fill:#e48c77;}.cls-30,.cls-7{fill:#526270;}.cls-8{fill:#95bfa6;}.cls-9{stroke:#58827e;}.cls-10{fill:#58827e;}.cls-11{fill:#f8c84d;}.cls-12{stroke:#f3a628;}.cls-13{fill:#f3a628;}.cls-14{fill:#9b8d72;}.cls-15,.cls-35{fill:none;}.cls-15,.cls-26{stroke:#999;}.cls-15{stroke-width:3px;}.cls-16{fill:#808081;}.cls-17{fill:#cdcccc;}.cls-18{fill:#999;}.cls-19{fill:#f2ebd5;}.cls-20{fill:#676766;}.cls-21{fill:#ee764a;}.cls-22{fill:#b4b0a1;}.cls-23,.cls-32,.cls-33{fill:#cec9b8;}.cls-24,.cls-26{fill:#8bc0c6;}.cls-25{fill:#3598aa;}.cls-26{stroke-width:7px;}.cls-27,.cls-28{fill:#f2f2f2;}.cls-28{stroke:#f2f2f2;stroke-width:0.75px;}.cls-29{fill:#b3b3b3;}.cls-30{stroke:#676766;stroke-width:2px;}.cls-31{fill:#333;}.cls-32{stroke:#cec9b8;}.cls-32,.cls-33{stroke-width:0.5px;}.cls-33{stroke:#9b8d72;}.cls-34{fill:#4e4d4d;}.cls-36{fill:#8ebda6;}.cls-37{fill:#6ac4cd;}</style></defs><g id="Layer_16" data-name="Layer 16"><path class="cls-1" d="M726.62,1168.84v126.28H880V1168.84Zm100.52,108.68H779.79V1210h47.35Z" transform="translate(-69.29 224.18)"/><path class="cls-1" d="M842.4,1391v126.28H995.82V1391Zm100.52,108.68H895.57v-67.54h47.35Z" transform="translate(-69.29 224.18)"/><rect class="cls-2" x="768.19" y="1531.29" width="163.54" height="87.14"/><rect class="cls-3" x="826.28" y="1723.86" width="47.35" height="8.82"/><rect class="cls-4" x="826.28" y="1732.69" width="47.35" height="8.82"/><rect class="cls-3" x="826.28" y="1741.47" width="47.35" height="8.82"/><polygon class="cls-5" points="849.95 1516.37 883.35 1567.4 916.74 1618.43 849.95 1618.43 783.17 1618.43 816.56 1567.4 849.95 1516.37"/><rect class="cls-6" x="768.19" y="1613.23" width="163.54" height="8.3"/><rect class="cls-7" x="830.9" y="1575.06" width="16.35" height="26.94"/><rect class="cls-7" x="852.66" y="1575.06" width="16.35" height="26.94"/><rect class="cls-6" x="891.34" y="1509.8" width="26.87" height="39.49"/><rect class="cls-2" x="888.65" y="1503.99" width="32.24" height="6.72"/><rect class="cls-8" x="652.4" y="1309.12" width="163.54" height="87.14"/><rect class="cls-3" x="710.49" y="1501.69" width="47.35" height="8.82"/><rect class="cls-4" x="710.49" y="1510.52" width="47.35" height="8.82"/><rect class="cls-3" x="710.49" y="1519.3" width="47.35" height="8.82"/><polygon class="cls-9" points="734.17 1294.2 767.56 1345.23 800.96 1396.26 734.17 1396.26 667.38 1396.26 700.78 1345.23 734.17 1294.2"/><rect class="cls-10" x="652.4" y="1392.07" width="163.54" height="8.33"/><rect class="cls-7" x="715.11" y="1352.89" width="16.35" height="26.94"/><rect class="cls-7" x="736.87" y="1352.89" width="16.35" height="26.94"/><rect class="cls-10" x="775.3" y="1287.63" width="26.87" height="39.49"/><rect class="cls-8" x="772.61" y="1281.82" width="32.24" height="6.72"/><path class="cls-1" d="M74.22,431.85V558.12H227.63V431.85ZM174.74,540.52H127.38V473h47.36Z" transform="translate(-69.29 224.18)"/><rect class="cls-11" y="572.13" width="163.54" height="87.14"/><rect class="cls-3" x="58.09" y="764.7" width="47.35" height="8.82"/><rect class="cls-4" x="58.09" y="773.52" width="47.35" height="8.82"/><rect class="cls-3" x="58.09" y="782.3" width="47.35" height="8.82"/><polygon class="cls-12" points="81.77 557.21 115.16 608.24 148.55 659.27 81.77 659.27 14.98 659.27 48.38 608.24 81.77 557.21"/><rect class="cls-13" y="655.11" width="163.54" height="8.3"/><rect class="cls-7" x="62.71" y="615.89" width="16.35" height="26.94"/><rect class="cls-7" x="84.47" y="615.89" width="16.35" height="26.94"/><rect class="cls-13" x="123.15" y="550.63" width="26.87" height="39.49"/><rect class="cls-11" x="120.46" y="544.83" width="32.24" height="6.72"/></g><g id="Layer_5" data-name="Layer 5"><rect class="cls-3" x="34.45" y="1117.49" width="67.17" height="125.6"/><rect class="cls-7" x="51.92" y="1138.81" width="16.35" height="34.59"/><rect class="cls-7" x="73.68" y="1138.81" width="16.35" height="34.59"/></g><g id="Layer_4" data-name="Layer 4"><polygon class="cls-6" points="77.91 1050.32 106.23 1085.92 134.55 1121.52 77.91 1121.52 21.27 1121.52 49.59 1085.92 77.91 1050.32"/></g><g id="Layer_6" data-name="Layer 6"><path class="cls-1" d="M153.9,897.34v126.27H392.12V897.34ZM254.68,1006H207.33V938.48h47.35Zm59.55-26.89H273.47V919.34h40.76Zm56.43,0H329.91V919.34h40.75Z" transform="translate(-69.29 224.18)"/><rect class="cls-14" x="159.65" y="1230.19" width="25.74" height="26.43"/></g><g id="Layer_3" data-name="Layer 3"><rect class="cls-2" x="76.77" y="1006.66" width="253.89" height="114.86"/></g><g id="Layer_2" data-name="Layer 2"><polygon class="cls-5" points="161.72 991.21 200.27 1057.98 238.82 1124.76 161.72 1124.76 84.61 1124.76 123.16 1057.98 161.72 991.21"/><rect class="cls-6" x="76.77" y="1120.53" width="253.89" height="8.37"/><rect class="cls-6" x="269.12" y="984.49" width="26.87" height="65.82"/><rect class="cls-2" x="266.43" y="977.78" width="32.24" height="6.72"/><rect class="cls-7" x="142.66" y="1064.09" width="16.35" height="34.59"/><rect class="cls-7" x="164.42" y="1064.09" width="16.35" height="34.59"/></g><g id="Layer_11" data-name="Layer 11"><path class="cls-1" d="M366.59,1168.86v126.28H520V1168.86Zm100.52,108.68H419.76V1210h47.35Z" transform="translate(-69.29 224.18)"/><rect class="cls-11" x="292.38" y="1309.15" width="163.54" height="87.14"/><rect class="cls-3" x="350.47" y="1501.71" width="47.35" height="8.82"/><rect class="cls-4" x="350.47" y="1510.54" width="47.35" height="8.82"/><rect class="cls-3" x="350.47" y="1519.32" width="47.35" height="8.82"/><polygon class="cls-12" points="374.14 1294.22 407.54 1345.25 440.93 1396.28 374.14 1396.28 307.36 1396.28 340.75 1345.25 374.14 1294.22"/><rect class="cls-13" x="292.38" y="1392.13" width="163.54" height="8.3"/><rect class="cls-7" x="355.09" y="1352.91" width="16.35" height="26.94"/><rect class="cls-7" x="376.85" y="1352.91" width="16.35" height="26.94"/></g><g id="Layer_12" data-name="Layer 12"><path class="cls-1" d="M546.74,1168.86v126.28H700.16V1168.86Zm100.52,108.68H599.91V1210h47.35Z" transform="translate(-69.29 224.18)"/><path class="cls-1" d="M661.34,1391v126.28H814.76V1391Zm100.52,108.68H714.51v-67.54h47.35Z" transform="translate(-69.29 224.18)"/><path class="cls-1" d="M480.48,1391v126.28H633.89V1391ZM581,1499.69H533.64v-67.54H581Z" transform="translate(-69.29 224.18)"/><path class="cls-1" d="M254.83,432V558.3H408.24V432ZM355.35,540.7H308V473.17h47.36Z" transform="translate(-69.29 224.18)"/><path class="cls-1" d="M435.69,431.4V557.68H589.11V431.4ZM536.21,540.08H488.86V472.54h47.35Z" transform="translate(-69.29 224.18)"/><rect class="cls-13" x="415.53" y="1287.65" width="26.87" height="39.49"/><rect class="cls-11" x="412.84" y="1281.85" width="32.24" height="6.72"/><rect class="cls-2" x="472.53" y="1309.15" width="163.54" height="87.14"/><rect class="cls-3" x="530.62" y="1501.71" width="47.35" height="8.82"/><rect class="cls-4" x="530.62" y="1510.54" width="47.35" height="8.82"/><rect class="cls-3" x="530.62" y="1519.32" width="47.35" height="8.82"/><polygon class="cls-5" points="554.3 1294.22 587.69 1345.25 621.08 1396.28 554.3 1396.28 487.51 1396.28 520.9 1345.25 554.3 1294.22"/><rect class="cls-6" x="472.53" y="1392.1" width="163.54" height="8.33"/><rect class="cls-7" x="535.24" y="1352.91" width="16.35" height="26.94"/><rect class="cls-7" x="557" y="1352.91" width="16.35" height="26.94"/><rect class="cls-6" x="595.43" y="1287.65" width="26.87" height="39.49"/><rect class="cls-2" x="592.74" y="1281.85" width="32.24" height="6.72"/><rect class="cls-11" x="587.13" y="1531.29" width="163.54" height="87.14"/><rect class="cls-3" x="645.22" y="1723.86" width="47.35" height="8.82"/><rect class="cls-4" x="645.22" y="1732.69" width="47.35" height="8.82"/><rect class="cls-3" x="645.22" y="1741.47" width="47.35" height="8.82"/><polygon class="cls-12" points="668.89 1516.37 702.29 1567.4 735.68 1618.43 668.89 1618.43 602.11 1618.43 635.5 1567.4 668.89 1516.37"/><rect class="cls-13" x="587.13" y="1613.23" width="163.54" height="8.3"/><rect class="cls-7" x="649.84" y="1575.06" width="16.35" height="26.94"/><rect class="cls-7" x="671.6" y="1575.06" width="16.35" height="26.94"/><rect class="cls-13" x="710.28" y="1509.8" width="26.87" height="39.49"/><rect class="cls-11" x="707.59" y="1503.99" width="32.24" height="6.72"/><rect class="cls-8" x="406.26" y="1531.29" width="163.54" height="87.14"/><rect class="cls-3" x="464.35" y="1723.86" width="47.35" height="8.82"/><rect class="cls-4" x="464.35" y="1732.69" width="47.35" height="8.82"/><rect class="cls-3" x="464.35" y="1741.47" width="47.35" height="8.82"/><polygon class="cls-9" points="488.03 1516.37 521.42 1567.4 554.81 1618.43 488.03 1618.43 421.24 1618.43 454.63 1567.4 488.03 1516.37"/><rect class="cls-10" x="406.26" y="1614.24" width="163.54" height="8.33"/><rect class="cls-7" x="468.97" y="1575.06" width="16.35" height="26.94"/><rect class="cls-7" x="490.73" y="1575.06" width="16.35" height="26.94"/><rect class="cls-10" x="529.16" y="1509.8" width="26.87" height="39.49"/><rect class="cls-8" x="526.47" y="1503.99" width="32.24" height="6.72"/><rect class="cls-8" x="361.48" y="571.68" width="163.54" height="87.14"/><rect class="cls-3" x="419.57" y="764.25" width="47.35" height="8.82"/><rect class="cls-4" x="419.57" y="773.08" width="47.35" height="8.82"/><rect class="cls-3" x="419.57" y="781.86" width="47.35" height="8.82"/><polygon class="cls-9" points="443.25 556.76 476.64 607.79 510.03 658.82 443.25 658.82 376.46 658.82 409.85 607.79 443.25 556.76"/><rect class="cls-10" x="361.48" y="654.67" width="163.54" height="8.3"/><rect class="cls-7" x="424.19" y="615.45" width="16.35" height="26.94"/><rect class="cls-7" x="445.95" y="615.45" width="16.35" height="26.94"/><rect class="cls-10" x="484.63" y="550.19" width="26.87" height="39.49"/><rect class="cls-8" x="481.94" y="544.38" width="32.24" height="6.72"/><rect class="cls-2" x="180.61" y="572.31" width="163.54" height="87.14"/><rect class="cls-3" x="238.7" y="764.88" width="47.35" height="8.82"/><rect class="cls-4" x="238.7" y="773.7" width="47.35" height="8.82"/><rect class="cls-3" x="238.7" y="782.48" width="47.35" height="8.82"/><polygon class="cls-5" points="262.38 557.39 295.77 608.42 329.16 659.45 262.38 659.45 195.59 659.45 228.99 608.42 262.38 557.39"/><rect class="cls-6" x="180.61" y="655.26" width="163.54" height="8.33"/><rect class="cls-7" x="243.32" y="616.07" width="16.35" height="26.94"/><rect class="cls-7" x="265.08" y="616.07" width="16.35" height="26.94"/><rect class="cls-6" x="303.51" y="550.81" width="26.87" height="39.49"/><rect class="cls-2" x="300.82" y="545.01" width="32.24" height="6.72"/><path class="cls-1" d="M691.1,2190.38v126.28H844.51V2190.38Zm100.52,108.68H744.27v-67.54h47.35Z" transform="translate(-69.29 224.18)"/><path class="cls-1" d="M806.88,2412.55v126.28H960.3V2412.55ZM907.4,2521.23H860.05v-67.54H907.4Z" transform="translate(-69.29 224.18)"/><rect class="cls-2" x="732.67" y="2552.83" width="163.54" height="87.14"/><rect class="cls-3" x="790.76" y="2745.4" width="47.35" height="8.82"/><rect class="cls-4" x="790.76" y="2754.23" width="47.35" height="8.82"/><rect class="cls-3" x="790.76" y="2763.01" width="47.35" height="8.82"/><polygon class="cls-5" points="814.44 2537.91 847.83 2588.94 881.22 2639.97 814.44 2639.97 747.65 2639.97 781.04 2588.94 814.44 2537.91"/><rect class="cls-6" x="732.67" y="2634.77" width="163.54" height="8.3"/><rect class="cls-7" x="795.38" y="2596.6" width="16.35" height="26.94"/><rect class="cls-7" x="817.14" y="2596.6" width="16.35" height="26.94"/><rect class="cls-6" x="855.82" y="2531.34" width="26.87" height="39.49"/><rect class="cls-2" x="853.13" y="2525.54" width="32.24" height="6.72"/><rect class="cls-8" x="616.88" y="2330.67" width="163.54" height="87.14"/><rect class="cls-3" x="674.98" y="2523.23" width="47.35" height="8.82"/><rect class="cls-4" x="674.98" y="2532.06" width="47.35" height="8.82"/><rect class="cls-3" x="674.98" y="2540.84" width="47.35" height="8.82"/><polygon class="cls-9" points="698.65 2315.74 732.04 2366.77 765.44 2417.8 698.65 2417.8 631.87 2417.8 665.26 2366.77 698.65 2315.74"/><rect class="cls-10" x="616.88" y="2413.62" width="163.54" height="8.33"/><rect class="cls-7" x="679.59" y="2374.43" width="16.35" height="26.94"/><rect class="cls-7" x="701.36" y="2374.43" width="16.35" height="26.94"/><rect class="cls-10" x="739.78" y="2309.17" width="26.87" height="39.49"/><rect class="cls-8" x="737.1" y="2303.37" width="32.24" height="6.72"/><path class="cls-1" d="M331.08,2190.41v126.27H484.49V2190.41Zm100.51,108.67H384.24v-67.53h47.35Z" transform="translate(-69.29 224.18)"/><rect class="cls-11" x="256.86" y="2330.69" width="163.54" height="87.14"/><rect class="cls-3" x="314.95" y="2523.26" width="47.35" height="8.82"/><rect class="cls-4" x="314.95" y="2532.08" width="47.35" height="8.82"/><rect class="cls-3" x="314.95" y="2540.86" width="47.35" height="8.82"/><polygon class="cls-12" points="338.63 2315.77 372.02 2366.8 405.41 2417.82 338.63 2417.82 271.84 2417.82 305.24 2366.8 338.63 2315.77"/><rect class="cls-13" x="256.86" y="2413.67" width="163.54" height="8.3"/><rect class="cls-7" x="319.57" y="2374.45" width="16.35" height="26.94"/><rect class="cls-7" x="341.33" y="2374.45" width="16.35" height="26.94"/><path class="cls-1" d="M511.23,2190.41v126.27H664.64V2190.41Zm100.52,108.67H564.39v-67.53h47.36Z" transform="translate(-69.29 224.18)"/><path class="cls-1" d="M625.82,2412.55v126.28H779.24V2412.55Zm100.52,108.68H679v-67.54h47.35Z" transform="translate(-69.29 224.18)"/><path class="cls-1" d="M445,2412.55v126.28H598.37V2412.55Zm100.52,108.68H498.13v-67.54h47.35Z" transform="translate(-69.29 224.18)"/><rect class="cls-13" x="380.01" y="2309.19" width="26.87" height="39.49"/><rect class="cls-11" x="377.32" y="2303.39" width="32.24" height="6.72"/><rect class="cls-2" x="437.01" y="2330.69" width="163.54" height="87.14"/><rect class="cls-3" x="495.1" y="2523.26" width="47.35" height="8.82"/><rect class="cls-4" x="495.1" y="2532.08" width="47.35" height="8.82"/><rect class="cls-3" x="495.1" y="2540.86" width="47.35" height="8.82"/><polygon class="cls-5" points="518.78 2315.77 552.17 2366.8 585.56 2417.82 518.78 2417.82 451.99 2417.82 485.39 2366.8 518.78 2315.77"/><rect class="cls-6" x="437.01" y="2413.64" width="163.54" height="8.33"/><rect class="cls-7" x="499.72" y="2374.45" width="16.35" height="26.94"/><rect class="cls-7" x="521.48" y="2374.45" width="16.35" height="26.94"/><rect class="cls-6" x="559.91" y="2309.19" width="26.87" height="39.49"/><rect class="cls-2" x="557.22" y="2303.39" width="32.24" height="6.72"/><rect class="cls-11" x="551.61" y="2552.83" width="163.54" height="87.14"/><rect class="cls-3" x="609.7" y="2745.4" width="47.35" height="8.82"/><rect class="cls-4" x="609.7" y="2754.23" width="47.35" height="8.82"/><rect class="cls-3" x="609.7" y="2763.01" width="47.35" height="8.82"/><polygon class="cls-12" points="633.38 2537.91 666.77 2588.94 700.16 2639.97 633.38 2639.97 566.59 2639.97 599.98 2588.94 633.38 2537.91"/><rect class="cls-13" x="551.61" y="2634.77" width="163.54" height="8.3"/><rect class="cls-7" x="614.32" y="2596.6" width="16.35" height="26.94"/><rect class="cls-7" x="636.08" y="2596.6" width="16.35" height="26.94"/><rect class="cls-13" x="674.76" y="2531.34" width="26.87" height="39.49"/><rect class="cls-11" x="672.07" y="2525.54" width="32.24" height="6.72"/><rect class="cls-8" x="370.74" y="2552.83" width="163.54" height="87.14"/><rect class="cls-3" x="428.83" y="2745.4" width="47.35" height="8.82"/><rect class="cls-4" x="428.83" y="2754.23" width="47.35" height="8.82"/><rect class="cls-3" x="428.83" y="2763.01" width="47.35" height="8.82"/><polygon class="cls-9" points="452.51 2537.91 485.9 2588.94 519.29 2639.97 452.51 2639.97 385.72 2639.97 419.12 2588.94 452.51 2537.91"/><rect class="cls-10" x="370.74" y="2635.78" width="163.54" height="8.33"/><rect class="cls-7" x="433.45" y="2596.6" width="16.35" height="26.94"/><rect class="cls-7" x="455.21" y="2596.6" width="16.35" height="26.94"/><rect class="cls-10" x="493.64" y="2531.34" width="26.87" height="39.49"/><rect class="cls-8" x="490.95" y="2525.54" width="32.24" height="6.72"/></g><g id="Layer_13" data-name="Layer 13"><path class="cls-1" d="M422.1,704V830.26H748V704Zm69.27,81.78H450.61V726h40.76Zm56.43,0H507.05V726H547.8Zm60.93,26.87H561.38V745.1h47.35Zm54.34-26.87H622.31V726h40.76Zm56.43,0H678.74V726H719.5Z" transform="translate(-69.29 224.18)"/><rect class="cls-3" x="492.09" y="1036.81" width="47.35" height="8.82"/><rect class="cls-4" x="492.09" y="1045.63" width="47.35" height="8.82"/><rect class="cls-3" x="492.09" y="1054.41" width="47.35" height="8.82"/></g><g id="Layer_7" data-name="Layer 7"><polygon class="cls-15" points="141.01 3531.04 146.83 3548.95 152.65 3566.87 141.01 3566.87 129.38 3566.87 135.19 3548.95 141.01 3531.04"/><path class="cls-8" d="M188.22,3325.43v448.4H392.53v-448.4Zm36.39,30.5h40.76v59.78H224.61Zm0,82.81h40.76v59.78H224.61Zm0,82.81h40.76v59.78H224.61Zm0,82.81h40.76v59.78H224.61Zm41.93,151.86H219.19v-67.53h47.35Zm55.64-92.08H281.43v-59.78h40.75Zm0-82.81H281.43v-59.78h40.75Zm0-82.81H281.43v-59.78h40.75Zm0-82.81H281.43v-59.78h40.75ZM379,3664.14H338.24v-59.78H379Zm0-82.81H338.24v-59.78H379Zm0-82.81H338.24v-59.78H379Zm0-82.81H338.24v-59.78H379Z" transform="translate(-69.29 224.18)"/><path class="cls-11" d="M429.89,3409.64v364.11H634.21V3409.64Zm36.39,29H507v59.78H466.28Zm0,82.81H507v59.78H466.28Zm0,82.82H507v59.77H466.28Zm41.93,151.85H460.86v-67.53h47.35Zm55.64-92.08H523.1v-59.77h40.75Zm0-82.81H523.1v-59.78h40.75Zm0-82.81H523.1v-59.78h40.75Zm56.82,165.62H579.91v-59.77h40.76Zm0-82.81H579.91v-59.78h40.76Zm0-82.81H579.91v-59.78h40.76Z" transform="translate(-69.29 224.18)"/><rect class="cls-3" x="138.04" y="1230.19" width="38.96" height="8.82"/><rect class="cls-4" x="129.64" y="1239.01" width="40.12" height="8.82"/><rect class="cls-3" x="122.41" y="1247.79" width="39.31" height="8.82"/><circle class="cls-16" cx="141.01" cy="3532.34" r="6.09"/><circle class="cls-17" cx="163.7" cy="3502.6" r="3.1"/><polygon class="cls-18" points="164.09 3502.16 162.84 3505.99 161.58 3509.82 159.18 3507.7 156.78 3505.57 160.44 3503.86 164.09 3502.16"/><path class="cls-17" d="M251.47,3303.9a30.73,30.73,0,1,1-46-40.76" transform="translate(-69.29 224.18)"/><circle class="cls-17" cx="163.7" cy="3502.6" r="3.1"/><rect class="cls-18" x="280.16" y="3523.39" width="8.53" height="30.08"/><rect class="cls-18" x="296.7" y="3527.83" width="8.53" height="24.97"/><rect class="cls-19" x="279.41" y="3525.01" width="10.02" height="1.61"/><rect class="cls-19" x="279.41" y="3528.67" width="10.02" height="1.61"/><rect class="cls-19" x="295.95" y="3529.48" width="10.02" height="1.61"/><rect class="cls-19" x="295.95" y="3533.14" width="10.02" height="1.61"/><rect class="cls-7" x="221.19" y="3906.85" width="95.91" height="59.78"/><rect class="cls-19" x="217.42" y="3906.85" width="7.55" height="73.8"/><rect class="cls-19" x="315.69" y="3909.98" width="7.55" height="73.8"/><rect class="cls-19" x="266.55" y="3908.66" width="7.55" height="73.8"/><rect class="cls-19" x="217.42" y="3963.94" width="105.83" height="29.95"/><ellipse class="cls-13" cx="357" cy="3688.97" rx="25.05" ry="69.8" transform="translate(-3418.37 3882.8) rotate(-84)"/><rect class="cls-20" x="109.43" y="3884.85" width="39.43" height="3.47"/><rect class="cls-20" x="109.43" y="3856.69" width="39.43" height="3.47"/><rect class="cls-18" x="111.14" y="3860.16" width="2.12" height="24.69"/><rect class="cls-18" x="116.81" y="3860.16" width="2.12" height="24.69"/><rect class="cls-18" x="122.28" y="3860.16" width="2.12" height="24.69"/><rect class="cls-18" x="127.74" y="3860.16" width="2.12" height="24.69"/><rect class="cls-18" x="133.21" y="3860.16" width="2.12" height="24.69"/><rect class="cls-18" x="138.8" y="3860.16" width="2.12" height="24.69"/><rect class="cls-18" x="144.26" y="3860.16" width="2.12" height="24.69"/><rect class="cls-20" x="109.6" y="3802.04" width="39.43" height="3.47"/><rect class="cls-20" x="109.6" y="3773.88" width="39.43" height="3.47"/><rect class="cls-18" x="111.31" y="3777.35" width="2.12" height="24.69"/><rect class="cls-18" x="116.99" y="3777.35" width="2.12" height="24.69"/><rect class="cls-18" x="122.46" y="3777.35" width="2.12" height="24.69"/><rect class="cls-18" x="127.92" y="3777.35" width="2.12" height="24.69"/><rect class="cls-18" x="133.39" y="3777.35" width="2.12" height="24.69"/><rect class="cls-18" x="138.98" y="3777.35" width="2.12" height="24.69"/><rect class="cls-18" x="144.44" y="3777.35" width="2.12" height="24.69"/><rect class="cls-20" x="109.51" y="3719.23" width="39.43" height="3.47"/><rect class="cls-20" x="109.51" y="3691.07" width="39.43" height="3.47"/><rect class="cls-18" x="111.23" y="3694.54" width="2.12" height="24.69"/><rect class="cls-18" x="116.9" y="3694.54" width="2.12" height="24.69"/><rect class="cls-18" x="122.37" y="3694.54" width="2.12" height="24.69"/><rect class="cls-18" x="127.83" y="3694.54" width="2.12" height="24.69"/><rect class="cls-18" x="133.3" y="3694.54" width="2.12" height="24.69"/><rect class="cls-18" x="138.89" y="3694.54" width="2.12" height="24.69"/><rect class="cls-18" x="144.35" y="3694.54" width="2.12" height="24.69"/><rect class="cls-20" x="109.51" y="3636.42" width="39.43" height="3.47"/><rect class="cls-20" x="109.51" y="3608.26" width="39.43" height="3.47"/><rect class="cls-18" x="111.23" y="3611.73" width="2.12" height="24.69"/><rect class="cls-18" x="116.9" y="3611.73" width="2.12" height="24.69"/><rect class="cls-18" x="122.37" y="3611.73" width="2.12" height="24.69"/><rect class="cls-18" x="127.83" y="3611.73" width="2.12" height="24.69"/><rect class="cls-18" x="133.3" y="3611.73" width="2.12" height="24.69"/><rect class="cls-18" x="138.89" y="3611.73" width="2.12" height="24.69"/><rect class="cls-18" x="144.35" y="3611.73" width="2.12" height="24.69"/><rect class="cls-19" x="116.99" y="3639.88" width="208.2" height="6.48"/><rect class="cls-19" x="116.99" y="3722.69" width="208.2" height="6.48"/><rect class="cls-19" x="116.99" y="3805.5" width="208.2" height="6.48"/><rect class="cls-19" x="116.99" y="3888.32" width="208.2" height="6.48"/><rect class="cls-19" x="116.99" y="3549.6" width="208.2" height="6.34"/><path class="cls-21" d="M369.89,3707.33H345.6l-24.21-36.71h24Z" transform="translate(-69.29 224.18)"/><path class="cls-21" d="M416.64,3707.33H392.53l-23.94-36.71h24Q404.64,3689,416.64,3707.33Z" transform="translate(-69.29 224.18)"/><path class="cls-21" d="M322.18,3707.33H297.89l-24.21-36.71h24Z" transform="translate(-69.29 224.18)"/><rect class="cls-22" x="171.51" y="3980.39" width="25.74" height="26.43"/><rect class="cls-19" x="149.9" y="3980.39" width="38.96" height="8.82"/><rect class="cls-23" x="141.5" y="3989.22" width="40.12" height="8.82"/><rect class="cls-19" x="134.27" y="3998" width="39.31" height="8.82"/><rect class="cls-18" x="521.83" y="3606.44" width="8.53" height="30.08"/><rect class="cls-18" x="538.37" y="3610.88" width="8.53" height="24.97"/><rect class="cls-19" x="521.08" y="3608.06" width="10.02" height="1.61"/><rect class="cls-19" x="521.08" y="3611.72" width="10.02" height="1.61"/><rect class="cls-19" x="537.62" y="3612.52" width="10.02" height="1.61"/><rect class="cls-19" x="537.62" y="3616.18" width="10.02" height="1.61"/><rect class="cls-7" x="462.86" y="3906.77" width="95.91" height="59.78"/><rect class="cls-19" x="459.09" y="3906.77" width="7.55" height="73.8"/><rect class="cls-19" x="557.36" y="3909.91" width="7.55" height="73.8"/><rect class="cls-19" x="508.22" y="3908.58" width="7.55" height="73.8"/><rect class="cls-19" x="459.09" y="3963.86" width="105.83" height="29.95"/><ellipse class="cls-24" cx="598.67" cy="3688.9" rx="25.05" ry="69.8" transform="translate(-3201.87 4123.09) rotate(-84)"/><rect class="cls-20" x="351.1" y="3884.78" width="39.43" height="3.47"/><rect class="cls-20" x="351.1" y="3856.62" width="39.43" height="3.47"/><rect class="cls-18" x="352.81" y="3860.09" width="2.12" height="24.69"/><rect class="cls-18" x="358.48" y="3860.09" width="2.12" height="24.69"/><rect class="cls-18" x="363.95" y="3860.09" width="2.12" height="24.69"/><rect class="cls-18" x="369.41" y="3860.09" width="2.12" height="24.69"/><rect class="cls-18" x="374.88" y="3860.09" width="2.12" height="24.69"/><rect class="cls-18" x="380.47" y="3860.09" width="2.12" height="24.69"/><rect class="cls-18" x="385.93" y="3860.09" width="2.12" height="24.69"/><rect class="cls-20" x="351.28" y="3801.96" width="39.43" height="3.47"/><rect class="cls-20" x="351.28" y="3773.81" width="39.43" height="3.47"/><rect class="cls-18" x="352.99" y="3777.27" width="2.12" height="24.69"/><rect class="cls-18" x="358.66" y="3777.27" width="2.12" height="24.69"/><rect class="cls-18" x="364.13" y="3777.27" width="2.12" height="24.69"/><rect class="cls-18" x="369.59" y="3777.27" width="2.12" height="24.69"/><rect class="cls-18" x="375.06" y="3777.27" width="2.12" height="24.69"/><rect class="cls-18" x="380.65" y="3777.27" width="2.12" height="24.69"/><rect class="cls-18" x="386.11" y="3777.27" width="2.12" height="24.69"/><rect class="cls-20" x="351.19" y="3719.15" width="39.43" height="3.47"/><rect class="cls-20" x="351.19" y="3691" width="39.43" height="3.47"/><rect class="cls-18" x="352.9" y="3694.46" width="2.12" height="24.69"/><rect class="cls-18" x="358.57" y="3694.46" width="2.12" height="24.69"/><rect class="cls-18" x="364.04" y="3694.46" width="2.12" height="24.69"/><rect class="cls-18" x="369.5" y="3694.46" width="2.12" height="24.69"/><rect class="cls-18" x="374.97" y="3694.46" width="2.12" height="24.69"/><rect class="cls-18" x="380.56" y="3694.46" width="2.12" height="24.69"/><rect class="cls-18" x="386.02" y="3694.46" width="2.12" height="24.69"/><rect class="cls-19" x="358.66" y="3632.81" width="208.2" height="6.48"/><rect class="cls-19" x="358.66" y="3722.62" width="208.2" height="6.48"/><rect class="cls-19" x="358.66" y="3805.43" width="208.2" height="6.48"/><rect class="cls-19" x="358.66" y="3888.24" width="208.2" height="6.48"/><rect class="cls-19" x="358.66" y="3632.65" width="208.2" height="6.34"/><path class="cls-25" d="M611.56,3707.25H587.27l-24.21-36.71h24Z" transform="translate(-69.29 224.18)"/><path class="cls-25" d="M658.31,3707.25H634.2l-23.94-36.71h24Q646.3,3688.9,658.31,3707.25Z" transform="translate(-69.29 224.18)"/><path class="cls-25" d="M563.85,3707.25H539.56l-24.21-36.71h24Z" transform="translate(-69.29 224.18)"/><rect class="cls-22" x="413.18" y="3980.32" width="25.74" height="26.43"/><rect class="cls-19" x="391.57" y="3980.32" width="38.96" height="8.82"/><rect class="cls-23" x="383.17" y="3989.15" width="40.12" height="8.82"/><rect class="cls-19" x="375.94" y="3997.92" width="39.31" height="8.82"/><rect class="cls-11" x="344.97" y="813.3" width="341.65" height="114.86"/><polygon class="cls-12" points="429.92 797.85 468.47 864.63 507.02 931.4 429.92 931.4 352.81 931.4 391.36 864.63 429.92 797.85"/><rect class="cls-7" x="410.86" y="870.73" width="16.35" height="34.59"/><rect class="cls-7" x="432.62" y="870.73" width="16.35" height="34.59"/><polygon class="cls-12" points="601.61 797.85 640.16 864.63 678.72 931.4 601.61 931.4 524.51 931.4 563.06 864.63 601.61 797.85"/><rect class="cls-7" x="582.56" y="870.73" width="16.35" height="34.59"/><rect class="cls-7" x="604.32" y="870.73" width="16.35" height="34.59"/><rect class="cls-13" x="344.97" y="927.17" width="341.65" height="8.37"/><path class="cls-1" d="M378.83,2739.51v126.27H704.74V2739.51Zm69.27,81.78H407.34v-59.78H448.1Zm56.43,0H463.78v-59.78h40.75Zm60.93,26.86H518.11v-67.53h47.35Zm54.34-26.86H579v-59.78H619.8Zm56.43,0H635.47v-59.78h40.76Z" transform="translate(-69.29 224.18)"/><rect class="cls-3" x="448.82" y="3072.33" width="47.35" height="8.82"/><rect class="cls-4" x="448.82" y="3081.16" width="47.35" height="8.82"/><rect class="cls-3" x="448.82" y="3089.93" width="47.35" height="8.82"/><rect class="cls-11" x="301.7" y="2848.83" width="341.65" height="114.86"/><polygon class="cls-12" points="386.65 2833.38 425.2 2900.15 463.75 2966.93 386.65 2966.93 309.54 2966.93 348.1 2900.15 386.65 2833.38"/><rect class="cls-7" x="367.59" y="2906.26" width="16.35" height="34.59"/><rect class="cls-7" x="389.35" y="2906.26" width="16.35" height="34.59"/><polygon class="cls-12" points="558.34 2833.38 596.9 2900.15 635.45 2966.93 558.34 2966.93 481.24 2966.93 519.79 2900.15 558.34 2833.38"/><rect class="cls-7" x="539.29" y="2906.26" width="16.35" height="34.59"/><rect class="cls-7" x="561.05" y="2906.26" width="16.35" height="34.59"/><rect class="cls-13" x="301.7" y="2962.7" width="341.65" height="8.37"/><rect class="cls-3" x="510.91" y="3444.63" width="67.17" height="125.6"/><rect class="cls-7" x="528.38" y="3465.96" width="16.35" height="34.59"/><rect class="cls-7" x="550.14" y="3465.96" width="16.35" height="34.59"/><polygon class="cls-6" points="554.37 3377.47 582.69 3413.06 611.01 3448.66 554.37 3448.66 497.74 3448.66 526.05 3413.06 554.37 3377.47"/><path class="cls-1" d="M630.37,3224.49v126.27H868.58V3224.49Zm100.78,108.67H683.79v-67.53h47.36Zm59.54-26.9H749.94v-59.78h40.75Zm56.43,0H806.37v-59.78h40.75Z" transform="translate(-69.29 224.18)"/><rect class="cls-14" x="636.11" y="3557.34" width="25.74" height="26.43"/><rect class="cls-2" x="553.24" y="3333.81" width="253.89" height="114.86"/><polygon class="cls-5" points="638.18 3318.36 676.73 3385.13 715.28 3451.91 638.18 3451.91 561.08 3451.91 599.63 3385.13 638.18 3318.36"/><rect class="cls-6" x="553.24" y="3447.68" width="253.89" height="8.37"/><rect class="cls-6" x="745.58" y="3311.64" width="26.87" height="65.82"/><rect class="cls-2" x="742.89" y="3304.92" width="32.24" height="6.72"/><rect class="cls-7" x="619.12" y="3391.23" width="16.35" height="34.59"/><rect class="cls-7" x="640.88" y="3391.23" width="16.35" height="34.59"/><rect class="cls-3" x="614.5" y="3557.34" width="38.96" height="8.82"/><rect class="cls-4" x="606.11" y="3566.16" width="40.12" height="8.82"/><rect class="cls-3" x="598.87" y="3574.94" width="39.31" height="8.82"/></g><g id="Layer_17" data-name="Layer 17"><path class="cls-26" d="M172.18,709.49a99.66,99.66,0,0,0,29.73,26c15.22,8.68,28.59,10.86,40.2,12.75,0,0,23.09,3.75,42.41,0l.29-.06A104.28,104.28,0,0,0,309,740.11c10-4.76,42.51-23.12,54.61-58.75a78.19,78.19,0,0,0-3.17-58.18c-21.08-42.5-84.95-49-111.12-25.38-10.42,9.42-11.07,20.19-25.43,28-14.62,8-22.85,1.65-38.24,11.25-3,1.9-14.11,8.75-19.91,21.57C155.11,682.12,170.46,706.82,172.18,709.49Z" transform="translate(-69.29 224.18)"/></g><g id="Layer_19" data-name="Layer 19"><path class="cls-27" d="M292.87,657.6a5.26,5.26,0,0,1,1.87,4.14c0,1.87-1.25,3.06-2.1,4.37-3,4.57-5.74,9.9-4.59,15.21a8.66,8.66,0,0,0,1.28,3.09,9.92,9.92,0,0,0,2.15,2.14c4.68,3.55,11,4.31,16.88,3.89a36.21,36.21,0,0,0,16.2-4.76,22.52,22.52,0,0,0,10.22-12.94c.09-.33.11-.77-.21-.9a.65.65,0,0,0-.34,0c-1.5.28-2.38,1.83-3.71,2.57a5.57,5.57,0,0,1-4.59,0c-1.47-.57-2.79-1.47-4.23-2.09-3.29-1.43-7-1.39-10.6-1a54.57,54.57,0,0,0-9.55,2,5.27,5.27,0,0,1-2,.33c-1.63-.19-2.6-2-2.51-3.64a15,15,0,0,1,1.54-4.58,17.69,17.69,0,0,0,.54-11.75,8.06,8.06,0,0,0-2.78-4.65,6.82,6.82,0,0,0-6.33-.89c-.23.09-3.8,1.5-3.92,4.41a4.43,4.43,0,0,0,1.6,3.47C289.47,657.44,291.06,656.21,292.87,657.6Z" transform="translate(-69.29 224.18)"/><path class="cls-27" d="M292.07,658.39a4.24,4.24,0,0,1,1.55,3.35c-.06,1.49-1.17,2.63-1.95,3.8a31.94,31.94,0,0,0-4.3,8.65,13.9,13.9,0,0,0,.2,9.31c1.2,2.8,3.88,4.71,6.58,5.94,5.53,2.54,11.86,2.58,17.78,1.73a32.45,32.45,0,0,0,17-7.33,23.47,23.47,0,0,0,5.29-6.64c.72-1.38,3.22-5.84.5-6.46-1.13-.26-2.28.61-3.07,1.29-1.37,1.17-2.37,2-4.28,1.61a19,19,0,0,1-4.33-2,16.08,16.08,0,0,0-4.74-1.5,31.81,31.81,0,0,0-9.34.3q-2.54.39-5,1c-.75.19-1.5.39-2.25.61s-1.93.77-2.73.08c-1-.89-.84-2.44-.47-3.58.54-1.7,1.43-3.24,1.89-5a19,19,0,0,0,0-9.81c-.83-3-2.26-5.65-5.35-6.75a7.94,7.94,0,0,0-6.75.72c-2,1.23-3.62,3.29-3.18,5.79a5.47,5.47,0,0,0,2.45,3.69c1.51.91,3.34.36,4.79,1.33,1.2.81,2.33-1.14,1.13-2s-2.34-.77-3.73-1a3,3,0,0,1-2.47-3.11c.1-1.6,1.94-2.85,3-3.28a5.57,5.57,0,0,1,6.93,2.36,15.79,15.79,0,0,1,1.55,8.64,16.88,16.88,0,0,1-1.11,4.65,21.38,21.38,0,0,0-1.58,4.35c-.34,2.16.63,4.79,2.93,5.4,1.36.36,2.74-.23,4-.59q2.48-.69,5-1.15a32.69,32.69,0,0,1,9.41-.61,14.2,14.2,0,0,1,4.93,1.51,19.12,19.12,0,0,0,4.48,2,6.17,6.17,0,0,0,4.31-.44c1.05-.58,2.23-2.43,3.49-2.4l-.79-.33-.08-.2c-.07.25-.14.49-.22.73s-.15.49-.24.72a16.54,16.54,0,0,1-.79,1.83,20.36,20.36,0,0,1-2,3.24,23.2,23.2,0,0,1-5.48,5.12,33.71,33.71,0,0,1-16.17,5.2c-5.22.42-10.86,0-15.43-2.8a8.44,8.44,0,0,1-4.43-7.09,17,17,0,0,1,2.17-8.45,40.32,40.32,0,0,1,2.51-4.26,15.28,15.28,0,0,0,1.94-3.19,6.29,6.29,0,0,0-1.89-6.69C292.56,655.88,291,657.46,292.07,658.39Z" transform="translate(-69.29 224.18)"/><path class="cls-28" d="M314.63,658.84" transform="translate(-69.29 224.18)"/><path class="cls-28" d="M312.38,650" transform="translate(-69.29 224.18)"/><path class="cls-28" d="M372.12,724.57" transform="translate(-69.29 224.18)"/></g><g id="Layer_21" data-name="Layer 21"><path class="cls-18" d="M302,672.76a5.23,5.23,0,0,0-5.57,3.16c-1,2.37,0,4.87,1.72,6.64a12.59,12.59,0,0,0,7.09,3.55c.83.12,2,.4,2.59-.42s.06-2.24-.4-3l-1,1a16.71,16.71,0,0,0,6.68,2c2,.14,2.76-1.09,2.09-2.9l-1.1.84c1.94,1.36,4.59,2.37,7,1.78,2.76-.69.74-3.15-.59-4.33-.71-.64-1.78.42-1.06,1.06.26.22,1.62,1.44,1.46,1.72s-1.47.22-1.83.18a9.07,9.07,0,0,1-4.19-1.7.75.75,0,0,0-1.1.84c.59,1.63-2,.87-2.85.66a16,16,0,0,1-3.72-1.44.75.75,0,0,0-1,1c.12.2.67,1.21.43,1.43.09-.08-1.35-.26-1.13-.22a11.77,11.77,0,0,1-2.24-.6,10.47,10.47,0,0,1-4.25-2.83,4.63,4.63,0,0,1-1.2-4.54,3.81,3.81,0,0,1,4.26-2.4c.95.12.94-1.38,0-1.5Z" transform="translate(-69.29 224.18)"/></g><g id="Layer_25" data-name="Layer 25"><path class="cls-11" d="M322.12,684.19a2.09,2.09,0,0,0-2.66.93,2,2,0,0,0,.71,2c.43.35.8.28,1.13.75a1.58,1.58,0,0,1,.27,1,5.53,5.53,0,0,1-.44,1,3.38,3.38,0,0,0,0,3c.73,1.36,2.44,1.88,4,1.92a7.83,7.83,0,0,0,4.58-1.2,5.12,5.12,0,0,0,2.33-4c-.7-.39-1.42.86-2.2.64a1.35,1.35,0,0,1-.49-.31,5.31,5.31,0,0,0-6.35-.08,9.63,9.63,0,0,1,.07-2.12c.16-1.09.41-1.48.21-2.12A2.21,2.21,0,0,0,322.12,684.19Z" transform="translate(-69.29 224.18)"/><path class="cls-11" d="M322.32,683.47c-1.67-.61-4,.48-3.63,2.48a2.88,2.88,0,0,0,1.7,2.11.64.64,0,0,1,.34.88,8.08,8.08,0,0,0-.62,1.66,4,4,0,0,0,2.75,4.45,8.59,8.59,0,0,0,6-.27,6.13,6.13,0,0,0,3.89-5.28.72.72,0,0,0-.37-.65,1.58,1.58,0,0,0-1.17-.09c-.38.13-.66.44-1,.58s-.59-.25-.93-.47a6,6,0,0,0-1.23-.57,6.06,6.06,0,0,0-5.44.81l1.13.64a9.59,9.59,0,0,1,.08-2.14,9.08,9.08,0,0,0,.27-1.71,2.85,2.85,0,0,0-1.59-2.35c-.87-.42-1.63.88-.76,1.29a1.28,1.28,0,0,1,.81,1.5,14,14,0,0,0-.31,3.41c0,.51.63,1,1.13.65a4.63,4.63,0,0,1,4.61-.53c.71.32,1.28,1.07,2.11,1a2.11,2.11,0,0,0,1-.35l.37-.23c.15-.1.37-.11.19-.18l-.37-.65a4.84,4.84,0,0,1-3.87,4.21c-1.6.42-4.08.51-5.3-.85a2.54,2.54,0,0,1-.23-2.86,2.36,2.36,0,0,0,.06-2.55c-.47-.74-1.71-.79-1.79-1.81s1.19-.93,1.77-.72C322.83,685.25,323.22,683.8,322.32,683.47Z" transform="translate(-69.29 224.18)"/></g><g id="Layer_18" data-name="Layer 18"><path class="cls-25" d="M198.56,666.49c2.32-2.5,5.91-5.46,9.4-3.3,1.24.76,2.23,1.87,3.48,2.62a6.74,6.74,0,0,0,4.54.9,7.85,7.85,0,0,0,3.93-2.06c1-.83,1.85-1.93,3.1-2.32,2.81-.87,4.74,2.52,6.94,3.61,4.34,2.14,8.77-.53,11.86-3.56,1.39-1.35-.74-3.47-2.12-2.12-2.53,2.48-6.18,4.88-9.48,2.3a21.71,21.71,0,0,0-3.45-2.68,6.3,6.3,0,0,0-4.55-.44,9.67,9.67,0,0,0-3.63,2.36,6,6,0,0,1-3.31,2,4.91,4.91,0,0,1-3.57-1.5,13,13,0,0,0-3.77-2.45c-4.4-1.6-8.63,1.44-11.49,4.52-1.31,1.42.8,3.54,2.12,2.12Z" transform="translate(-69.29 224.18)"/><path class="cls-25" d="M198.56,676c2.32-2.5,5.91-5.46,9.4-3.31,1.24.77,2.23,1.87,3.48,2.63a6.74,6.74,0,0,0,4.54.9,7.93,7.93,0,0,0,3.93-2.06c1-.83,1.85-1.94,3.1-2.32,2.81-.87,4.74,2.52,6.94,3.61,4.34,2.14,8.77-.54,11.86-3.56,1.39-1.36-.74-3.48-2.12-2.12-2.53,2.47-6.18,4.88-9.48,2.3a21.71,21.71,0,0,0-3.45-2.68,6.25,6.25,0,0,0-4.55-.45,9.69,9.69,0,0,0-3.63,2.37,6,6,0,0,1-3.31,2,4.91,4.91,0,0,1-3.57-1.5,13.2,13.2,0,0,0-3.77-2.44c-4.4-1.6-8.63,1.44-11.49,4.52-1.31,1.41.8,3.54,2.12,2.12Z" transform="translate(-69.29 224.18)"/><path class="cls-25" d="M269.14,623c2.32-2.5,5.91-5.46,9.4-3.3,1.23.76,2.23,1.87,3.48,2.62a6.73,6.73,0,0,0,4.53.9,7.77,7.77,0,0,0,3.93-2.06c1-.83,1.86-1.93,3.11-2.32,2.8-.87,4.73,2.53,6.94,3.61,4.34,2.14,8.77-.53,11.86-3.56,1.38-1.35-.74-3.47-2.12-2.12-2.53,2.48-6.19,4.88-9.48,2.3a21.71,21.71,0,0,0-3.45-2.68,6.3,6.3,0,0,0-4.55-.44,9.59,9.59,0,0,0-3.63,2.36,6,6,0,0,1-3.31,2,5,5,0,0,1-3.58-1.5,13.11,13.11,0,0,0-3.76-2.45c-4.41-1.6-8.64,1.44-11.5,4.52-1.31,1.42.81,3.54,2.13,2.12Z" transform="translate(-69.29 224.18)"/><path class="cls-25" d="M269.14,632.48c2.32-2.5,5.91-5.46,9.4-3.3,1.23.76,2.23,1.86,3.48,2.62a6.73,6.73,0,0,0,4.53.9,7.84,7.84,0,0,0,3.93-2.06c1-.83,1.86-1.94,3.11-2.32,2.8-.87,4.73,2.52,6.94,3.61,4.34,2.14,8.77-.53,11.86-3.56,1.38-1.35-.74-3.48-2.12-2.12-2.53,2.47-6.19,4.88-9.48,2.3a21.71,21.71,0,0,0-3.45-2.68,6.25,6.25,0,0,0-4.55-.45,9.61,9.61,0,0,0-3.63,2.37,5.93,5.93,0,0,1-3.31,2,4.91,4.91,0,0,1-3.58-1.5,13.29,13.29,0,0,0-3.76-2.44c-4.41-1.6-8.64,1.44-11.5,4.52-1.31,1.41.81,3.54,2.13,2.12Z" transform="translate(-69.29 224.18)"/><path class="cls-25" d="M239.73,708.8c2.32-2.51,5.91-5.47,9.4-3.31,1.24.77,2.23,1.87,3.48,2.62a6.75,6.75,0,0,0,4.54.91,8,8,0,0,0,3.93-2.06c.95-.83,1.85-1.94,3.1-2.33,2.81-.87,4.74,2.53,6.95,3.61,4.34,2.14,8.76-.53,11.86-3.56,1.38-1.35-.74-3.47-2.13-2.12-2.53,2.48-6.18,4.88-9.48,2.3a20.84,20.84,0,0,0-3.45-2.68,6.29,6.29,0,0,0-4.55-.44,9.58,9.58,0,0,0-3.62,2.37,6.1,6.1,0,0,1-3.32,2,4.91,4.91,0,0,1-3.57-1.5,13,13,0,0,0-3.77-2.44c-4.4-1.61-8.63,1.43-11.49,4.51-1.31,1.42.8,3.55,2.12,2.13Z" transform="translate(-69.29 224.18)"/><path class="cls-25" d="M239.73,718.32c2.32-2.5,5.91-5.46,9.4-3.3,1.24.76,2.23,1.87,3.48,2.62a6.74,6.74,0,0,0,4.54.9,7.85,7.85,0,0,0,3.93-2.06c.95-.83,1.85-1.93,3.1-2.32,2.81-.87,4.74,2.53,6.95,3.61,4.34,2.14,8.76-.53,11.86-3.56,1.38-1.35-.74-3.47-2.13-2.12-2.53,2.48-6.18,4.88-9.48,2.3a20.84,20.84,0,0,0-3.45-2.68,6.29,6.29,0,0,0-4.55-.44,9.55,9.55,0,0,0-3.62,2.36,6.06,6.06,0,0,1-3.32,2,4.91,4.91,0,0,1-3.57-1.5,13,13,0,0,0-3.77-2.45c-4.4-1.6-8.63,1.44-11.49,4.52-1.31,1.42.8,3.54,2.12,2.12Z" transform="translate(-69.29 224.18)"/></g><g id="Layer_23" data-name="Layer 23"><path class="cls-13" d="M285,652.42a1.54,1.54,0,0,0,1.3.61c.54,0,1.07-.29,1.59-.14a1.76,1.76,0,0,1,.88.78l1,1.47a1.09,1.09,0,0,1,.19.35c.1.41-.3.76-.7,1a12.24,12.24,0,0,1-2.09.71c-2,.59-3.9,1.49-5.86,2.22a2.44,2.44,0,0,1-1,.21c-.35,0-.72-.27-.74-.58s.3-.57.59-.76c1.51-1,3.09-2.06,3.69-3.63.29-.78.36-1.69,1-2.25" transform="translate(-69.29 224.18)"/><path class="cls-13" d="M284.77,652.69a2,2,0,0,0,1.75.71,3.65,3.65,0,0,1,1.31-.15c.41.12.66.61.88.94s.56.75.8,1.14c.11.19.2.31,0,.51a1.84,1.84,0,0,1-.57.38,26,26,0,0,1-2.59.82c-1.74.57-3.39,1.36-5.11,2-.21.07-1.53.46-1.18-.23.14-.27.73-.5,1-.67a13.45,13.45,0,0,0,1.75-1.36,5.57,5.57,0,0,0,1.36-1.9c.31-.76.37-1.65,1-2.23.35-.32-.18-.85-.53-.53a4.94,4.94,0,0,0-1.09,2.28,5.25,5.25,0,0,1-1.64,2.17,14.3,14.3,0,0,1-1.17.88,9.14,9.14,0,0,0-1.2.83.94.94,0,0,0,.38,1.61c1,.35,2.13-.35,3-.7,1-.42,2.05-.85,3.09-1.22s2.15-.59,3.16-1c.65-.29,1.47-.84,1.15-1.67a7,7,0,0,0-1-1.46,3.61,3.61,0,0,0-1-1.12c-1-.62-2.25.51-3.09-.53-.3-.38-.83.15-.53.53Z" transform="translate(-69.29 224.18)"/><path class="cls-13" d="M319,685.34a16,16,0,0,0-2.45.61,6.09,6.09,0,0,0,2.51.69.18.18,0,0,0,.13,0,.15.15,0,0,0,0-.11,2.85,2.85,0,0,0-.09-1.09" transform="translate(-69.29 224.18)"/><path class="cls-13" d="M318.94,685a17,17,0,0,0-2.46.6.38.38,0,0,0-.09.69,7.76,7.76,0,0,0,2.23.72,2.53,2.53,0,0,0,.55,0,.54.54,0,0,0,.47-.52,3.39,3.39,0,0,0-.1-1.19.38.38,0,0,0-.46-.27.4.4,0,0,0-.27.47,2,2,0,0,1,.09.49,2.09,2.09,0,0,1,0,.25v.15s0,.06,0,0l.13-.13h-.19l-.24,0a4.58,4.58,0,0,1-.64-.15,12.26,12.26,0,0,1-1.19-.47l-.09.69a16,16,0,0,1,2.45-.61.38.38,0,0,0,.27-.46.39.39,0,0,0-.46-.26Z" transform="translate(-69.29 224.18)"/><rect class="cls-16" x="741.84" y="1767.89" width="61.32" height="14.46" rx="3.22"/></g><g id="Layer_27" data-name="Layer 27"><path class="cls-29" d="M975.53,1555H796.12a14.36,14.36,0,0,0-14.36,14.36v71.77a14.36,14.36,0,0,0,14.36,14.36H975.53a14.36,14.36,0,0,0,14.36-14.36v-71.77A14.36,14.36,0,0,0,975.53,1555Zm-51.25,91.64H876.93V1579.1h47.35Z" transform="translate(-69.29 224.18)"/><path class="cls-29" d="M990.32,1651.92l21.26-42.92-22.77-44.39q-9.27,43.65-18.53,87.31Z" transform="translate(-69.29 224.18)"/><path class="cls-20" d="M918.64,867.39" transform="translate(-69.29 224.18)"/><rect class="cls-30" x="728.87" y="1798.67" width="67.53" height="40.18" rx="2.98"/><rect class="cls-30" x="878.29" y="1803.28" width="16.35" height="26.94" rx="1.6"/><rect class="cls-30" x="900.05" y="1803.28" width="16.35" height="26.94" rx="1.6"/></g><g id="Layer_26" data-name="Layer 26"><rect class="cls-29" x="712.47" y="1836.04" width="92.62" height="43.63"/><rect class="cls-20" x="712.47" y="1844.54" width="95.16" height="2.04"/><rect class="cls-20" x="712.47" y="1853.36" width="95.16" height="2.04"/><rect class="cls-20" x="854.99" y="1844.54" width="47.58" height="2.04"/><rect class="cls-20" x="854.99" y="1853.36" width="47.58" height="2.04"/></g><g id="Layer_24" data-name="Layer 24"><path class="cls-31" d="M292.38,653.16a1.13,1.13,0,0,0,0-2.25,1.13,1.13,0,0,0,0,2.25Z" transform="translate(-69.29 224.18)"/><path class="cls-31" d="M321,685.88a.38.38,0,0,0,0-.75.38.38,0,0,0,0,.75Z" transform="translate(-69.29 224.18)"/><path class="cls-13" d="M323.37,689.47a5.1,5.1,0,0,0,1,1.68A3.19,3.19,0,0,0,326,692a6.62,6.62,0,0,0,2.22,0,1.44,1.44,0,0,0,.82-.32.83.83,0,0,0,.22-.88c-.17-.44-.89-.25-.72.2s-.95.33-1.1.34a4.49,4.49,0,0,1-1.55-.13,2.29,2.29,0,0,1-1.1-.67,4.17,4.17,0,0,1-.68-1.26.38.38,0,1,0-.73.2Z" transform="translate(-69.29 224.18)"/><path class="cls-20" d="M833.17,1664.12" transform="translate(-69.29 224.18)"/><rect class="cls-16" x="689.58" y="1806" width="22.89" height="50.78" rx="4.59"/><rect class="cls-16" x="712.47" y="1876.09" width="208.52" height="4.42"/><path class="cls-26" d="M433.49,3056.23a99.94,99.94,0,0,0,29.73,26c15.22,8.67,28.59,10.85,40.2,12.74,0,0,23.09,3.75,42.41,0l.29-.06a104.28,104.28,0,0,0,24.18-8.07c10-4.76,42.51-23.11,54.61-58.75a78.19,78.19,0,0,0-3.17-58.18c-21.08-42.49-85-49-111.12-25.37-10.42,9.42-11.07,20.19-25.43,28-14.62,8-22.85,1.66-38.24,11.25-3.05,1.91-14.11,8.75-19.91,21.58C416.42,3028.85,431.77,3053.55,433.49,3056.23Z" transform="translate(-69.29 224.18)"/><path class="cls-27" d="M554.18,3004.33a5.26,5.26,0,0,1,1.87,4.14c0,1.87-1.25,3.06-2.1,4.37-3,4.57-5.74,9.9-4.59,15.22a8.61,8.61,0,0,0,1.28,3.08,9.7,9.7,0,0,0,2.15,2.14c4.68,3.55,11,4.31,16.88,3.89a36.08,36.08,0,0,0,16.2-4.76,22.52,22.52,0,0,0,10.22-12.94c.09-.32.11-.77-.21-.89a.56.56,0,0,0-.34,0c-1.5.27-2.38,1.82-3.71,2.56a5.53,5.53,0,0,1-4.59,0c-1.47-.57-2.79-1.46-4.23-2.09-3.29-1.43-7-1.38-10.6-1a55.5,55.5,0,0,0-9.55,2,4.9,4.9,0,0,1-2,.33c-1.63-.19-2.6-2-2.51-3.64a15.11,15.11,0,0,1,1.54-4.58,17.67,17.67,0,0,0,.54-11.74,8.05,8.05,0,0,0-2.78-4.66,6.82,6.82,0,0,0-6.33-.88c-.23.08-3.8,1.5-3.92,4.41a4.43,4.43,0,0,0,1.6,3.46C550.78,3004.17,552.37,3003,554.18,3004.33Z" transform="translate(-69.29 224.18)"/><path class="cls-27" d="M553.38,3005.12a4.25,4.25,0,0,1,1.55,3.35c-.06,1.49-1.17,2.63-1.95,3.81a31.88,31.88,0,0,0-4.3,8.64,13.9,13.9,0,0,0,.2,9.31c1.2,2.8,3.88,4.71,6.58,5.95,5.53,2.53,11.86,2.58,17.77,1.73a32.54,32.54,0,0,0,17-7.34,23.47,23.47,0,0,0,5.29-6.64c.72-1.38,3.22-5.84.5-6.46-1.13-.26-2.28.61-3.07,1.29-1.37,1.17-2.37,2-4.28,1.61a19,19,0,0,1-4.33-2,16.06,16.06,0,0,0-4.74-1.49,31.14,31.14,0,0,0-9.34.3,50.64,50.64,0,0,0-5,1c-.75.18-1.5.39-2.25.6s-1.93.77-2.73.08c-1-.88-.84-2.44-.47-3.58.54-1.7,1.43-3.24,1.89-5a19,19,0,0,0,0-9.82c-.83-3-2.26-5.64-5.35-6.75a7.94,7.94,0,0,0-6.75.72c-2,1.23-3.62,3.29-3.18,5.79a5.47,5.47,0,0,0,2.45,3.69c1.51.91,3.34.36,4.79,1.33,1.2.81,2.33-1.14,1.13-1.94s-2.34-.78-3.73-1a3,3,0,0,1-2.47-3.11c.1-1.61,1.94-2.86,3-3.29a5.57,5.57,0,0,1,6.93,2.37A15.76,15.76,0,0,1,560,3007a17,17,0,0,1-1.11,4.66,21.08,21.08,0,0,0-1.58,4.34c-.34,2.16.63,4.79,2.93,5.4,1.36.37,2.74-.23,4-.59q2.47-.69,5-1.15a32.34,32.34,0,0,1,9.41-.6,14,14,0,0,1,4.93,1.5,19.12,19.12,0,0,0,4.48,2,6.11,6.11,0,0,0,4.31-.44c1.05-.58,2.23-2.43,3.49-2.4l-.79-.33-.08-.2c-.07.25-.14.49-.22.74s-.15.48-.24.72a17.24,17.24,0,0,1-.79,1.82,20.36,20.36,0,0,1-2,3.24,23,23,0,0,1-5.48,5.12,33.71,33.71,0,0,1-16.17,5.2c-5.22.42-10.86,0-15.43-2.8a8.44,8.44,0,0,1-4.43-7.09,17.08,17.08,0,0,1,2.17-8.45,41.36,41.36,0,0,1,2.51-4.26,15.28,15.28,0,0,0,1.94-3.19,6.3,6.3,0,0,0-1.89-6.69C553.87,3002.61,552.27,3004.19,553.38,3005.12Z" transform="translate(-69.29 224.18)"/><path class="cls-28" d="M575.94,3005.58" transform="translate(-69.29 224.18)"/><path class="cls-28" d="M573.69,2996.71" transform="translate(-69.29 224.18)"/><path class="cls-28" d="M633.43,3071.3" transform="translate(-69.29 224.18)"/><path class="cls-18" d="M563.26,3019.49a5.23,5.23,0,0,0-5.57,3.16c-1,2.38,0,4.87,1.72,6.64a12.53,12.53,0,0,0,7.09,3.55c.83.13,2,.41,2.59-.42s.06-2.24-.4-3l-1,1a16.54,16.54,0,0,0,6.68,2c1.95.14,2.76-1.09,2.09-2.9l-1.1.85c1.94,1.36,4.58,2.36,7,1.77,2.76-.69.74-3.15-.59-4.33-.72-.64-1.78.42-1.06,1.06.26.23,1.62,1.44,1.46,1.72s-1.47.22-1.83.18a9.07,9.07,0,0,1-4.19-1.7.76.76,0,0,0-1.1.85c.59,1.63-2,.86-2.85.65a15.17,15.17,0,0,1-3.72-1.44.76.76,0,0,0-1,1c.12.2.67,1.21.43,1.42.09-.08-1.35-.25-1.13-.22a11.74,11.74,0,0,1-2.24-.59,10.47,10.47,0,0,1-4.25-2.83,4.66,4.66,0,0,1-1.2-4.55,3.81,3.81,0,0,1,4.26-2.4c1,.13.94-1.38,0-1.5Z" transform="translate(-69.29 224.18)"/><path class="cls-11" d="M583.43,3030.93a2.08,2.08,0,0,0-2.66.93,2,2,0,0,0,.71,2c.43.35.8.28,1.13.74a1.61,1.61,0,0,1,.27,1,5.24,5.24,0,0,1-.44,1,3.38,3.38,0,0,0,0,3c.73,1.36,2.44,1.88,4,1.92a7.82,7.82,0,0,0,4.58-1.19,5.12,5.12,0,0,0,2.33-4c-.7-.39-1.42.86-2.2.65a1.69,1.69,0,0,1-.49-.31,5.3,5.3,0,0,0-6.35-.08,9.7,9.7,0,0,1,.07-2.13c.16-1.08.41-1.47.21-2.12A2.18,2.18,0,0,0,583.43,3030.93Z" transform="translate(-69.29 224.18)"/><path class="cls-11" d="M583.63,3030.2c-1.67-.61-4,.48-3.63,2.48a2.88,2.88,0,0,0,1.7,2.11.64.64,0,0,1,.34.88,8.08,8.08,0,0,0-.62,1.66,3.94,3.94,0,0,0,2.75,4.45,8.53,8.53,0,0,0,6-.27,6.12,6.12,0,0,0,3.89-5.28.71.71,0,0,0-.37-.64,1.49,1.49,0,0,0-1.17-.09c-.38.12-.66.43-1,.57s-.59-.25-.93-.46a5.54,5.54,0,0,0-1.23-.58,6.06,6.06,0,0,0-5.44.81l1.13.65a9.66,9.66,0,0,1,.08-2.15,9,9,0,0,0,.27-1.71,2.85,2.85,0,0,0-1.59-2.35c-.87-.41-1.63.88-.76,1.29a1.29,1.29,0,0,1,.81,1.51,13.93,13.93,0,0,0-.31,3.41c0,.51.63,1,1.13.64a4.63,4.63,0,0,1,4.61-.52c.71.31,1.28,1.07,2.11,1a2.24,2.24,0,0,0,1-.36c.13-.07.25-.16.37-.23s.37-.1.19-.18l-.37-.65a4.84,4.84,0,0,1-3.87,4.21c-1.6.42-4.08.51-5.3-.85a2.53,2.53,0,0,1-.23-2.86,2.36,2.36,0,0,0,.06-2.55c-.47-.73-1.71-.79-1.79-1.81s1.19-.93,1.77-.72C584.14,3032,584.53,3030.53,583.63,3030.2Z" transform="translate(-69.29 224.18)"/><path class="cls-25" d="M459.87,3013.23c2.32-2.51,5.91-5.47,9.4-3.31,1.24.77,2.23,1.87,3.48,2.62a6.75,6.75,0,0,0,4.54.91,8,8,0,0,0,3.93-2.06c.95-.83,1.85-1.94,3.1-2.33,2.81-.87,4.74,2.53,6.94,3.61,4.34,2.14,8.77-.53,11.86-3.56,1.39-1.35-.74-3.47-2.12-2.12-2.53,2.48-6.18,4.88-9.48,2.3a21.71,21.71,0,0,0-3.45-2.68,6.3,6.3,0,0,0-4.55-.44,9.69,9.69,0,0,0-3.63,2.37,6,6,0,0,1-3.31,2A4.91,4.91,0,0,1,473,3009a13,13,0,0,0-3.77-2.44c-4.41-1.61-8.63,1.43-11.49,4.51-1.31,1.42.8,3.54,2.12,2.13Z" transform="translate(-69.29 224.18)"/><path class="cls-25" d="M459.87,3022.75c2.32-2.5,5.91-5.46,9.4-3.3,1.24.76,2.23,1.87,3.48,2.62a6.74,6.74,0,0,0,4.54.9,7.85,7.85,0,0,0,3.93-2.06c.95-.83,1.85-1.93,3.1-2.32,2.81-.87,4.74,2.52,6.94,3.61,4.34,2.14,8.77-.53,11.86-3.56,1.39-1.35-.74-3.47-2.12-2.12-2.53,2.47-6.18,4.88-9.48,2.3a21.71,21.71,0,0,0-3.45-2.68,6.3,6.3,0,0,0-4.55-.44,9.67,9.67,0,0,0-3.63,2.36,6,6,0,0,1-3.31,2,4.91,4.91,0,0,1-3.57-1.5,13,13,0,0,0-3.77-2.45c-4.41-1.6-8.63,1.44-11.49,4.52-1.31,1.42.8,3.54,2.12,2.12Z" transform="translate(-69.29 224.18)"/><path class="cls-25" d="M530.45,2969.69c2.32-2.51,5.91-5.47,9.4-3.31,1.23.77,2.23,1.87,3.48,2.62a6.73,6.73,0,0,0,4.53.91,7.92,7.92,0,0,0,3.93-2.06c1-.83,1.86-1.94,3.11-2.33,2.8-.87,4.73,2.53,6.94,3.62,4.34,2.13,8.77-.54,11.86-3.57,1.38-1.35-.74-3.47-2.12-2.12-2.53,2.48-6.19,4.88-9.48,2.3a21.71,21.71,0,0,0-3.45-2.68,6.3,6.3,0,0,0-4.55-.44,9.61,9.61,0,0,0-3.63,2.37,6,6,0,0,1-3.31,2,5,5,0,0,1-3.58-1.5,13.07,13.07,0,0,0-3.76-2.44c-4.41-1.61-8.64,1.43-11.5,4.52-1.31,1.41.81,3.54,2.13,2.12Z" transform="translate(-69.29 224.18)"/><path class="cls-25" d="M530.45,2979.21c2.32-2.5,5.91-5.46,9.4-3.3,1.23.76,2.23,1.87,3.48,2.62a6.73,6.73,0,0,0,4.53.9,7.77,7.77,0,0,0,3.93-2.06c1-.83,1.86-1.93,3.11-2.32,2.8-.87,4.73,2.53,6.94,3.61,4.34,2.14,8.77-.53,11.86-3.56,1.38-1.35-.74-3.47-2.12-2.12-2.53,2.48-6.19,4.88-9.48,2.3a21.71,21.71,0,0,0-3.45-2.68,6.3,6.3,0,0,0-4.55-.44,9.59,9.59,0,0,0-3.63,2.36,6,6,0,0,1-3.31,2,5,5,0,0,1-3.58-1.5,13.11,13.11,0,0,0-3.76-2.45c-4.41-1.6-8.64,1.44-11.5,4.52-1.31,1.42.81,3.54,2.13,2.12Z" transform="translate(-69.29 224.18)"/><path class="cls-25" d="M501,3055.53c2.32-2.51,5.91-5.47,9.4-3.31,1.24.77,2.23,1.87,3.48,2.62a6.69,6.69,0,0,0,4.54.91,8,8,0,0,0,3.93-2.06c1-.83,1.85-1.94,3.1-2.33,2.81-.86,4.74,2.53,7,3.62,4.34,2.13,8.76-.54,11.86-3.57,1.38-1.35-.74-3.47-2.13-2.12-2.53,2.48-6.18,4.88-9.48,2.3a20.78,20.78,0,0,0-3.45-2.67,6.24,6.24,0,0,0-4.55-.45,9.58,9.58,0,0,0-3.62,2.37,6,6,0,0,1-3.32,2,4.91,4.91,0,0,1-3.57-1.5,13,13,0,0,0-3.77-2.44c-4.4-1.61-8.63,1.44-11.49,4.52-1.31,1.41.8,3.54,2.12,2.12Z" transform="translate(-69.29 224.18)"/><path class="cls-25" d="M501,3065.06c2.32-2.51,5.91-5.47,9.4-3.31,1.24.77,2.23,1.87,3.48,2.62a6.75,6.75,0,0,0,4.54.91,8,8,0,0,0,3.93-2.06c1-.83,1.85-1.94,3.1-2.33,2.81-.87,4.74,2.53,7,3.61,4.34,2.14,8.76-.53,11.86-3.56,1.38-1.35-.74-3.47-2.13-2.12-2.53,2.48-6.18,4.88-9.48,2.3a20.84,20.84,0,0,0-3.45-2.68,6.29,6.29,0,0,0-4.55-.44,9.58,9.58,0,0,0-3.62,2.37,6.1,6.1,0,0,1-3.32,2,4.91,4.91,0,0,1-3.57-1.5,13,13,0,0,0-3.77-2.44c-4.4-1.61-8.63,1.43-11.49,4.51-1.31,1.42.8,3.54,2.12,2.13Z" transform="translate(-69.29 224.18)"/><path class="cls-13" d="M546.35,2999.15a1.58,1.58,0,0,0,1.3.62c.54,0,1.07-.3,1.59-.15a1.74,1.74,0,0,1,.88.79l1,1.46a1.14,1.14,0,0,1,.19.36c.1.4-.3.76-.7,1a12.24,12.24,0,0,1-2.09.71c-2,.59-3.9,1.49-5.86,2.22a2.44,2.44,0,0,1-1,.21c-.35,0-.72-.27-.74-.58s.3-.57.59-.76c1.51-1,3.09-2.06,3.69-3.63.29-.78.36-1.69,1-2.25" transform="translate(-69.29 224.18)"/><path class="cls-13" d="M546.08,2999.42a2,2,0,0,0,1.75.71,3.65,3.65,0,0,1,1.31-.15c.41.13.66.61.88.94s.56.75.8,1.14c.11.19.2.31,0,.51a1.54,1.54,0,0,1-.57.38,23.59,23.59,0,0,1-2.59.82c-1.74.58-3.39,1.36-5.11,2-.21.07-1.53.46-1.18-.23.14-.27.73-.5,1-.66a14.46,14.46,0,0,0,1.75-1.37,5.57,5.57,0,0,0,1.36-1.9c.31-.76.37-1.65,1-2.22.35-.33-.18-.86-.53-.53a4.86,4.86,0,0,0-1.09,2.27,5.25,5.25,0,0,1-1.64,2.17,12.33,12.33,0,0,1-1.17.88,9.14,9.14,0,0,0-1.2.83,1,1,0,0,0,.38,1.62c1,.35,2.13-.36,3-.71,1-.42,2-.85,3.09-1.22s2.15-.58,3.16-1c.65-.28,1.47-.84,1.15-1.67a7.26,7.26,0,0,0-1-1.46,3.61,3.61,0,0,0-1-1.12c-1-.62-2.25.52-3.09-.53-.3-.38-.83.15-.53.53Z" transform="translate(-69.29 224.18)"/><path class="cls-13" d="M580.34,3032.07a16,16,0,0,0-2.45.61,6.09,6.09,0,0,0,2.51.69c.05,0,.1,0,.13,0a.15.15,0,0,0,0-.11,2.88,2.88,0,0,0-.09-1.09" transform="translate(-69.29 224.18)"/><path class="cls-13" d="M580.24,3031.71a16,16,0,0,0-2.45.61.38.38,0,0,0-.27.31.39.39,0,0,0,.18.37,7.66,7.66,0,0,0,2.23.72,2,2,0,0,0,.55,0,.54.54,0,0,0,.47-.52,3.39,3.39,0,0,0-.1-1.19.37.37,0,0,0-.46-.26.38.38,0,0,0-.27.46,2,2,0,0,1,.09.49,2.09,2.09,0,0,1,0,.25v.15s0,.06,0,0l.13-.13h-.19l-.24,0a4.58,4.58,0,0,1-.64-.15,10.14,10.14,0,0,1-1.19-.47l-.09.69a14.85,14.85,0,0,1,2.45-.6.38.38,0,0,0,.27-.46.39.39,0,0,0-.47-.27Z" transform="translate(-69.29 224.18)"/><path class="cls-31" d="M553.69,2999.9a1.13,1.13,0,0,0,0-2.25,1.13,1.13,0,0,0,0,2.25Z" transform="translate(-69.29 224.18)"/><path class="cls-31" d="M582.28,3032.61a.38.38,0,0,0,0-.75.38.38,0,0,0,0,.75Z" transform="translate(-69.29 224.18)"/><path class="cls-13" d="M584.68,3036.2a5.15,5.15,0,0,0,1,1.69,3.19,3.19,0,0,0,1.66.85,6.89,6.89,0,0,0,2.22,0,1.45,1.45,0,0,0,.82-.33.82.82,0,0,0,.22-.87c-.17-.45-.89-.26-.72.2.12.3-1,.32-1.1.33a4.74,4.74,0,0,1-1.55-.12,2.33,2.33,0,0,1-1.1-.68,3.94,3.94,0,0,1-.68-1.26.39.39,0,0,0-.47-.26.38.38,0,0,0-.26.46Z" transform="translate(-69.29 224.18)"/><path class="cls-32" d="M172.25,596.34" transform="translate(-69.29 224.18)"/><path class="cls-33" d="M203.5,597" transform="translate(-69.29 224.18)"/></g><g id="Layer_28" data-name="Layer 28"><rect class="cls-34" x="811.26" y="1880.52" width="15.35" height="2"/><rect class="cls-34" x="811.26" y="1872.49" width="15.35" height="2"/><rect class="cls-34" x="811.26" y="1888.64" width="15.35" height="2"/><rect class="cls-34" x="866.85" y="1656.34" width="29.41" height="2" transform="translate(2469.61 999.97) rotate(90)"/><rect class="cls-34" x="880.2" y="1656.34" width="29.41" height="2" transform="translate(2482.95 986.62) rotate(90)"/><circle class="cls-20" cx="879.88" cy="1879.66" r="16.81"/><circle class="cls-16" cx="879.88" cy="1879.66" r="11.47"/><circle class="cls-20" cx="772.53" cy="1880.52" r="16.81"/><circle class="cls-16" cx="772.53" cy="1880.52" r="11.47"/><rect class="cls-16" x="166.06" y="3291.59" width="61.32" height="14.46" rx="3.22"/><path class="cls-29" d="M399.74,3078.69H220.33A14.35,14.35,0,0,0,206,3093.05v71.77a14.35,14.35,0,0,0,14.35,14.36H399.74a14.36,14.36,0,0,0,14.36-14.36v-71.77A14.36,14.36,0,0,0,399.74,3078.69Zm-51.25,91.64H301.14V3102.8h47.35Z" transform="translate(-69.29 224.18)"/><path class="cls-29" d="M414.53,3175.61l21.27-42.92L413,3088.3q-9.25,43.66-18.53,87.31Z" transform="translate(-69.29 224.18)"/><rect class="cls-30" x="153.08" y="3322.36" width="67.53" height="40.18" rx="2.98"/><rect class="cls-30" x="302.5" y="3326.97" width="16.35" height="26.94" rx="1.6"/><rect class="cls-30" x="324.26" y="3326.97" width="16.35" height="26.94" rx="1.6"/><rect class="cls-29" x="136.68" y="3359.73" width="92.62" height="43.63"/><rect class="cls-20" x="136.68" y="3368.23" width="95.16" height="2.04"/><rect class="cls-20" x="136.68" y="3377.06" width="95.16" height="2.04"/><rect class="cls-20" x="279.2" y="3368.23" width="47.58" height="2.04"/><rect class="cls-20" x="279.2" y="3377.06" width="47.58" height="2.04"/><path class="cls-20" d="M257.39,3187.81" transform="translate(-69.29 224.18)"/><rect class="cls-16" x="113.8" y="3329.69" width="22.89" height="50.78" rx="4.59"/><rect class="cls-16" x="136.68" y="3399.79" width="208.52" height="4.42"/><rect class="cls-34" x="235.47" y="3404.21" width="15.35" height="2"/><rect class="cls-34" x="235.47" y="3396.18" width="15.35" height="2"/><rect class="cls-34" x="235.47" y="3412.34" width="15.35" height="2"/><rect class="cls-34" x="291.06" y="3180.03" width="29.41" height="2" transform="translate(3417.51 3099.45) rotate(90)"/><rect class="cls-34" x="304.41" y="3180.03" width="29.41" height="2" transform="translate(3430.86 3086.1) rotate(90)"/><circle class="cls-20" cx="304.09" cy="3403.36" r="16.81"/><circle class="cls-16" cx="304.09" cy="3403.36" r="11.47"/><circle class="cls-20" cx="196.75" cy="3404.21" r="16.81"/><circle class="cls-16" cx="196.75" cy="3404.21" r="11.47"/></g><g id="Layer_36" data-name="Layer 36"><polygon class="cls-15" points="64.06 2788.63 69.88 2806.55 75.7 2824.47 64.06 2824.47 52.42 2824.47 58.24 2806.55 64.06 2788.63"/><polygon class="cls-15" points="294.1 1762.6 299.92 1780.52 305.74 1798.43 294.1 1798.43 282.46 1798.43 288.28 1780.52 294.1 1762.6"/><polygon class="cls-15" points="636.83 43.72 642.65 61.63 648.46 79.55 636.83 79.55 625.19 79.55 631.01 61.63 636.83 43.72"/><path class="cls-2" d="M684-161.9V286.5H888.35V-161.9Zm36.39,30.5h40.75v59.78H720.43Zm0,82.82h40.75V11.2H720.43Zm0,82.81h40.75V94H720.43Zm0,82.81h40.75v59.78H720.43ZM762.36,268.9H715V201.36h47.35ZM818,176.82H777.24V117H818ZM818,94H777.24V34.23H818Zm0-82.81H777.24V-48.58H818Zm0-82.82H777.24V-131.4H818Zm56.81,248.44H834.06V117h40.75Zm0-82.81H834.06V34.23h40.75Zm0-82.81H834.06V-48.58h40.75Zm0-82.82H834.06V-131.4h40.75Z" transform="translate(-69.29 224.18)"/><path class="cls-11" d="M440.36-78.24V285.87H644.67V-78.24Zm36.39,29h40.76V10.56H476.75Zm0,82.81h40.76V93.37H476.75Zm0,82.81h40.76v59.78H476.75Zm41.93,151.86H471.33V200.73h47.35Zm55.64-92.08H533.57V116.4h40.75Zm0-82.81H533.57V33.59h40.75Zm0-82.81H533.57V-49.22h40.75Zm56.82,165.62H590.38V116.4h40.76Zm0-82.81H590.38V33.59h40.76Zm0-82.81H590.38V-49.22h40.76Z" transform="translate(-69.29 224.18)"/><rect class="cls-18" x="532.3" y="118.55" width="8.53" height="30.08"/><rect class="cls-18" x="548.84" y="123" width="8.53" height="24.97"/><rect class="cls-19" x="531.55" y="120.18" width="10.02" height="1.61"/><rect class="cls-19" x="531.55" y="123.84" width="10.02" height="1.61"/><rect class="cls-19" x="548.09" y="124.64" width="10.02" height="1.61"/><rect class="cls-19" x="548.09" y="128.3" width="10.02" height="1.61"/><rect class="cls-7" x="473.33" y="418.89" width="95.91" height="59.78"/><rect class="cls-19" x="469.55" y="418.89" width="7.55" height="73.8"/><rect class="cls-19" x="567.83" y="422.03" width="7.55" height="73.8"/><rect class="cls-19" x="518.69" y="420.7" width="7.55" height="73.8"/><rect class="cls-19" x="469.55" y="475.98" width="105.83" height="29.95"/><ellipse class="cls-24" cx="609.14" cy="201.01" rx="25.05" ry="69.8" transform="translate(276.3 1010) rotate(-84)"/><rect class="cls-20" x="361.57" y="396.89" width="39.43" height="3.47"/><rect class="cls-20" x="361.57" y="368.74" width="39.43" height="3.47"/><rect class="cls-18" x="368.95" y="372.2" width="2.12" height="24.69"/><rect class="cls-18" x="374.42" y="372.2" width="2.12" height="24.69"/><rect class="cls-18" x="379.88" y="372.2" width="2.12" height="24.69"/><rect class="cls-18" x="385.35" y="372.2" width="2.12" height="24.69"/><rect class="cls-18" x="390.94" y="372.2" width="2.12" height="24.69"/><rect class="cls-18" x="396.4" y="372.2" width="2.12" height="24.69"/><rect class="cls-20" x="361.74" y="314.08" width="39.43" height="3.47"/><rect class="cls-20" x="361.74" y="285.93" width="39.43" height="3.47"/><rect class="cls-18" x="369.13" y="289.39" width="2.12" height="24.69"/><rect class="cls-18" x="374.6" y="289.39" width="2.12" height="24.69"/><rect class="cls-18" x="380.06" y="289.39" width="2.12" height="24.69"/><rect class="cls-18" x="385.52" y="289.39" width="2.12" height="24.69"/><rect class="cls-18" x="391.12" y="289.39" width="2.12" height="24.69"/><rect class="cls-18" x="396.58" y="289.39" width="2.12" height="24.69"/><rect class="cls-20" x="361.65" y="231.27" width="39.43" height="3.47"/><rect class="cls-20" x="361.65" y="203.11" width="39.43" height="3.47"/><rect class="cls-18" x="369.04" y="206.58" width="2.12" height="24.69"/><rect class="cls-18" x="374.51" y="206.58" width="2.12" height="24.69"/><rect class="cls-18" x="379.97" y="206.58" width="2.12" height="24.69"/><rect class="cls-18" x="385.44" y="206.58" width="2.12" height="24.69"/><rect class="cls-18" x="391.03" y="206.58" width="2.12" height="24.69"/><rect class="cls-18" x="396.49" y="206.58" width="2.12" height="24.69"/><rect class="cls-19" x="369.13" y="144.93" width="208.2" height="6.48"/><rect class="cls-19" x="369.13" y="234.74" width="208.2" height="6.48"/><rect class="cls-19" x="369.13" y="317.55" width="208.2" height="6.48"/><rect class="cls-19" x="369.13" y="400.36" width="208.2" height="6.48"/><rect class="cls-19" x="369.13" y="144.77" width="208.2" height="6.34"/><path class="cls-25" d="M622,219.37H597.74l-24.21-36.71h24Z" transform="translate(-69.29 224.18)"/><path class="cls-25" d="M668.78,219.37H644.67l-23.94-36.71h24Q656.76,201,668.78,219.37Z" transform="translate(-69.29 224.18)"/><path class="cls-25" d="M574.32,219.37H550l-24.21-36.71h24Z" transform="translate(-69.29 224.18)"/><rect class="cls-22" x="423.65" y="492.44" width="25.74" height="26.43"/><rect class="cls-19" x="402.04" y="492.44" width="38.96" height="8.82"/><rect class="cls-23" x="393.64" y="501.26" width="40.12" height="8.82"/><rect class="cls-19" x="386.41" y="510.04" width="39.31" height="8.82"/><circle class="cls-16" cx="636.83" cy="45.02" r="6.09"/><circle class="cls-17" cx="659.51" cy="15.28" r="3.1"/><polygon class="cls-18" points="659.91 14.84 658.65 18.67 657.4 22.5 655 20.38 652.6 18.25 656.25 16.54 659.91 14.84"/><path class="cls-17" d="M747.29-183.42a30.74,30.74,0,0,1-43.38,2.62,30.74,30.74,0,0,1-2.62-43.38" transform="translate(-69.29 224.18)"/><circle class="cls-17" cx="659.51" cy="15.28" r="3.1"/><rect class="cls-18" x="775.98" y="36.07" width="8.53" height="30.08"/><rect class="cls-18" x="792.52" y="40.51" width="8.53" height="24.97"/><rect class="cls-19" x="775.23" y="37.69" width="10.02" height="1.61"/><rect class="cls-19" x="775.23" y="41.35" width="10.02" height="1.61"/><rect class="cls-19" x="791.77" y="42.15" width="10.02" height="1.61"/><rect class="cls-19" x="791.77" y="45.82" width="10.02" height="1.61"/><rect class="cls-7" x="717.01" y="419.53" width="95.91" height="59.78"/><rect class="cls-19" x="713.23" y="419.53" width="7.55" height="73.8"/><rect class="cls-19" x="811.5" y="422.66" width="7.55" height="73.8"/><rect class="cls-19" x="762.37" y="421.34" width="7.55" height="73.8"/><rect class="cls-19" x="713.23" y="476.61" width="105.83" height="29.95"/><ellipse class="cls-13" cx="852.82" cy="201.65" rx="25.05" ry="69.8" transform="translate(493.88 1252.91) rotate(-84)"/><rect class="cls-20" x="605.24" y="397.53" width="39.43" height="3.47"/><rect class="cls-20" x="605.24" y="369.37" width="39.43" height="3.47"/><rect class="cls-18" x="606.95" y="372.84" width="2.12" height="24.69"/><rect class="cls-18" x="612.63" y="372.84" width="2.12" height="24.69"/><rect class="cls-18" x="618.09" y="372.84" width="2.12" height="24.69"/><rect class="cls-18" x="623.56" y="372.84" width="2.12" height="24.69"/><rect class="cls-18" x="629.02" y="372.84" width="2.12" height="24.69"/><rect class="cls-18" x="634.61" y="372.84" width="2.12" height="24.69"/><rect class="cls-18" x="640.08" y="372.84" width="2.12" height="24.69"/><rect class="cls-20" x="605.42" y="314.72" width="39.43" height="3.47"/><rect class="cls-20" x="605.42" y="286.56" width="39.43" height="3.47"/><rect class="cls-18" x="607.13" y="290.03" width="2.12" height="24.69"/><rect class="cls-18" x="612.81" y="290.03" width="2.12" height="24.69"/><rect class="cls-18" x="618.27" y="290.03" width="2.12" height="24.69"/><rect class="cls-18" x="623.74" y="290.03" width="2.12" height="24.69"/><rect class="cls-18" x="629.2" y="290.03" width="2.12" height="24.69"/><rect class="cls-18" x="634.79" y="290.03" width="2.12" height="24.69"/><rect class="cls-18" x="640.26" y="290.03" width="2.12" height="24.69"/><rect class="cls-20" x="605.33" y="231.91" width="39.43" height="3.47"/><rect class="cls-20" x="605.33" y="203.75" width="39.43" height="3.47"/><rect class="cls-18" x="607.04" y="207.22" width="2.12" height="24.69"/><rect class="cls-18" x="612.72" y="207.22" width="2.12" height="24.69"/><rect class="cls-18" x="618.18" y="207.22" width="2.12" height="24.69"/><rect class="cls-18" x="623.65" y="207.22" width="2.12" height="24.69"/><rect class="cls-18" x="629.11" y="207.22" width="2.12" height="24.69"/><rect class="cls-18" x="634.7" y="207.22" width="2.12" height="24.69"/><rect class="cls-18" x="640.17" y="207.22" width="2.12" height="24.69"/><rect class="cls-20" x="605.33" y="149.1" width="39.43" height="3.47"/><rect class="cls-20" x="605.33" y="120.94" width="39.43" height="3.47"/><rect class="cls-18" x="607.04" y="124.4" width="2.12" height="24.69"/><rect class="cls-18" x="612.72" y="124.4" width="2.12" height="24.69"/><rect class="cls-18" x="618.18" y="124.4" width="2.12" height="24.69"/><rect class="cls-18" x="623.65" y="124.4" width="2.12" height="24.69"/><rect class="cls-18" x="629.11" y="124.4" width="2.12" height="24.69"/><rect class="cls-18" x="634.7" y="124.4" width="2.12" height="24.69"/><rect class="cls-18" x="640.17" y="124.4" width="2.12" height="24.69"/><rect class="cls-19" x="612.81" y="152.56" width="208.2" height="6.48"/><rect class="cls-19" x="612.81" y="235.37" width="208.2" height="6.48"/><rect class="cls-19" x="612.81" y="318.18" width="208.2" height="6.48"/><rect class="cls-19" x="612.8" y="400.99" width="208.2" height="6.48"/><rect class="cls-19" x="612.81" y="62.28" width="208.2" height="6.34"/><path class="cls-21" d="M865.71,220h-24.3L817.2,183.29h24Z" transform="translate(-69.29 224.18)"/><path class="cls-21" d="M912.46,220H888.35l-23.94-36.72h24Z" transform="translate(-69.29 224.18)"/><path class="cls-21" d="M818,220H793.7l-24.21-36.72h24Z" transform="translate(-69.29 224.18)"/><rect class="cls-22" x="667.32" y="493.07" width="25.74" height="26.43"/><rect class="cls-19" x="645.71" y="493.07" width="38.96" height="8.82"/><rect class="cls-23" x="637.32" y="501.9" width="40.12" height="8.82"/><rect class="cls-19" x="630.08" y="510.68" width="39.31" height="8.82"/><line class="cls-35" x1="407.52" y1="4000.37" x2="407.12" y2="4000.37"/><path class="cls-36" d="M341.31,1557v448.4H545.62V1557Zm36.39,30.5h40.75v59.78H377.7Zm0,82.81h40.75v59.78H377.7Zm0,82.81h40.75v59.78H377.7Zm0,82.81h40.75v59.78H377.7Zm41.93,151.86H372.28v-67.53h47.35Zm55.64-92.08H434.51v-59.78h40.76Zm0-82.81H434.51v-59.78h40.76Zm0-82.81H434.51V1670.3h40.76Zm0-82.81H434.51v-59.78h40.76Zm56.82,248.43H491.33v-59.78h40.76Zm0-82.81H491.33v-59.78h40.76Zm0-82.81H491.33V1670.3h40.76Zm0-82.81H491.33v-59.78h40.76Z" transform="translate(-69.29 224.18)"/><path class="cls-11" d="M97.63,1640.64v364.11H301.94V1640.64Zm36.39,29h40.76v59.78H134Zm0,82.81h40.76v59.78H134Zm0,82.82h40.76v59.77H134ZM176,1987.14H128.6v-67.53H176Zm55.64-92.08H190.84v-59.77h40.75Zm0-82.81H190.84v-59.78h40.75Zm0-82.81H190.84v-59.78h40.75Zm56.82,165.62H247.65v-59.77h40.76Zm0-82.81H247.65v-59.78h40.76Zm0-82.81H247.65v-59.78h40.76Z" transform="translate(-69.29 224.18)"/><rect class="cls-18" x="189.57" y="1837.44" width="8.53" height="30.08"/><rect class="cls-18" x="206.11" y="1841.88" width="8.53" height="24.97"/><rect class="cls-19" x="188.82" y="1839.06" width="10.02" height="1.61"/><rect class="cls-19" x="188.82" y="1842.72" width="10.02" height="1.61"/><rect class="cls-19" x="205.36" y="1843.52" width="10.02" height="1.61"/><rect class="cls-19" x="205.36" y="1847.18" width="10.02" height="1.61"/><rect class="cls-7" x="130.6" y="2137.77" width="95.91" height="59.78"/><rect class="cls-19" x="126.83" y="2137.77" width="7.55" height="73.8"/><rect class="cls-19" x="225.1" y="2140.91" width="7.55" height="73.8"/><rect class="cls-19" x="175.96" y="2139.58" width="7.55" height="73.8"/><rect class="cls-19" x="126.83" y="2194.86" width="105.83" height="29.95"/><ellipse class="cls-24" cx="266.41" cy="1919.9" rx="25.05" ry="69.8" transform="translate(-1740.1 2208.45) rotate(-84)"/><rect class="cls-20" x="18.84" y="2115.78" width="39.43" height="3.47"/><rect class="cls-20" x="18.84" y="2087.62" width="39.43" height="3.47"/><rect class="cls-18" x="26.22" y="2091.08" width="2.12" height="24.69"/><rect class="cls-18" x="31.69" y="2091.08" width="2.12" height="24.69"/><rect class="cls-18" x="37.15" y="2091.08" width="2.12" height="24.69"/><rect class="cls-18" x="42.62" y="2091.08" width="2.12" height="24.69"/><rect class="cls-18" x="48.21" y="2091.08" width="2.12" height="24.69"/><rect class="cls-18" x="53.67" y="2091.08" width="2.12" height="24.69"/><rect class="cls-20" x="19.02" y="2032.96" width="39.43" height="3.47"/><rect class="cls-20" x="19.02" y="2004.81" width="39.43" height="3.47"/><rect class="cls-18" x="26.4" y="2008.27" width="2.12" height="24.69"/><rect class="cls-18" x="31.87" y="2008.27" width="2.12" height="24.69"/><rect class="cls-18" x="37.33" y="2008.27" width="2.12" height="24.69"/><rect class="cls-18" x="42.8" y="2008.27" width="2.12" height="24.69"/><rect class="cls-18" x="48.39" y="2008.27" width="2.12" height="24.69"/><rect class="cls-18" x="53.85" y="2008.27" width="2.12" height="24.69"/><rect class="cls-20" x="18.93" y="1950.15" width="39.43" height="3.47"/><rect class="cls-20" x="18.93" y="1922" width="39.43" height="3.47"/><rect class="cls-18" x="26.31" y="1925.46" width="2.12" height="24.69"/><rect class="cls-18" x="31.78" y="1925.46" width="2.12" height="24.69"/><rect class="cls-18" x="37.24" y="1925.46" width="2.12" height="24.69"/><rect class="cls-18" x="42.71" y="1925.46" width="2.12" height="24.69"/><rect class="cls-18" x="48.3" y="1925.46" width="2.12" height="24.69"/><rect class="cls-18" x="53.76" y="1925.46" width="2.12" height="24.69"/><rect class="cls-19" x="26.4" y="1863.81" width="208.2" height="6.48"/><rect class="cls-19" x="26.4" y="1953.62" width="208.2" height="6.48"/><rect class="cls-19" x="26.4" y="2036.43" width="208.2" height="6.48"/><rect class="cls-19" x="26.4" y="2119.24" width="208.2" height="6.48"/><rect class="cls-19" x="26.4" y="1863.65" width="208.2" height="6.34"/><path class="cls-25" d="M279.3,1938.25H255l-24.21-36.71h24Z" transform="translate(-69.29 224.18)"/><path class="cls-25" d="M326.05,1938.25H301.94L278,1901.54h24Q314,1919.9,326.05,1938.25Z" transform="translate(-69.29 224.18)"/><path class="cls-25" d="M231.59,1938.25H207.3l-24.21-36.71h24Z" transform="translate(-69.29 224.18)"/><rect class="cls-22" x="80.92" y="2211.32" width="25.74" height="26.43"/><rect class="cls-19" x="59.31" y="2211.32" width="38.96" height="8.82"/><rect class="cls-23" x="50.91" y="2220.14" width="40.12" height="8.82"/><rect class="cls-19" x="43.68" y="2228.92" width="39.31" height="8.82"/><circle class="cls-16" cx="294.1" cy="1763.9" r="6.09"/><circle class="cls-17" cx="316.78" cy="1734.17" r="3.1"/><polygon class="cls-18" points="317.18 1733.72 315.93 1737.55 314.67 1741.39 312.27 1739.26 309.87 1737.13 313.52 1735.43 317.18 1733.72"/><path class="cls-17" d="M404.56,1535.46a30.73,30.73,0,0,1-46-40.75" transform="translate(-69.29 224.18)"/><circle class="cls-17" cx="316.78" cy="1734.17" r="3.1"/><rect class="cls-18" x="433.25" y="1754.95" width="8.53" height="30.08"/><rect class="cls-18" x="449.79" y="1759.39" width="8.53" height="24.97"/><rect class="cls-19" x="432.5" y="1756.57" width="10.02" height="1.61"/><rect class="cls-19" x="432.5" y="1760.23" width="10.02" height="1.61"/><rect class="cls-19" x="449.04" y="1761.04" width="10.02" height="1.61"/><rect class="cls-19" x="449.04" y="1764.7" width="10.02" height="1.61"/><rect class="cls-7" x="374.28" y="2138.41" width="95.91" height="59.78"/><rect class="cls-19" x="370.5" y="2138.41" width="7.55" height="73.8"/><rect class="cls-19" x="468.78" y="2141.55" width="7.55" height="73.8"/><rect class="cls-19" x="419.64" y="2140.22" width="7.55" height="73.8"/><rect class="cls-19" x="370.5" y="2195.5" width="105.83" height="29.95"/><ellipse class="cls-13" cx="510.09" cy="1920.53" rx="25.05" ry="69.8" transform="translate(-1522.52 2451.37) rotate(-84)"/><rect class="cls-20" x="262.51" y="2116.41" width="39.43" height="3.47"/><rect class="cls-20" x="262.51" y="2088.25" width="39.43" height="3.47"/><rect class="cls-18" x="264.22" y="2091.72" width="2.12" height="24.69"/><rect class="cls-18" x="269.9" y="2091.72" width="2.12" height="24.69"/><rect class="cls-18" x="275.37" y="2091.72" width="2.12" height="24.69"/><rect class="cls-18" x="280.83" y="2091.72" width="2.12" height="24.69"/><rect class="cls-18" x="286.29" y="2091.72" width="2.12" height="24.69"/><rect class="cls-18" x="291.89" y="2091.72" width="2.12" height="24.69"/><rect class="cls-18" x="297.35" y="2091.72" width="2.12" height="24.69"/><rect class="cls-20" x="262.69" y="2033.6" width="39.43" height="3.47"/><rect class="cls-20" x="262.69" y="2005.44" width="39.43" height="3.47"/><rect class="cls-18" x="264.4" y="2008.91" width="2.12" height="24.69"/><rect class="cls-18" x="270.08" y="2008.91" width="2.12" height="24.69"/><rect class="cls-18" x="275.54" y="2008.91" width="2.12" height="24.69"/><rect class="cls-18" x="281.01" y="2008.91" width="2.12" height="24.69"/><rect class="cls-18" x="286.47" y="2008.91" width="2.12" height="24.69"/><rect class="cls-18" x="292.06" y="2008.91" width="2.12" height="24.69"/><rect class="cls-18" x="297.53" y="2008.91" width="2.12" height="24.69"/><rect class="cls-20" x="262.6" y="1950.79" width="39.43" height="3.47"/><rect class="cls-20" x="262.6" y="1922.63" width="39.43" height="3.47"/><rect class="cls-18" x="264.31" y="1926.1" width="2.12" height="24.69"/><rect class="cls-18" x="269.99" y="1926.1" width="2.12" height="24.69"/><rect class="cls-18" x="275.45" y="1926.1" width="2.12" height="24.69"/><rect class="cls-18" x="280.92" y="1926.1" width="2.12" height="24.69"/><rect class="cls-18" x="286.38" y="1926.1" width="2.12" height="24.69"/><rect class="cls-18" x="291.97" y="1926.1" width="2.12" height="24.69"/><rect class="cls-18" x="297.44" y="1926.1" width="2.12" height="24.69"/><rect class="cls-20" x="262.6" y="1867.98" width="39.43" height="3.47"/><rect class="cls-20" x="262.6" y="1839.82" width="39.43" height="3.47"/><rect class="cls-18" x="264.31" y="1843.29" width="2.12" height="24.69"/><rect class="cls-18" x="269.99" y="1843.29" width="2.12" height="24.69"/><rect class="cls-18" x="275.45" y="1843.29" width="2.12" height="24.69"/><rect class="cls-18" x="280.92" y="1843.29" width="2.12" height="24.69"/><rect class="cls-18" x="286.38" y="1843.29" width="2.12" height="24.69"/><rect class="cls-18" x="291.97" y="1843.29" width="2.12" height="24.69"/><rect class="cls-18" x="297.44" y="1843.29" width="2.12" height="24.69"/><rect class="cls-19" x="270.08" y="1871.44" width="208.2" height="6.48"/><rect class="cls-19" x="270.08" y="1954.25" width="208.2" height="6.48"/><rect class="cls-19" x="270.08" y="2037.07" width="208.2" height="6.48"/><rect class="cls-19" x="270.08" y="2119.88" width="208.2" height="6.48"/><rect class="cls-19" x="270.08" y="1781.16" width="208.2" height="6.34"/><path class="cls-21" d="M523,1938.89h-24.3l-24.21-36.71h24Z" transform="translate(-69.29 224.18)"/><path class="cls-21" d="M569.73,1938.89H545.62l-23.94-36.71h24Z" transform="translate(-69.29 224.18)"/><path class="cls-21" d="M475.27,1938.89H451l-24.21-36.71h24Z" transform="translate(-69.29 224.18)"/><rect class="cls-22" x="324.59" y="2211.96" width="25.74" height="26.43"/><rect class="cls-19" x="302.99" y="2211.96" width="38.96" height="8.82"/><rect class="cls-23" x="294.59" y="2220.78" width="40.12" height="8.82"/><rect class="cls-19" x="287.35" y="2229.56" width="39.31" height="8.82"/><path class="cls-2" d="M111.27,2583v448.4H315.58V2583Zm36.39,30.5h40.75v59.78H147.66Zm0,82.81h40.75v59.78H147.66Zm0,82.81h40.75v59.78H147.66Zm0,82.82h40.75v59.77H147.66Zm41.93,151.85H142.24v-67.53h47.35Zm55.64-92.08H204.47V2862h40.76Zm0-82.81H204.47v-59.78h40.76Zm0-82.81H204.47v-59.78h40.76Zm0-82.81H204.47v-59.78h40.76Zm56.82,248.43H261.29V2862h40.76Zm0-82.81H261.29v-59.78h40.76Zm0-82.81H261.29v-59.78h40.76Zm0-82.81H261.29v-59.78h40.76Z" transform="translate(-69.29 224.18)"/><circle class="cls-16" cx="64.06" cy="2789.93" r="6.09"/><circle class="cls-17" cx="86.75" cy="2760.2" r="3.1"/><polygon class="cls-18" points="87.14 2759.75 85.89 2763.59 84.63 2767.42 82.23 2765.29 79.83 2763.17 83.49 2761.46 87.14 2759.75"/><path class="cls-17" d="M174.52,2561.49a30.73,30.73,0,1,1-46-40.75" transform="translate(-69.29 224.18)"/><circle class="cls-17" cx="86.75" cy="2760.2" r="3.1"/><rect class="cls-18" x="203.21" y="2780.98" width="8.53" height="30.08"/><rect class="cls-18" x="219.75" y="2785.43" width="8.53" height="24.97"/><rect class="cls-19" x="202.46" y="2782.61" width="10.02" height="1.61"/><rect class="cls-19" x="202.46" y="2786.27" width="10.02" height="1.61"/><rect class="cls-19" x="219" y="2787.07" width="10.02" height="1.61"/><rect class="cls-19" x="219" y="2790.73" width="10.02" height="1.61"/><rect class="cls-7" x="144.24" y="3164.44" width="95.91" height="59.78"/><rect class="cls-19" x="140.46" y="3164.44" width="7.55" height="73.8"/><rect class="cls-19" x="238.74" y="3167.58" width="7.55" height="73.8"/><rect class="cls-19" x="189.6" y="3166.25" width="7.55" height="73.8"/><rect class="cls-19" x="140.46" y="3221.53" width="105.83" height="29.95"/><ellipse class="cls-37" cx="280.05" cy="2946.57" rx="25.05" ry="69.8" transform="translate(-2748.94 3141.43) rotate(-84)"/><rect class="cls-20" x="32.48" y="3142.45" width="39.43" height="3.47"/><rect class="cls-20" x="32.48" y="3114.29" width="39.43" height="3.47"/><rect class="cls-18" x="39.86" y="3117.75" width="2.12" height="24.69"/><rect class="cls-18" x="45.33" y="3117.75" width="2.12" height="24.69"/><rect class="cls-18" x="50.79" y="3117.75" width="2.12" height="24.69"/><rect class="cls-18" x="56.26" y="3117.75" width="2.12" height="24.69"/><rect class="cls-18" x="61.85" y="3117.75" width="2.12" height="24.69"/><rect class="cls-18" x="67.31" y="3117.75" width="2.12" height="24.69"/><rect class="cls-20" x="32.65" y="3059.63" width="39.43" height="3.47"/><rect class="cls-20" x="32.65" y="3031.48" width="39.43" height="3.47"/><rect class="cls-18" x="40.04" y="3034.94" width="2.12" height="24.69"/><rect class="cls-18" x="45.5" y="3034.94" width="2.12" height="24.69"/><rect class="cls-18" x="50.97" y="3034.94" width="2.12" height="24.69"/><rect class="cls-18" x="56.43" y="3034.94" width="2.12" height="24.69"/><rect class="cls-18" x="62.02" y="3034.94" width="2.12" height="24.69"/><rect class="cls-18" x="67.49" y="3034.94" width="2.12" height="24.69"/><rect class="cls-20" x="32.56" y="2976.82" width="39.43" height="3.47"/><rect class="cls-20" x="32.56" y="2948.67" width="39.43" height="3.47"/><rect class="cls-18" x="39.95" y="2952.13" width="2.12" height="24.69"/><rect class="cls-18" x="45.41" y="2952.13" width="2.12" height="24.69"/><rect class="cls-18" x="50.88" y="2952.13" width="2.12" height="24.69"/><rect class="cls-18" x="56.34" y="2952.13" width="2.12" height="24.69"/><rect class="cls-18" x="61.93" y="2952.13" width="2.12" height="24.69"/><rect class="cls-18" x="67.4" y="2952.13" width="2.12" height="24.69"/><rect class="cls-20" x="32.56" y="2894.01" width="39.43" height="3.47"/><rect class="cls-20" x="32.56" y="2865.86" width="39.43" height="3.47"/><rect class="cls-18" x="39.95" y="2869.32" width="2.12" height="24.69"/><rect class="cls-18" x="45.41" y="2869.32" width="2.12" height="24.69"/><rect class="cls-18" x="50.88" y="2869.32" width="2.12" height="24.69"/><rect class="cls-18" x="56.34" y="2869.32" width="2.12" height="24.69"/><rect class="cls-18" x="61.93" y="2869.32" width="2.12" height="24.69"/><rect class="cls-18" x="67.4" y="2869.32" width="2.12" height="24.69"/><rect class="cls-19" x="40.04" y="2897.48" width="208.2" height="6.48"/><rect class="cls-19" x="40.04" y="2980.29" width="208.2" height="6.48"/><rect class="cls-19" x="40.04" y="3063.1" width="208.2" height="6.48"/><rect class="cls-19" x="40.04" y="3145.91" width="208.2" height="6.48"/><rect class="cls-19" x="40.04" y="2807.2" width="208.2" height="6.34"/><path class="cls-25" d="M292.94,2964.92H268.65l-24.21-36.71h24Z" transform="translate(-69.29 224.18)"/><path class="cls-25" d="M339.69,2964.92H315.58l-23.94-36.71h24Q327.67,2946.57,339.69,2964.92Z" transform="translate(-69.29 224.18)"/><path class="cls-25" d="M245.23,2964.92H220.94l-24.21-36.71h24Z" transform="translate(-69.29 224.18)"/><rect class="cls-22" x="94.56" y="3237.99" width="25.74" height="26.43"/><rect class="cls-19" x="72.95" y="3237.99" width="38.96" height="8.82"/><rect class="cls-23" x="64.55" y="3246.81" width="40.12" height="8.82"/><rect class="cls-19" x="57.31" y="3255.59" width="39.31" height="8.82"/><rect class="cls-18" x="363.28" y="372.2" width="2.12" height="24.69"/><rect class="cls-18" x="363.45" y="289.39" width="2.12" height="24.69"/><rect class="cls-18" x="363.36" y="206.58" width="2.12" height="24.69"/><rect class="cls-18" x="20.55" y="2091.08" width="2.12" height="24.69"/><rect class="cls-18" x="20.46" y="2008.27" width="2.12" height="24.69"/><rect class="cls-18" x="20.46" y="1925.46" width="2.12" height="24.69"/><rect class="cls-18" x="34.2" y="3117.75" width="2.12" height="24.69"/><rect class="cls-18" x="34.38" y="3034.94" width="2.12" height="24.69"/><rect class="cls-18" x="34.29" y="2952.13" width="2.12" height="24.69"/><rect class="cls-18" x="34.29" y="2869.32" width="2.12" height="24.69"/></g></svg>